<svg version="1.1" id="Layer_1" xmlns="http://www.w3.org/2000/svg" xmlns:xlink="http://www.w3.org/1999/xlink" x="0px" y="0px"
	 width="100%" viewBox="0 0 60 60" enable-background="new 0 0 60 60" xml:space="preserve">
<path fill="#C9ABDA" opacity="1.000000" stroke="none" 
	d="
M1.000000,47.000000 
	C1.000000,42.974815 1.000000,38.949635 1.252482,34.250656 
	C2.363434,32.041290 3.221905,30.505713 4.400064,28.978880 
	C5.148107,28.990705 5.576463,28.993786 6.336326,28.997599 
	C7.109810,28.993280 7.551787,28.988228 8.251419,29.098804 
	C9.004121,29.483702 9.499166,29.752972 9.995473,30.487705 
	C9.997517,35.968655 9.998301,40.984135 9.667572,46.099472 
	C7.911479,47.464951 6.486897,48.730579 5.005860,49.684349 
	C3.632937,48.581661 2.316468,47.790833 1.000000,47.000000 
z"/>
<path fill="#C5A5D8" opacity="1.000000" stroke="none" 
	d="
M9.999084,45.999619 
	C9.998301,40.984135 9.997517,35.968655 10.329077,30.480488 
	C11.106073,30.010262 11.550728,30.012722 11.996931,30.480923 
	C12.001134,34.734016 11.490952,38.611950 12.139709,42.285191 
	C12.904808,46.617157 14.672882,50.771984 15.850538,55.352242 
	C15.463316,57.467243 15.231658,59.233624 15.000000,61.000000 
	C13.611111,61.000000 12.222222,61.000000 10.416811,60.666584 
	C10.000319,59.888615 10.000347,59.444057 10.245985,58.682968 
	C10.327423,54.244160 10.163254,50.121891 9.999084,45.999619 
z"/>
<path fill="#E695C6" opacity="1.000000" stroke="none" 
	d="
M61.000000,40.000000 
	C61.000000,43.362103 61.000000,46.724201 60.599239,50.543076 
	C59.130489,51.001274 58.062496,51.002697 56.662018,51.003517 
	C55.886044,51.002480 55.442554,51.002041 55.011497,50.637695 
	C55.574032,47.630013 56.419399,44.817532 51.997101,44.727295 
	C51.964230,44.264355 51.947979,44.079441 52.089172,43.569313 
	C52.470970,41.834541 52.695320,40.424976 53.304329,39.011475 
	C54.458279,39.002541 55.227570,38.997536 56.332870,39.143326 
	C58.112591,39.529411 59.556293,39.764706 61.000000,40.000000 
z"/>
<path fill="#EB89C8" opacity="1.000000" stroke="none" 
	d="
M53.000000,61.000000 
	C50.629444,61.000000 48.258884,61.000000 45.443329,60.750000 
	C44.998325,60.500000 44.994514,60.000015 45.204887,59.748283 
	C45.621483,57.705135 45.827705,55.913727 46.223328,53.956532 
	C46.614609,53.524464 46.816490,53.258179 47.390968,52.993820 
	C48.508759,52.996620 49.253956,52.997494 50.306297,53.138863 
	C51.743465,54.180367 52.873489,55.081367 54.002457,56.359760 
	C54.001083,57.491318 54.000771,58.245491 53.888771,59.256447 
	C53.518059,60.008823 53.259029,60.504410 53.000000,61.000000 
z"/>
<path fill="#CE95D5" opacity="1.000000" stroke="none" 
	d="
M15.437500,61.000000 
	C15.231658,59.233624 15.463316,57.467243 16.051805,55.216110 
	C16.660875,54.520348 16.862104,54.268570 17.388184,53.986969 
	C18.517063,53.984398 19.270081,53.970882 20.336803,54.006683 
	C21.434282,54.370060 22.218052,54.684113 22.994553,55.266640 
	C22.991774,55.714100 22.996264,55.893093 22.834412,56.169266 
	C22.465588,56.426052 22.300373,56.617767 22.131399,57.255981 
	C22.060246,58.780243 22.030123,59.890121 22.000000,61.000000 
	C19.958334,61.000000 17.916666,61.000000 15.437500,61.000000 
z"/>
<path fill="#EE90CB" opacity="1.000000" stroke="none" 
	d="
M1.000000,47.454109 
	C2.316468,47.790833 3.632937,48.581661 4.998202,50.051376 
	C5.358914,52.152699 5.670828,53.575142 5.769101,55.192921 
	C5.364815,55.927238 5.174170,56.466213 4.585497,57.003582 
	C3.124980,57.001312 2.062490,57.000656 1.000000,57.000000 
	C1.000000,53.969406 1.000000,50.938812 1.000000,47.454109 
z"/>
<path fill="#CE8BD0" opacity="1.000000" stroke="none" 
	d="
M30.000000,1.000000 
	C31.388998,1.000000 32.777996,1.000000 34.592201,1.330451 
	C35.344887,2.440567 35.672367,3.220232 35.999722,4.374737 
	C35.999069,5.499256 35.998543,6.248934 35.711227,7.040776 
	C34.949280,7.388416 34.474117,7.693892 33.657852,7.948543 
	C32.210091,7.598010 31.103436,7.298301 29.997866,6.599682 
	C29.992426,5.137745 29.985901,4.074719 29.983086,2.676413 
	C29.991198,1.894089 29.995600,1.447044 30.000000,1.000000 
z"/>
<path fill="#CF80D3" opacity="1.000000" stroke="none" 
	d="
M38.000000,1.000000 
	C38.750000,1.000000 39.500000,1.000000 40.706108,1.315171 
	C43.107510,1.761087 45.052803,1.891831 47.067204,2.322784 
	C47.755840,3.078678 48.375370,3.534364 48.819889,4.214063 
	C48.097351,4.958163 47.549820,5.478251 46.564560,5.998736 
	C44.084911,5.999062 42.042988,5.998990 39.869049,5.709328 
	C39.490364,4.615423 39.243702,3.811107 38.880127,2.752153 
	C38.508808,1.998344 38.254406,1.499172 38.000000,1.000000 
z"/>
<path fill="#A986DA" opacity="1.000000" stroke="none" 
	d="
M35.000000,61.000000 
	C32.299370,61.000000 29.598742,61.000000 26.317127,60.709797 
	C25.487522,59.614182 25.238903,58.808769 25.243305,58.001358 
	C25.664919,57.998539 25.833513,57.997715 26.298355,58.127274 
	C28.063299,58.173069 29.531992,58.088490 31.230043,58.199333 
	C33.202396,59.569092 35.585350,54.669548 36.755039,59.135452 
	C36.007988,59.861713 35.503994,60.430855 35.000000,61.000000 
z"/>
<path fill="#C078D3" opacity="1.000000" stroke="none" 
	d="
M54.000000,1.000000 
	C55.388996,1.000000 56.777996,1.000000 58.594063,1.348616 
	C59.349228,2.798960 59.677322,3.900687 59.811172,5.232826 
	C58.747623,5.969838 57.878307,6.476439 56.868713,6.731283 
	C56.154354,5.984226 55.580276,5.488925 54.860909,4.677461 
	C54.477081,3.240865 54.238541,2.120432 54.000000,1.000000 
z"/>
<path fill="#D476D2" opacity="1.000000" stroke="none" 
	d="
M53.666668,1.000000 
	C54.238541,2.120432 54.477081,3.240865 54.727859,4.877692 
	C54.534317,5.645670 54.287872,5.847629 53.625645,5.999628 
	C52.500301,6.000338 51.750080,6.001383 50.600063,6.001872 
	C49.134277,6.000325 48.068283,5.999332 47.002289,5.998340 
	C47.549820,5.478251 48.097351,4.958163 49.150444,4.158572 
	C50.437340,2.919379 51.218670,1.959690 52.000000,1.000001 
	C52.444447,1.000000 52.888889,1.000000 53.666668,1.000000 
z"/>
<path fill="#D381CD" opacity="1.000000" stroke="none" 
	d="
M57.008995,6.983039 
	C57.878307,6.476439 58.747623,5.969838 60.059788,5.232026 
	C60.502640,5.000814 61.000000,5.000000 61.000000,5.000000 
	C61.000000,6.714358 61.000000,8.428717 60.745319,10.680307 
	C60.003517,11.479837 59.516399,11.742135 58.827564,11.785358 
	C58.077915,11.353477 57.529984,11.140668 56.983932,10.563169 
	C56.988964,9.469481 56.992115,8.740484 56.998230,7.754369 
	C57.003792,7.325848 57.006393,7.154444 57.008995,6.983039 
z"/>
<path fill="#DD99D1" opacity="1.000000" stroke="none" 
	d="
M1.000000,14.000000 
	C1.000000,12.285625 1.000000,10.571250 1.337441,8.430509 
	C2.124764,8.010527 2.574645,8.016912 3.219173,8.232544 
	C3.947732,8.628839 4.481646,8.815886 5.011081,9.400947 
	C5.001632,10.860931 4.996661,11.922904 4.792277,13.118224 
	C4.342390,13.457581 4.140249,13.703343 3.614011,13.994582 
	C2.494388,14.000202 1.747194,14.000101 1.000000,14.000000 
z"/>
<path fill="#EC8AC9" opacity="1.000000" stroke="none" 
	d="
M3.024527,8.023296 
	C2.574645,8.016912 2.124764,8.010527 1.337441,8.002071 
	C1.000000,5.947361 0.909449,3.886710 1.089680,1.850020 
	C1.119506,1.512969 2.333354,1.280695 3.499921,1.416894 
	C4.000623,3.223517 4.001435,4.613246 3.883861,6.257377 
	C3.518492,7.015618 3.271509,7.519457 3.024527,8.023296 
z"/>
<path fill="#F28DC8" opacity="1.000000" stroke="none" 
	d="
M1.000000,57.499756 
	C2.062490,57.000656 3.124980,57.001312 4.800142,57.199059 
	C5.614168,57.931885 5.815522,58.467625 6.008279,59.336071 
	C5.999788,60.112514 5.999894,60.556259 6.000000,61.000000 
	C4.111345,60.369759 0.247063,63.031693 1.000000,57.499756 
z"/>
<path fill="#EB97CA" opacity="1.000000" stroke="none" 
	d="
M56.994507,51.004120 
	C58.062496,51.002697 59.130489,51.001274 60.599239,50.999924 
	C61.000000,52.388889 61.000000,53.777779 60.625000,55.583504 
	C59.499985,56.001225 58.749977,56.002106 57.749901,56.002842 
	C57.333118,56.002155 57.166409,56.001614 57.000000,55.584522 
	C56.998375,53.780025 56.996441,52.392071 56.994507,51.004120 
z"/>
<path fill="#E688C9" opacity="1.000000" stroke="none" 
	d="
M4.002247,6.002975 
	C4.001435,4.613246 4.000623,3.223517 3.999906,1.416894 
	C5.066518,1.000000 6.133036,1.000000 7.600059,1.388679 
	C8.014905,2.554536 8.029245,3.331714 8.017950,4.415733 
	C7.934734,5.131236 7.877155,5.539898 7.437829,5.955231 
	C6.038137,5.975593 5.020192,5.989284 4.002247,6.002975 
z"/>
<path fill="#D28FC7" opacity="1.000000" stroke="none" 
	d="
M61.000000,21.000000 
	C61.000000,22.388998 61.000000,23.777994 60.754555,25.584373 
	C60.509113,26.001755 60.018436,26.015961 59.943169,25.658251 
	C58.230114,24.521112 56.592327,23.741684 54.966991,22.592159 
	C54.986202,21.481224 54.992962,20.740385 55.374802,19.999599 
	C56.499958,20.004965 57.250034,20.010275 58.195107,20.225952 
	C58.923264,20.623196 59.456429,20.810070 60.242191,20.998373 
	C60.663193,20.999865 60.831596,20.999931 61.000000,21.000000 
z"/>
<path fill="#D981CB" opacity="1.000000" stroke="none" 
	d="
M59.029282,12.004433 
	C59.516399,11.742135 60.003517,11.479837 60.745319,11.108770 
	C61.000000,13.041672 61.000000,15.083344 60.743378,17.563416 
	C60.315826,18.008863 60.144890,18.015909 59.645142,18.017395 
	C58.877178,18.012300 58.438030,18.012766 57.999706,18.006542 
	C58.000530,17.999851 58.007900,17.987816 58.006172,17.656975 
	C58.003071,16.884411 58.001698,16.442686 58.000511,15.668221 
	C58.001305,14.891897 58.001911,14.448314 58.216599,13.809132 
	C58.630211,13.077167 58.829746,12.540800 59.029282,12.004433 
z"/>
<path fill="#E49EC6" opacity="1.000000" stroke="none" 
	d="
M61.000000,39.583332 
	C59.556293,39.764706 58.112591,39.529411 56.548103,38.927467 
	C56.972122,37.361778 57.516926,36.162739 58.428879,34.975075 
	C59.530682,34.990967 60.265343,34.995483 61.000000,35.000000 
	C61.000000,36.388889 61.000000,37.777779 61.000000,39.583332 
z"/>
<path fill="#E687C6" opacity="1.000000" stroke="none" 
	d="
M56.999695,56.001068 
	C57.166409,56.001614 57.333118,56.002155 57.749893,56.418694 
	C57.999969,58.223129 57.999985,59.611565 58.000000,61.000000 
	C56.611111,61.000000 55.222221,61.000000 53.416664,61.000000 
	C53.259029,60.504410 53.518059,60.008823 54.213203,59.169991 
	C55.099583,57.885414 55.549854,56.944080 56.250015,56.002785 
	C56.499908,56.002819 56.999695,56.001068 56.999695,56.001068 
z"/>
<path fill="#EA8AC6" opacity="1.000000" stroke="none" 
	d="
M58.499512,61.000000 
	C57.999985,59.611565 57.999969,58.223129 57.999958,56.418839 
	C58.749977,56.002106 59.499985,56.001225 60.625000,56.000172 
	C60.022518,57.542412 63.149216,60.727295 58.499512,61.000000 
z"/>
<path fill="#BD7FD5" opacity="1.000000" stroke="none" 
	d="
M51.583336,1.000001 
	C51.218670,1.959690 50.437340,2.919379 49.325455,3.934560 
	C48.375370,3.534364 47.755840,3.078678 47.067516,2.067003 
	C46.999146,1.340676 46.999573,1.170338 47.000000,1.000000 
	C48.388889,1.000000 49.777779,1.000000 51.583336,1.000001 
z"/>
<path fill="#D4AEDA" opacity="1.000000" stroke="none" 
	d="
M1.000000,25.000000 
	C1.000000,23.285625 1.000000,21.571249 1.253692,19.541615 
	C1.998098,19.485437 2.488812,19.744520 3.045090,20.286053 
	C3.391380,21.061699 3.672105,21.554895 3.946600,22.426258 
	C3.855993,23.555370 3.771616,24.306314 3.352511,25.035816 
	C2.345188,25.009583 1.672594,25.004791 1.000000,25.000000 
z"/>
<path fill="#E7BFDA" opacity="1.000000" stroke="none" 
	d="
M4.080377,28.970135 
	C3.221905,30.505713 2.363434,32.041290 1.252482,33.788433 
	C1.000000,32.285641 1.000000,30.571283 1.367926,28.428392 
	C2.471381,28.003799 3.206909,28.007740 3.975370,28.251503 
	C4.008302,28.491323 4.080376,28.970135 4.080377,28.970135 
z"/>
<path fill="#C596D1" opacity="1.000000" stroke="none" 
	d="
M29.571280,1.000000 
	C29.995600,1.447044 29.991198,1.894089 29.556736,2.673137 
	C27.415565,3.005602 25.704458,3.006062 23.744423,3.003175 
	C23.495499,2.999829 22.997665,2.992062 23.113182,2.738094 
	C23.485800,1.989418 23.742899,1.494709 24.000000,1.000000 
	C25.714186,1.000000 27.428373,1.000000 29.571280,1.000000 
z"/>
<path fill="#EC97C7" opacity="1.000000" stroke="none" 
	d="
M61.000000,34.599777 
	C60.265343,34.995483 59.530682,34.990967 58.415100,34.737259 
	C58.034180,34.488071 58.007008,34.011692 58.004532,33.674877 
	C58.001602,32.890423 58.001148,32.442783 58.027954,31.760372 
	C58.055210,31.525600 58.121521,31.057579 58.480999,31.039780 
	C59.560318,31.014656 60.280159,31.007328 61.000000,31.000000 
	C61.000000,32.066517 61.000000,33.133038 61.000000,34.599777 
z"/>
<path fill="#BC8BD8" opacity="1.000000" stroke="none" 
	d="
M24.990284,58.003357 
	C25.238903,58.808769 25.487522,59.614182 25.868071,60.709797 
	C24.933331,61.000000 23.866661,61.000000 22.399996,61.000000 
	C22.030123,59.890121 22.060246,58.780243 22.330891,57.266743 
	C22.571413,56.863121 22.973948,56.831436 23.091583,56.997215 
	C23.802910,57.443119 24.396597,57.723236 24.990284,58.003357 
z"/>
<path fill="#CA86CF" opacity="1.000000" stroke="none" 
	d="
M12.000000,1.000000 
	C13.066787,1.000000 14.133574,1.000000 15.600132,1.331265 
	C15.997551,2.103865 15.995197,2.545200 15.975347,3.232919 
	C15.957850,3.479302 15.912638,3.970901 15.684839,3.971739 
	C15.457041,3.972577 15.001938,3.993848 14.668479,3.993215 
	C13.891013,3.993399 13.447006,3.994216 13.004568,3.998887 
	C13.006138,4.002741 13.017992,3.995389 13.016602,3.743999 
	C13.003271,3.325439 12.991330,3.158269 12.843197,2.794024 
	C12.498431,2.350521 12.256261,2.143365 11.984118,1.731586 
	C11.987741,1.487691 12.000000,1.000000 12.000000,1.000000 
z"/>
<path fill="#B88CD3" opacity="1.000000" stroke="none" 
	d="
M15.992844,2.986536 
	C15.995197,2.545200 15.997551,2.103865 15.999952,1.331265 
	C16.750000,1.000000 17.500000,1.000000 18.740547,1.252483 
	C19.499033,1.991128 19.766973,2.477290 19.816586,3.162954 
	C19.398014,3.905806 19.197771,4.449156 18.746143,4.875778 
	C18.001917,4.505220 17.509075,4.251390 16.879881,3.796651 
	C16.532717,3.344103 16.282490,3.141033 15.992844,2.986536 
z"/>
<path fill="#E285CA" opacity="1.000000" stroke="none" 
	d="
M44.994514,60.000015 
	C44.994514,60.000015 44.998325,60.500000 44.999161,60.750000 
	C43.611004,61.000000 42.222004,61.000000 40.416023,60.664230 
	C39.998276,59.880760 39.997513,59.433067 40.283737,58.847397 
	C41.378723,58.467747 42.186722,58.226063 43.063942,58.288574 
	C43.753620,59.061844 44.374069,59.530930 44.994514,60.000015 
z"/>
<path fill="#DA84CE" opacity="1.000000" stroke="none" 
	d="
M39.996750,58.985367 
	C39.997513,59.433067 39.998276,59.880760 39.999519,60.664230 
	C38.611111,61.000000 37.222221,61.000000 35.416664,61.000000 
	C35.503994,60.430855 36.007988,59.861713 37.130005,59.134315 
	C38.497597,58.979164 39.247173,58.982265 39.996750,58.985367 
z"/>
<path fill="#CE86D2" opacity="1.000000" stroke="none" 
	d="
M37.625000,1.000000 
	C38.254406,1.499172 38.508808,1.998344 38.564934,2.792478 
	C37.577717,3.391593 36.788784,3.695745 35.999847,3.999897 
	C35.672367,3.220232 35.344887,2.440567 35.008705,1.330451 
	C35.750000,1.000000 36.500000,1.000000 37.625000,1.000000 
z"/>
<path fill="#E987C9" opacity="1.000000" stroke="none" 
	d="
M11.599777,1.000000 
	C12.000000,1.000000 11.987741,1.487691 11.698206,1.873512 
	C10.286976,2.875853 9.165281,3.492373 8.043587,4.108892 
	C8.029245,3.331714 8.014905,2.554536 8.000282,1.388679 
	C9.066518,1.000000 10.133037,1.000000 11.599777,1.000000 
z"/>
<path fill="#D0A2D6" opacity="1.000000" stroke="none" 
	d="
M6.400223,61.000000 
	C5.999894,60.556259 5.999788,60.112514 6.381097,59.335159 
	C7.509169,59.000874 8.255826,59.000210 9.251957,58.999596 
	C9.501430,58.999645 10.000376,58.999504 10.000376,58.999504 
	C10.000347,59.444057 10.000319,59.888615 10.000145,60.666584 
	C8.933482,61.000000 7.866964,61.000000 6.400223,61.000000 
z"/>
<path fill="#C994D0" opacity="1.000000" stroke="none" 
	d="
M20.034914,2.963452 
	C19.766973,2.477290 19.499033,1.991128 19.115547,1.252483 
	C20.388889,1.000000 21.777779,1.000000 23.583334,1.000000 
	C23.742899,1.494709 23.485800,1.989418 22.742462,2.740266 
	C21.515789,2.985421 20.775351,2.974436 20.034914,2.963452 
z"/>
<path fill="#AE82D7" opacity="1.000000" stroke="none" 
	d="
M46.571537,1.000000 
	C46.999573,1.170338 46.999146,1.340676 46.998405,1.766795 
	C45.052803,1.891831 43.107510,1.761087 41.081108,1.315171 
	C42.714359,1.000000 44.428715,1.000000 46.571537,1.000000 
z"/>
<path fill="#E3A3CA" opacity="1.000000" stroke="none" 
	d="
M61.000000,30.600180 
	C60.280159,31.007328 59.560318,31.014656 58.575459,30.733898 
	C58.879234,29.299829 59.448029,28.153847 60.010139,27.003761 
	C60.003456,26.999662 60.002338,27.018253 60.251686,27.009914 
	C60.501030,27.001574 61.000000,27.000000 61.000000,27.000000 
	C61.000000,28.066786 61.000000,29.133574 61.000000,30.600180 
z"/>
<path fill="#E2B9D9" opacity="1.000000" stroke="none" 
	d="
M3.942438,28.011681 
	C3.206909,28.007740 2.471381,28.003799 1.367926,27.999931 
	C1.000000,27.250000 1.000000,26.500000 1.000000,25.375000 
	C1.672594,25.004791 2.345188,25.009583 3.396702,25.274952 
	C3.775621,25.535528 3.816862,26.019279 3.725811,26.139980 
	C3.556392,26.589436 3.675057,26.836960 4.004626,26.988956 
	C4.018498,26.974663 4.056413,26.962429 4.027736,27.224722 
	C3.980185,27.661903 3.961312,27.836792 3.942438,28.011681 
z"/>
<path fill="#CE82CD" opacity="1.000000" stroke="none" 
	d="
M61.000000,4.500000 
	C61.000000,5.000000 60.502640,5.000814 60.254028,5.001615 
	C59.677322,3.900687 59.349228,2.798960 59.010567,1.348616 
	C61.934139,0.488351 60.792629,2.693802 61.000000,4.500000 
z"/>
<path fill="#D39DD4" opacity="1.000000" stroke="none" 
	d="
M1.000000,14.375000 
	C1.747194,14.000101 2.494388,14.000202 3.487488,14.286785 
	C3.481216,15.376454 3.229038,16.179644 2.647394,16.986837 
	C1.878618,16.993895 1.439309,16.996948 1.000000,17.000000 
	C1.000000,16.250000 1.000000,15.500000 1.000000,14.375000 
z"/>
<path fill="#C7A4D5" opacity="1.000000" stroke="none" 
	d="
M1.000000,17.333334 
	C1.439309,16.996948 1.878618,16.993895 2.702283,17.035278 
	C3.086639,17.079714 3.196822,17.175114 3.158677,17.525879 
	C3.073529,18.585630 3.026528,19.294617 2.979526,20.003601 
	C2.488812,19.744520 1.998098,19.485437 1.253692,19.113178 
	C1.000000,18.555555 1.000000,18.111111 1.000000,17.333334 
z"/>
<path fill="#D68EC7" opacity="1.000000" stroke="none" 
	d="
M59.973957,18.022955 
	C60.144890,18.015909 60.315826,18.008863 60.743378,18.000908 
	C61.000000,18.750000 61.000000,19.500000 61.000000,20.625000 
	C60.831596,20.999931 60.663193,20.999865 60.245010,20.626402 
	C59.988140,19.509655 59.981049,18.766304 59.973957,18.022955 
z"/>
<path fill="#C398C5" opacity="1.000000" stroke="none" 
	d="
M61.000000,26.750000 
	C61.000000,27.000000 60.501030,27.001574 60.255024,26.759254 
	C60.012161,26.349943 60.015301,26.182951 60.018436,26.015961 
	C60.018436,26.015961 60.509113,26.001755 60.754555,26.000877 
	C61.000000,26.000000 61.000000,26.500000 61.000000,26.750000 
z"/>
<path fill="#C8A7D9" opacity="1.000000" stroke="none" 
	d="
M10.245985,58.682968 
	C10.000376,58.999504 9.501430,58.999645 9.201722,58.675411 
	C7.928924,57.233315 6.955832,56.115448 5.982742,54.997581 
	C5.670828,53.575142 5.358914,52.152699 5.054658,50.363235 
	C6.486897,48.730579 7.911479,47.464951 9.667572,46.099472 
	C10.163254,50.121891 10.327423,54.244160 10.245985,58.682968 
z"/>
<path fill="#A78BD9" opacity="1.000000" stroke="none" 
	d="
M3.816862,26.019279 
	C3.816862,26.019279 3.775621,25.535528 3.731430,25.296394 
	C3.771616,24.306314 3.855993,23.555370 4.239362,22.288857 
	C5.350802,21.521595 6.163250,21.269903 6.981561,21.263988 
	C6.987422,21.509768 6.998614,22.001339 7.008672,22.350597 
	C7.347651,23.806114 7.676571,24.912374 8.005152,26.389515 
	C8.001128,27.501322 7.997447,28.242249 7.993764,28.983177 
	C7.551787,28.988228 7.109810,28.993280 6.272129,28.695301 
	C5.269754,27.915657 4.663084,27.439043 4.056413,26.962429 
	C4.056413,26.962429 4.018498,26.974663 3.979760,26.739676 
	C3.899636,26.342886 3.858248,26.181082 3.816862,26.019279 
z"/>
<path fill="#B194D6" opacity="1.000000" stroke="none" 
	d="
M8.251419,29.098804 
	C7.997447,28.242249 8.001128,27.501322 8.319977,26.344955 
	C9.424398,25.624714 10.213654,25.319908 11.142212,25.304708 
	C12.187557,26.396181 13.093598,27.198048 13.999836,28.333607 
	C13.999625,29.111977 13.999219,29.556654 13.664925,30.001530 
	C12.885818,30.006214 12.440599,30.010698 11.995381,30.015182 
	C11.550728,30.012722 11.106073,30.010262 10.327816,30.015022 
	C9.499166,29.752972 9.004121,29.483702 8.251419,29.098804 
z"/>
<path fill="#BFA1DA" opacity="1.000000" stroke="none" 
	d="
M4.027736,27.224722 
	C4.663084,27.439043 5.269754,27.915657 5.940622,28.694569 
	C5.576463,28.993786 5.148107,28.990705 4.400064,28.978880 
	C4.080376,28.970135 4.008302,28.491323 3.975370,28.251503 
	C3.961312,27.836792 3.980185,27.661903 4.027736,27.224722 
z"/>
<path fill="#C1A2D4" opacity="1.000000" stroke="none" 
	d="
M11.996931,30.480923 
	C12.440599,30.010698 12.885818,30.006214 13.666805,30.250727 
	C14.002573,30.499723 14.011701,30.998196 14.008160,31.460344 
	C14.005804,34.413818 13.645049,36.972496 14.093156,39.380661 
	C14.762366,42.977055 16.001272,46.467438 16.998909,50.001488 
	C17.000000,50.000057 17.000746,50.000874 17.130886,50.201454 
	C17.465191,50.653370 17.710968,50.853638 18.000076,51.251957 
	C18.001797,51.501072 18.005888,51.999298 17.794453,52.192688 
	C17.392784,52.916058 17.202555,53.446041 17.012323,53.976021 
	C16.862104,54.268570 16.660875,54.520348 16.207371,54.867485 
	C14.672882,50.771984 12.904808,46.617157 12.139709,42.285191 
	C11.490952,38.611950 12.001134,34.734016 11.996931,30.480923 
z"/>
<path fill="#EB91C7" opacity="1.000000" stroke="none" 
	d="
M49.999153,52.998367 
	C49.253956,52.997494 48.508759,52.996620 47.375252,52.594429 
	C46.997688,51.126717 47.008438,50.060326 47.262905,48.980526 
	C47.506622,48.967121 47.994610,48.953663 48.203827,48.849365 
	C48.675152,48.559742 48.867218,48.318615 49.010689,47.776970 
	C49.032143,47.532261 49.080833,47.043385 49.416931,47.018700 
	C50.506592,46.331116 51.260155,45.668217 52.013714,45.005314 
	C56.419399,44.817532 55.574032,47.630013 54.791454,50.831848 
	C53.225010,52.453274 49.933342,47.966743 49.999153,52.998367 
z"/>
<path fill="#EF91C8" opacity="1.000000" stroke="none" 
	d="
M50.306297,53.138863 
	C49.933342,47.966743 53.225010,52.453274 54.779022,51.195755 
	C55.442554,51.002041 55.886044,51.002480 56.662018,51.003517 
	C56.996441,52.392071 56.998375,53.780025 57.000000,55.584522 
	C56.999695,56.001068 56.499908,56.002819 55.917229,55.998825 
	C54.890869,55.990677 54.447189,55.986523 54.003510,55.982372 
	C52.873489,55.081367 51.743465,54.180367 50.306297,53.138863 
z"/>
<path fill="#DEA2C9" opacity="1.000000" stroke="none" 
	d="
M58.007008,34.011692 
	C58.007008,34.011692 58.034180,34.488071 58.047955,34.725883 
	C57.516926,36.162739 56.972122,37.361778 56.212090,38.776676 
	C55.227570,38.997536 54.458279,39.002541 53.039188,38.971889 
	C51.949318,38.647091 51.509243,38.357944 51.268402,37.909035 
	C51.672134,37.477142 51.876633,37.205013 52.341286,36.771004 
	C53.715076,35.745426 54.828709,34.881733 56.286415,34.015854 
	C57.089333,34.013008 57.548168,34.012352 58.007008,34.011692 
z"/>
<path fill="#B3B7C9" opacity="1.000000" stroke="none" 
	d="
M51.069172,38.068798 
	C51.509243,38.357944 51.949318,38.647091 52.654530,38.975822 
	C52.695320,40.424976 52.470970,41.834541 51.853989,43.598232 
	C51.461361,43.952358 50.987999,43.991314 50.749634,43.796539 
	C49.674141,43.067879 48.837009,42.533993 47.999985,41.750385 
	C48.000088,41.500664 48.000153,41.001221 48.225525,40.764084 
	C48.633904,39.684994 48.816917,38.843048 49.000366,37.752853 
	C49.000797,37.504612 48.998497,37.008129 49.330536,37.011292 
	C50.104580,37.009995 50.546577,37.005535 51.002739,37.268456 
	C51.034325,37.713493 51.051750,37.891144 51.069172,38.068798 
z"/>
<path fill="#D99BC5" opacity="1.000000" stroke="none" 
	d="
M50.987999,43.991314 
	C50.987999,43.991314 51.461361,43.952358 51.696545,43.923439 
	C51.947979,44.079441 51.964230,44.264355 51.997101,44.727295 
	C51.260155,45.668217 50.506592,46.331116 49.453728,46.711586 
	C49.765617,45.616543 50.376808,44.803928 50.987999,43.991314 
z"/>
<path fill="#E287CA" opacity="1.000000" stroke="none" 
	d="
M45.204887,59.748283 
	C44.374069,59.530930 43.753620,59.061844 43.116783,57.967461 
	C43.803272,56.246216 44.506149,55.150269 45.415688,54.066032 
	C45.622345,54.077751 46.033928,54.122314 46.033928,54.122314 
	C45.827705,55.913727 45.621483,57.705135 45.204887,59.748283 
z"/>
<path fill="#C7A4D5" opacity="1.000000" stroke="none" 
	d="
M46.223328,53.956532 
	C46.033928,54.122314 45.622345,54.077751 45.324532,53.771706 
	C44.702324,52.962963 44.377926,52.460266 44.041298,51.588367 
	C44.023186,50.479176 44.017303,49.739182 44.223373,48.802692 
	C44.625786,48.069160 44.816246,47.532127 45.336853,46.996811 
	C46.107227,46.998791 46.547447,46.999054 46.993210,47.331802 
	C47.005566,48.107498 47.012379,48.550716 47.019188,48.993931 
	C47.008438,50.060326 46.997688,51.126717 47.002655,52.592499 
	C46.816490,53.258179 46.614609,53.524464 46.223328,53.956532 
z"/>
<path fill="#E387C7" opacity="1.000000" stroke="none" 
	d="
M54.002457,56.359760 
	C54.447189,55.986523 54.890869,55.990677 55.667336,55.998787 
	C55.549854,56.944080 55.099583,57.885414 54.324886,58.913204 
	C54.000771,58.245491 54.001083,57.491318 54.002457,56.359760 
z"/>
<path fill="#9386C7" opacity="1.000000" stroke="none" 
	d="
M23.001822,54.998169 
	C22.218052,54.684113 21.434282,54.370060 20.327608,53.676552 
	C19.988628,52.855988 19.972551,52.414875 20.089903,51.778908 
	C20.421818,51.332890 20.663500,51.134296 21.328857,50.990753 
	C23.127123,50.425774 24.544903,49.858315 26.183372,49.176460 
	C26.404060,49.062061 26.886383,48.941532 27.200493,49.018196 
	C28.010622,49.730404 28.506641,50.365948 28.870314,51.291332 
	C28.491247,52.386162 28.244530,53.191147 27.801582,54.208691 
	C27.068964,54.613911 26.532574,54.806576 25.621876,54.994926 
	C24.498983,54.993130 23.750402,54.995647 23.001822,54.998169 
z"/>
<path fill="#A486D6" opacity="1.000000" stroke="none" 
	d="
M22.994553,55.266640 
	C23.750402,54.995647 24.498983,54.993130 25.622860,55.369686 
	C25.999474,56.498138 26.000792,57.247513 26.002108,57.996891 
	C25.833513,57.997715 25.664919,57.998539 25.243303,58.001358 
	C24.396597,57.723236 23.802910,57.443119 23.093616,56.808243 
	C22.978012,56.453491 23.000753,56.072086 23.000753,56.072086 
	C22.996264,55.893093 22.991774,55.714100 22.994553,55.266640 
z"/>
<path fill="#A492CF" opacity="1.000000" stroke="none" 
	d="
M19.956474,51.973763 
	C19.972551,52.414875 19.988628,52.855988 20.013901,53.627228 
	C19.270081,53.970882 18.517063,53.984398 17.388184,53.986969 
	C17.202555,53.446041 17.392784,52.916058 18.119781,52.190357 
	C19.089857,51.987679 19.523167,51.980721 19.956474,51.973763 
z"/>
<path fill="#9386C7" opacity="1.000000" stroke="none" 
	d="
M22.834412,56.169266 
	C23.000753,56.072086 22.978012,56.453491 22.975979,56.642464 
	C22.973948,56.831436 22.571413,56.863121 22.371922,56.852356 
	C22.300373,56.617767 22.465588,56.426052 22.834412,56.169266 
z"/>
<path fill="#D5A0D4" opacity="1.000000" stroke="none" 
	d="
M5.769101,55.192921 
	C6.955832,56.115448 7.928924,57.233315 8.952250,58.675362 
	C8.255826,59.000210 7.509169,59.000874 6.389694,59.002457 
	C5.815522,58.467625 5.614168,57.931885 5.198169,57.200668 
	C5.174170,56.466213 5.364815,55.927238 5.769101,55.192921 
z"/>
<path fill="#BC99D2" opacity="1.000000" stroke="none" 
	d="
M23.993349,3.006522 
	C25.704458,3.006062 27.415565,3.005602 29.553026,3.008417 
	C29.985901,4.074719 29.992426,5.137745 29.797302,6.731209 
	C29.343966,7.466620 29.142076,7.712490 28.625160,8.002460 
	C27.172714,8.667880 26.085098,9.330093 24.650986,10.003025 
	C23.209106,10.340415 22.113724,10.667086 21.012310,10.661212 
	C20.999096,9.885090 20.991909,9.441513 20.985943,8.664890 
	C20.986618,7.887762 20.986073,7.443680 21.234653,6.797361 
	C22.320303,5.398924 23.156826,4.202723 23.993349,3.006522 
z"/>
<path fill="#D284D0" opacity="1.000000" stroke="none" 
	d="
M35.999722,4.374738 
	C36.788784,3.695745 37.577717,3.391593 38.681847,3.047115 
	C39.243702,3.811107 39.490364,4.615423 39.860069,6.039774 
	C39.656273,7.439810 39.329433,8.219812 38.712059,8.868019 
	C37.614605,8.490874 36.807682,8.245525 36.000256,7.749785 
	C35.999172,7.332466 35.998592,7.165539 35.998016,6.998612 
	C35.998543,6.248934 35.999069,5.499256 35.999722,4.374738 
z"/>
<path fill="#C88CCA" opacity="1.000000" stroke="none" 
	d="
M28.989990,7.999256 
	C29.142076,7.712490 29.343966,7.466620 29.796219,7.130119 
	C31.103436,7.298301 32.210091,7.598010 33.789524,8.147905 
	C34.466953,8.648310 34.712166,8.848948 34.997707,9.248625 
	C34.997467,9.497240 34.996742,9.994473 34.622169,9.995794 
	C33.498344,9.998267 32.749092,9.999419 31.625080,10.000191 
	C30.501062,9.999126 29.751806,9.998441 29.001619,9.664671 
	C28.997124,8.887476 28.993557,8.443366 28.989990,7.999256 
z"/>
<path fill="#CE87CD" opacity="1.000000" stroke="none" 
	d="
M34.997948,9.000010 
	C34.712166,8.848948 34.466953,8.648310 34.130630,8.198730 
	C34.474117,7.693892 34.949280,7.388416 35.711227,7.040776 
	C35.998592,7.165539 35.999172,7.332466 35.867928,7.949110 
	C35.530483,8.648864 35.284431,8.849258 34.997948,9.000010 
z"/>
<path fill="#D77ECF" opacity="1.000000" stroke="none" 
	d="
M39.002594,8.999815 
	C39.329433,8.219812 39.656273,7.439810 39.992092,6.329362 
	C42.042988,5.998990 44.084911,5.999062 46.564560,5.998737 
	C48.068283,5.999332 49.134277,6.000325 50.455338,6.307498 
	C50.138496,8.076636 49.566586,9.539594 48.679817,11.044209 
	C47.576519,11.390799 46.788074,11.695731 45.645195,12.018782 
	C44.497375,12.743861 43.703991,13.450823 42.680557,14.097977 
	C42.450512,14.038171 41.995872,13.899263 41.832539,13.710106 
	C41.378574,13.361553 41.087948,13.202160 40.495445,13.038721 
	C39.433922,12.827120 38.674267,12.619564 37.944481,12.058601 
	C37.995171,11.470561 38.015987,11.235927 38.244766,10.803393 
	C38.636017,10.070267 38.819305,9.535041 39.002594,8.999815 
z"/>
<path fill="#A785D8" opacity="1.000000" stroke="none" 
	d="
M44.053532,51.957565 
	C44.377926,52.460266 44.702324,52.962963 45.117874,53.759991 
	C44.506149,55.150269 43.803272,56.246216 43.047554,57.663273 
	C42.186722,58.226063 41.378723,58.467747 40.283737,58.847397 
	C39.247173,58.982265 38.497597,58.979164 37.373055,58.977196 
	C35.585350,54.669548 33.202396,59.569092 31.230049,57.798851 
	C30.999723,56.135338 30.998745,55.067745 30.998550,53.625664 
	C30.998608,52.502369 30.997881,51.753567 31.002476,51.000362 
	C31.007797,50.995964 31.020803,50.989613 31.267044,50.988808 
	C31.513285,50.988003 32.005749,50.983288 32.452972,50.989151 
	C36.617977,51.315865 40.335754,51.636715 44.053532,51.957565 
z"/>
<path fill="#9E85D8" opacity="1.000000" stroke="none" 
	d="
M30.997768,54.000149 
	C30.998745,55.067745 30.999723,56.135338 31.000694,57.603420 
	C29.531992,58.088490 28.063299,58.173069 26.298355,58.127274 
	C26.000792,57.247513 25.999474,56.498138 25.997171,55.374001 
	C26.532574,54.806576 27.068964,54.613911 28.176645,54.209976 
	C29.497881,53.999187 30.247826,53.999668 30.997768,54.000149 
z"/>
<path fill="#D075D3" opacity="1.000000" stroke="none" 
	d="
M56.868713,6.731283 
	C57.006393,7.154444 57.003792,7.325848 56.657154,7.736965 
	C55.542332,7.317773 54.771549,6.658867 54.000763,5.999961 
	C54.287872,5.847629 54.534317,5.645670 54.873146,5.193855 
	C55.580276,5.488925 56.154354,5.984226 56.868713,6.731283 
z"/>
<path fill="#DE75CE" opacity="1.000000" stroke="none" 
	d="
M53.625645,5.999627 
	C54.771549,6.658867 55.542332,7.317773 56.654190,7.994083 
	C56.992115,8.740484 56.988964,9.469481 56.977089,10.906471 
	C56.959576,12.070184 56.950783,12.525905 56.548172,12.986308 
	C55.100117,12.998438 54.045883,13.005885 52.651897,12.959101 
	C51.208916,12.601983 50.105690,12.299097 49.000938,11.747792 
	C48.999416,11.499373 48.994675,11.002550 48.994675,11.002550 
	C49.566586,9.539594 50.138496,8.076636 50.855133,6.308054 
	C51.750080,6.001383 52.500301,6.000338 53.625645,5.999627 
z"/>
<path fill="#BD76D3" opacity="1.000000" stroke="none" 
	d="
M56.941994,12.981626 
	C56.950783,12.525905 56.959576,12.070184 56.975204,11.271161 
	C57.529984,11.140668 58.077915,11.353477 58.827568,11.785360 
	C58.829746,12.540800 58.630211,13.077167 58.010384,13.671555 
	C57.332161,13.516571 57.116127,13.267254 56.941994,12.981626 
z"/>
<path fill="#C4A1DA" opacity="1.000000" stroke="none" 
	d="
M4.991691,12.984876 
	C4.996661,11.922904 5.001632,10.860931 5.342134,9.397581 
	C6.119475,8.991712 6.561285,8.987220 7.202068,8.858214 
	C7.650002,8.534720 7.843920,8.291799 7.994632,7.747594 
	C8.015484,7.318748 8.024501,7.147243 8.400506,6.982944 
	C10.167468,7.340765 11.567442,7.691379 12.988031,8.428113 
	C13.046739,9.847935 13.084830,10.881637 13.092466,12.188681 
	C13.056533,12.645297 13.051055,12.828570 13.025421,13.248146 
	C13.005265,13.484447 12.976090,13.957867 12.708187,14.111969 
	C11.616221,15.172632 10.792158,16.079191 9.713671,17.021053 
	C9.292438,17.095043 9.125626,17.133732 8.563269,17.141911 
	C7.111352,17.050430 6.054980,16.989462 4.998955,16.534369 
	C4.996765,15.088454 4.994227,14.036665 4.991691,12.984876 
z"/>
<path fill="#D690D0" opacity="1.000000" stroke="none" 
	d="
M7.003094,8.982729 
	C6.561285,8.987220 6.119475,8.991712 5.346613,8.999569 
	C4.481646,8.815886 3.947732,8.628839 3.219173,8.232544 
	C3.271509,7.519457 3.518492,7.015618 3.883861,6.257377 
	C5.020192,5.989284 6.038137,5.975593 7.503800,6.209884 
	C7.978851,6.630490 8.006184,6.803114 8.033517,6.975739 
	C8.024501,7.147243 8.015484,7.318748 7.799867,7.876727 
	C7.348672,8.463774 7.151947,8.703617 7.003094,8.982729 
z"/>
<path fill="#C69FD8" opacity="1.000000" stroke="none" 
	d="
M4.792277,13.118224 
	C4.994227,14.036665 4.996765,15.088454 4.698465,16.582546 
	C3.997360,17.074938 3.597091,17.125027 3.196822,17.175114 
	C3.196822,17.175114 3.086639,17.079714 3.031750,17.031273 
	C3.229038,16.179644 3.481216,15.376454 3.859917,14.281063 
	C4.140249,13.703343 4.342390,13.457581 4.792277,13.118224 
z"/>
<path fill="#A88BDA" opacity="1.000000" stroke="none" 
	d="
M8.400506,6.982944 
	C8.006184,6.803114 7.978851,6.630490 7.885547,6.203214 
	C7.877155,5.539898 7.934734,5.131236 8.017950,4.415733 
	C9.165281,3.492373 10.286976,2.875853 11.694582,2.117407 
	C12.256261,2.143365 12.498431,2.350521 12.723104,2.902420 
	C12.584398,3.540144 12.677329,3.802643 13.017992,3.995389 
	C13.017992,3.995389 13.006138,4.002741 13.002951,4.338496 
	C13.008668,5.126043 13.017572,5.577836 13.018557,6.364687 
	C12.996229,7.147161 12.981822,7.594577 12.967415,8.041993 
	C11.567442,7.691379 10.167468,7.340765 8.400506,6.982944 
z"/>
<path fill="#B58EC6" opacity="1.000000" stroke="none" 
	d="
M54.999725,19.999544 
	C54.992962,20.740385 54.986202,21.481224 54.963638,22.971092 
	C54.965843,24.475550 54.983856,25.230980 54.984776,26.263823 
	C54.956154,26.726171 54.944626,26.911108 54.700356,27.068169 
	C54.467609,27.040293 53.999878,26.994375 53.996689,26.748674 
	C53.993496,26.502974 53.979309,26.011736 53.976704,25.632553 
	C52.983772,24.168684 51.993446,23.083998 50.868008,21.797079 
	C50.522812,21.341814 50.273533,21.136312 49.987953,20.648310 
	C49.995625,19.878216 50.000408,19.438154 50.370956,18.984524 
	C52.156456,18.657907 53.576195,18.344856 54.997490,18.359924 
	C54.999275,19.125212 54.999500,19.562378 54.999725,19.999544 
z"/>
<path fill="#E18DC6" opacity="1.000000" stroke="none" 
	d="
M55.001869,25.986408 
	C54.983856,25.230980 54.965843,24.475550 54.951187,23.341187 
	C56.592327,23.741684 58.230114,24.521112 59.943169,25.658251 
	C60.015301,26.182951 60.012161,26.349943 60.005676,26.767593 
	C60.002338,27.018253 60.003456,26.999662 59.675961,26.844145 
	C57.899601,26.454556 56.450733,26.220482 55.001869,25.986408 
z"/>
<path fill="#B88FCA" opacity="1.000000" stroke="none" 
	d="
M55.374802,19.999599 
	C54.999500,19.562378 54.999275,19.125212 55.247978,18.347580 
	C55.663948,18.000803 55.830982,17.994493 56.332886,17.992119 
	C57.114475,17.993309 57.561188,17.990562 58.007900,17.987816 
	C58.007900,17.987816 58.000530,17.999851 57.999870,18.339996 
	C57.999512,19.125290 57.999809,19.570438 58.000111,20.015585 
	C57.250034,20.010275 56.499958,20.004965 55.374802,19.999599 
z"/>
<path fill="#BE8CCA" opacity="1.000000" stroke="none" 
	d="
M58.195107,20.225952 
	C57.999809,19.570438 57.999512,19.125290 57.999046,18.346687 
	C58.438030,18.012766 58.877178,18.012300 59.645142,18.017395 
	C59.981049,18.766304 59.988140,19.509655 59.992409,20.624975 
	C59.456429,20.810070 58.923264,20.623196 58.195107,20.225952 
z"/>
<path fill="#D478CD" opacity="1.000000" stroke="none" 
	d="
M56.548172,12.986308 
	C57.116127,13.267254 57.332161,13.516571 57.796307,13.867152 
	C58.001911,14.448314 58.001305,14.891897 57.600281,15.667990 
	C56.133404,15.999789 55.066936,15.999081 53.752068,15.996754 
	C53.503662,15.995136 53.006863,15.991016 53.005386,15.618640 
	C52.999825,14.501953 52.995739,13.757643 52.991653,13.013332 
	C54.045883,13.005885 55.100117,12.998438 56.548172,12.986308 
z"/>
<path fill="#CC7CCD" opacity="1.000000" stroke="none" 
	d="
M54.000473,15.998372 
	C55.066936,15.999081 56.133404,15.999789 57.600094,16.000729 
	C58.001698,16.442686 58.003071,16.884411 58.006172,17.656975 
	C57.561188,17.990562 57.114475,17.993309 56.154987,17.772018 
	C55.094967,17.031445 54.547718,16.514908 54.000473,15.998372 
z"/>
<path fill="#8F75D7" opacity="1.000000" stroke="none" 
	d="
M3.158677,17.525879 
	C3.597091,17.125027 3.997360,17.074938 4.698118,16.976671 
	C6.054980,16.989462 7.111352,17.050430 8.573490,17.349007 
	C8.979256,17.586613 8.994643,18.004299 8.980581,18.347157 
	C8.302913,19.466080 7.639306,20.242146 6.975699,21.018209 
	C6.163250,21.269903 5.350802,21.521595 4.245592,21.910690 
	C3.672105,21.554895 3.391380,21.061699 3.045090,20.286053 
	C3.026528,19.294617 3.073529,18.585630 3.158677,17.525879 
z"/>
<path fill="#B593D5" opacity="1.000000" stroke="none" 
	d="
M23.744423,3.003175 
	C23.156826,4.202723 22.320303,5.398924 20.982033,6.658463 
	C19.986034,6.145369 19.491781,5.568937 18.997528,4.992505 
	C19.197771,4.449156 19.398014,3.905806 19.816586,3.162953 
	C20.775351,2.974436 21.515789,2.985421 22.626945,2.994234 
	C22.997665,2.992062 23.495499,2.999829 23.744423,3.003175 
z"/>
<path fill="#C398C5" opacity="1.000000" stroke="none" 
	d="
M54.984776,26.263823 
	C56.450733,26.220482 57.899601,26.454556 59.682644,26.848244 
	C59.448029,28.153847 58.879234,29.299829 58.215981,30.751696 
	C58.121521,31.057579 58.055210,31.525600 57.796196,31.761822 
	C57.537186,31.998041 57.073753,31.995716 57.057274,31.648703 
	C56.401325,30.475220 55.761856,29.648752 55.088875,28.535938 
	C55.014603,27.865076 54.973850,27.480560 54.933098,27.096045 
	C54.944626,26.911108 54.956154,26.726171 54.984776,26.263823 
z"/>
<path fill="#C8B9CC" opacity="1.000000" stroke="none" 
	d="
M57.073753,31.995716 
	C57.073753,31.995716 57.537186,31.998041 57.768940,31.996592 
	C58.001148,32.442783 58.001602,32.890423 58.004532,33.674877 
	C57.548168,34.012352 57.089333,34.013008 56.408890,33.752487 
	C56.482777,32.992779 56.778267,32.494247 57.073753,31.995716 
z"/>
<path fill="#A88AD4" opacity="1.000000" stroke="none" 
	d="
M18.746143,4.875778 
	C19.491781,5.568937 19.986034,6.145369 20.732906,6.860699 
	C20.986073,7.443680 20.986618,7.887762 20.685295,8.734980 
	C19.922590,9.757276 19.461754,10.376436 18.750731,10.996491 
	C18.333761,10.997418 18.166979,10.997451 17.958580,10.710832 
	C17.612062,9.949464 17.307161,9.474747 16.986610,8.658359 
	C16.317755,7.536708 15.664550,6.756727 15.007120,5.646315 
	C15.002575,4.875205 15.002256,4.434526 15.001938,3.993848 
	C15.001938,3.993848 15.457041,3.972577 15.961180,3.981389 
	C16.648958,3.992654 16.832598,3.995107 17.016235,3.997559 
	C17.509075,4.251390 18.001917,4.505220 18.746143,4.875778 
z"/>
<path fill="#A97DD4" opacity="1.000000" stroke="none" 
	d="
M14.668479,3.993215 
	C15.002256,4.434526 15.002575,4.875205 14.675982,5.655331 
	C13.908204,6.006395 13.467341,6.018012 13.026478,6.029628 
	C13.017572,5.577836 13.008668,5.126043 13.001381,4.334641 
	C13.447006,3.994216 13.891013,3.993399 14.668479,3.993215 
z"/>
<path fill="#A97DD4" opacity="1.000000" stroke="none" 
	d="
M13.016602,3.743999 
	C12.677329,3.802643 12.584398,3.540144 12.859295,3.099495 
	C12.991330,3.158269 13.003271,3.325439 13.016602,3.743999 
z"/>
<path fill="#A383D6" opacity="1.000000" stroke="none" 
	d="
M16.879881,3.796651 
	C16.832598,3.995107 16.648958,3.992654 16.188978,3.980551 
	C15.912638,3.970901 15.957850,3.479302 15.975347,3.232919 
	C16.282490,3.141033 16.532717,3.344103 16.879881,3.796651 
z"/>
<path fill="#D4AEDA" opacity="1.000000" stroke="none" 
	d="
M3.725811,26.139980 
	C3.858248,26.181082 3.899636,26.342886 3.965889,26.753971 
	C3.675057,26.836960 3.556392,26.589436 3.725811,26.139980 
z"/>
<path fill="#967AD7" opacity="1.000000" stroke="none" 
	d="
M6.981561,21.263988 
	C7.639306,20.242146 8.302913,19.466080 9.272060,18.477360 
	C10.385103,18.509848 11.192607,18.754988 12.000069,19.376217 
	C12.003722,20.507465 12.007420,21.262623 12.011358,22.264427 
	C12.011600,22.511074 12.016524,23.004345 11.814624,23.134594 
	C11.359053,23.467653 11.152854,23.710733 10.674196,23.946098 
	C9.235714,23.265856 8.117164,22.633596 6.998614,22.001339 
	C6.998614,22.001339 6.987422,21.509768 6.981561,21.263988 
z"/>
<path fill="#9F84D8" opacity="1.000000" stroke="none" 
	d="
M7.008672,22.350597 
	C8.117164,22.633596 9.235714,23.265856 10.676645,24.201385 
	C11.000319,24.674807 11.001614,24.844954 11.002909,25.015102 
	C10.213654,25.319908 9.424398,25.624714 8.320318,25.974077 
	C7.676571,24.912374 7.347651,23.806114 7.008672,22.350597 
z"/>
<path fill="#AA8DD3" opacity="1.000000" stroke="none" 
	d="
M11.142212,25.304708 
	C11.001614,24.844954 11.000319,24.674807 10.996577,24.249371 
	C11.152854,23.710733 11.359053,23.467653 12.114075,23.196291 
	C13.409878,23.751436 14.204329,24.375134 14.999254,25.371948 
	C15.002342,26.490650 15.004959,27.236237 14.755631,27.988525 
	C14.335671,27.996792 14.167655,27.998352 13.999640,27.999914 
	C13.093598,27.198048 12.187557,26.396181 11.142212,25.304708 
z"/>
<path fill="#B594CA" opacity="1.000000" stroke="none" 
	d="
M13.999836,28.333607 
	C14.167655,27.998352 14.335671,27.996792 15.085617,27.995169 
	C16.107765,28.001459 16.547985,28.007809 16.990320,28.387402 
	C16.988451,29.507616 16.984463,30.254591 16.609238,31.001137 
	C15.495899,30.999870 14.753800,30.999033 14.011701,30.998196 
	C14.011701,30.998196 14.002573,30.499723 14.000692,30.250526 
	C13.999219,29.556654 13.999625,29.111977 13.999836,28.333607 
z"/>
<path fill="#B698C9" opacity="1.000000" stroke="none" 
	d="
M14.008160,31.460344 
	C14.753800,30.999033 15.495899,30.999870 16.614746,31.458992 
	C16.996992,35.277874 17.002493,38.638474 17.004688,42.426910 
	C17.006096,44.564613 17.010807,46.274483 17.012104,48.320755 
	C17.005068,49.105747 17.001444,49.554337 16.997818,50.002922 
	C16.001272,46.467438 14.762366,42.977055 14.093156,39.380661 
	C13.645049,36.972496 14.005804,34.413818 14.008160,31.460344 
z"/>
<path fill="#B391C7" opacity="1.000000" stroke="none" 
	d="
M16.998909,50.001488 
	C17.001444,49.554337 17.005068,49.105747 17.414806,48.339317 
	C18.089785,48.023968 18.358646,48.026463 18.825459,48.232006 
	C19.711597,48.725018 20.399784,49.014977 21.070568,49.585953 
	C21.018236,50.240738 20.983305,50.614502 20.948374,50.988270 
	C20.663500,51.134296 20.421818,51.332890 20.089903,51.778908 
	C19.523167,51.980721 19.089857,51.987679 18.331219,51.996967 
	C18.005888,51.999298 18.001797,51.501072 17.869242,51.051929 
	C17.532349,50.352051 17.287035,50.151413 17.000746,50.000874 
	C17.000746,50.000874 17.000000,50.000057 16.998909,50.001488 
z"/>
<path fill="#B594CA" opacity="1.000000" stroke="none" 
	d="
M17.130886,50.201454 
	C17.287035,50.151413 17.532349,50.352051 17.867523,50.802814 
	C17.710968,50.853638 17.465191,50.653370 17.130886,50.201454 
z"/>
<path fill="#BBB0C9" opacity="1.000000" stroke="none" 
	d="
M47.262905,48.980526 
	C47.012379,48.550716 47.005566,48.107498 46.956524,47.015823 
	C46.609806,45.578190 46.305313,44.789017 46.001526,43.749439 
	C46.003532,43.332092 46.004833,43.165157 46.292339,42.956322 
	C47.052326,42.609646 47.526104,42.304874 47.999878,42.000107 
	C48.837009,42.533993 49.674141,43.067879 50.749634,43.796539 
	C50.376808,44.803928 49.765617,45.616543 49.117630,46.736267 
	C49.080833,47.043385 49.032143,47.532261 48.817383,47.900970 
	C48.357529,48.459965 48.154858,48.687958 47.994610,48.953663 
	C47.994610,48.953663 47.506622,48.967121 47.262905,48.980526 
z"/>
<path fill="#C7A4D5" opacity="1.000000" stroke="none" 
	d="
M48.203827,48.849365 
	C48.154858,48.687958 48.357529,48.459965 48.795929,48.145683 
	C48.867218,48.318615 48.675152,48.559742 48.203827,48.849365 
z"/>
<path fill="#85A8BF" opacity="1.000000" stroke="none" 
	d="
M57.057274,31.648705 
	C56.778267,32.494247 56.482777,32.992779 56.064812,33.754677 
	C54.828709,34.881733 53.715076,35.745426 52.321682,36.783852 
	C52.041920,36.958588 52.064896,36.973793 52.056351,36.641865 
	C52.034294,35.866886 52.020782,35.423840 52.005730,34.553844 
	C52.004116,32.418697 52.004044,30.710493 52.274193,29.122293 
	C53.403744,29.102293 54.263069,28.962288 55.122391,28.822285 
	C55.761856,29.648752 56.401325,30.475220 57.057274,31.648705 
z"/>
<path fill="#B693C1" opacity="1.000000" stroke="none" 
	d="
M51.268402,37.909035 
	C51.051750,37.891144 51.034325,37.713493 51.053070,37.261707 
	C51.089237,36.987576 51.189430,36.995724 51.407227,36.981232 
	C51.625019,36.966743 52.064896,36.973793 52.064896,36.973793 
	C52.064896,36.973793 52.041920,36.958588 52.061523,36.945740 
	C51.876633,37.205013 51.672134,37.477142 51.268402,37.909035 
z"/>
<path fill="#B2B3C5" opacity="1.000000" stroke="none" 
	d="
M48.999931,38.001099 
	C48.816917,38.843048 48.633904,39.684994 47.891479,40.763874 
	C46.886673,41.001266 46.441284,41.001728 45.624729,41.001350 
	C44.511311,40.992874 43.769062,40.985241 43.021637,40.729252 
	C43.016460,40.480892 43.004436,39.984207 42.874641,39.711792 
	C42.441807,38.913227 42.138767,38.387077 41.873547,37.856506 
	C41.911369,37.852081 41.926842,37.926655 42.173553,37.957310 
	C42.420269,37.987965 42.916973,38.010654 43.196594,38.012146 
	C43.662632,38.012703 43.849049,38.011768 44.447586,38.006546 
	C46.239780,38.001873 47.619854,38.001484 48.999931,38.001099 
z"/>
<path fill="#B0AEC2" opacity="1.000000" stroke="none" 
	d="
M49.000366,37.752853 
	C47.619854,38.001484 46.239780,38.001873 44.438858,37.750931 
	C44.014900,37.329231 44.011784,37.158859 44.008080,36.754719 
	C44.007496,36.520950 43.992840,36.053638 44.244179,35.939201 
	C44.959187,35.534313 45.422852,35.243855 46.268913,34.964241 
	C47.413895,35.017303 48.176479,35.059532 48.960087,35.418869 
	C48.986904,36.160027 48.992702,36.584080 48.998497,37.008129 
	C48.998497,37.008129 49.000797,37.504612 49.000366,37.752853 
z"/>
<path fill="#80A1B8" opacity="1.000000" stroke="none" 
	d="
M49.330536,37.011292 
	C48.992702,36.584080 48.986904,36.160027 49.101128,35.200836 
	C49.480709,34.443645 49.740276,34.221592 50.234383,34.183800 
	C50.706039,34.685528 50.943161,35.002998 51.176971,35.598682 
	C51.178917,36.249840 51.184174,36.622780 51.189430,36.995724 
	C51.189430,36.995724 51.089237,36.987576 51.038910,36.994324 
	C50.546577,37.005535 50.104580,37.009995 49.330536,37.011292 
z"/>
<path fill="#B6B3C8" opacity="1.000000" stroke="none" 
	d="
M45.995895,41.002193 
	C46.441284,41.001728 46.886673,41.001266 47.666107,41.001015 
	C48.000153,41.001221 48.000088,41.500664 47.999985,41.750381 
	C47.526104,42.304874 47.052326,42.609646 46.289467,42.624023 
	C45.998890,41.889820 45.997391,41.446007 45.995895,41.002193 
z"/>
<path fill="#BB88D1" opacity="1.000000" stroke="none" 
	d="
M44.041298,51.588367 
	C40.335754,51.636715 36.617977,51.315865 32.624374,50.707680 
	C33.565643,48.949322 34.782745,47.478302 36.246582,46.002495 
	C36.493313,45.997704 36.986797,45.989632 37.404869,45.994198 
	C39.215023,45.999310 40.607098,45.999855 41.999825,46.250359 
	C42.000473,46.500313 42.002228,47.000233 42.070606,47.304504 
	C42.763130,48.072247 43.387272,48.535717 44.011421,48.999187 
	C44.017303,49.739182 44.023186,50.479176 44.041298,51.588367 
z"/>
<path fill="#C696D2" opacity="1.000000" stroke="none" 
	d="
M44.223373,48.802692 
	C43.387272,48.535717 42.763130,48.072247 42.444954,47.304413 
	C43.499901,47.000248 44.248878,47.000446 44.999027,47.000153 
	C45.000198,46.999668 45.006706,46.995090 45.006706,46.995090 
	C44.816246,47.532127 44.625786,48.069160 44.223373,48.802692 
z"/>
<path fill="#CFABD1" opacity="1.000000" stroke="none" 
	d="
M46.000824,43.999847 
	C46.305313,44.789017 46.609806,45.578190 46.950981,46.683342 
	C46.547447,46.999054 46.107227,46.998791 45.336853,46.996811 
	C45.006706,46.995090 45.000198,46.999668 44.999657,46.668320 
	C44.994099,45.894024 44.989082,45.451077 44.988228,44.756653 
	C44.992805,44.337517 44.993214,44.169846 45.245422,44.001320 
	C45.665089,44.000256 45.832958,44.000050 46.000824,43.999847 
z"/>
<path fill="#FEFEFE" opacity="1.000000" stroke="none" 
	d="
M45.886517,34.953400 
	C45.422852,35.243855 44.959187,35.534313 43.990181,35.968506 
	C43.295616,36.384544 43.106388,36.656845 42.911858,36.903282 
	C42.906563,36.877422 42.856251,36.860806 42.631271,36.970200 
	C42.119900,37.290329 41.960083,37.572681 41.926842,37.926655 
	C41.926842,37.926655 41.911369,37.852081 41.551331,37.890182 
	C40.768734,38.018353 40.346176,38.108421 39.648666,38.214657 
	C38.916801,38.508686 38.459892,38.786549 37.587616,39.053749 
	C34.780033,39.413013 32.387814,39.782940 29.695782,40.098755 
	C28.983105,40.357277 28.570244,40.669907 28.098728,41.355484 
	C28.082983,42.480011 28.125895,43.231594 28.106407,44.357567 
	C28.042934,45.491123 28.041861,46.250294 27.867130,47.232803 
	C27.424442,47.951275 27.155413,48.446404 26.886383,48.941532 
	C26.886383,48.941532 26.404060,49.062061 25.776848,49.170685 
	C23.795746,49.287853 22.441858,49.296391 21.087971,49.304932 
	C20.399784,49.014977 19.711597,48.725018 18.931080,47.880989 
	C18.814251,45.549767 18.789751,43.772610 18.830666,41.534653 
	C18.848431,36.693954 18.800785,32.314060 18.793648,27.703522 
	C18.834158,27.472883 18.756401,27.010818 18.824389,26.671467 
	C18.846838,25.875296 18.801300,25.418480 18.813992,24.564569 
	C18.818964,23.102905 18.765707,22.038336 18.781969,20.580170 
	C18.306231,18.564224 17.760975,16.941875 17.344826,15.312941 
	C17.473934,15.306355 17.556774,15.061433 17.880545,15.123339 
	C18.298237,14.802788 18.392159,14.420333 18.479630,14.004168 
	C18.473175,13.970459 18.487686,13.914138 18.733208,13.719980 
	C19.658249,13.047245 20.337769,12.568668 21.416725,12.098728 
	C22.878590,12.043374 23.941015,11.979383 25.401371,11.967058 
	C26.867561,11.984180 27.935823,11.949636 29.376637,11.963990 
	C30.499537,11.986085 31.249886,11.959281 32.398773,11.981089 
	C33.865967,12.003366 34.934624,11.977032 36.314926,12.052963 
	C37.055923,12.240822 37.485268,12.326415 37.914616,12.412008 
	C38.674267,12.619564 39.433922,12.827120 40.632980,13.263195 
	C41.380215,13.627564 41.688046,13.763413 41.995872,13.899263 
	C41.995872,13.899263 42.450512,14.038171 42.852158,14.346939 
	C43.879704,15.114649 44.505604,15.573589 45.154846,16.280552 
	C45.357174,16.836246 45.621197,17.025017 45.957085,17.061806 
	C45.943916,17.028728 45.886440,17.070763 45.943237,17.425682 
	C46.402477,19.148190 46.804916,20.515776 47.164116,22.215290 
	C47.367840,23.377651 47.614803,24.208084 47.887699,25.287912 
	C47.960087,25.697884 48.006546,25.858459 47.976814,26.337963 
	C47.897274,27.092896 47.893925,27.528900 47.712177,28.278397 
	C46.984692,30.712393 46.435604,32.832897 45.886517,34.953400 
M37.987648,27.024799 
	C37.987648,27.024799 38.017025,27.076069 38.381557,26.854385 
	C38.660801,26.676039 38.755692,26.427391 38.696133,25.484945 
	C38.078262,24.651022 37.460392,23.817101 36.716434,22.374889 
	C35.465038,22.224581 34.213638,22.074272 32.298698,21.955225 
	C31.861000,22.014179 31.423300,22.073133 30.316271,22.029842 
	C29.601301,22.347780 28.886330,22.665720 28.061777,23.580683 
	C28.333921,24.068476 28.606066,24.556271 28.668718,25.753748 
	C28.965076,27.221746 29.288601,29.964567 29.553556,29.958923 
	C31.983381,29.907137 34.403046,29.378513 36.957104,28.543608 
	C36.957104,28.543608 37.026001,28.084465 37.529602,27.913204 
	C37.701981,27.617067 37.874359,27.320930 37.987648,27.024799 
z"/>
<path fill="#A285CB" opacity="1.000000" stroke="none" 
	d="
M27.200493,49.018196 
	C27.155413,48.446404 27.424442,47.951275 28.234570,47.232964 
	C29.509890,47.007656 30.244116,47.005535 30.981775,47.402222 
	C30.997074,48.863892 31.008940,49.926750 31.020803,50.989613 
	C31.020803,50.989613 31.007797,50.995964 30.670082,50.999001 
	C29.889133,51.001850 29.445896,51.001667 29.002661,51.001488 
	C28.506641,50.365948 28.010622,49.730404 27.200493,49.018196 
z"/>
<path fill="#887AB8" opacity="1.000000" stroke="none" 
	d="
M21.070568,49.585953 
	C22.441858,49.296391 23.795746,49.287853 25.556158,49.285084 
	C24.544903,49.858315 23.127123,50.425774 21.328857,50.990753 
	C20.983305,50.614502 21.018236,50.240738 21.070568,49.585953 
z"/>
<path fill="#A085D2" opacity="1.000000" stroke="none" 
	d="
M28.870314,51.291328 
	C29.445896,51.001667 29.889133,51.001850 30.664762,51.003395 
	C30.997881,51.753567 30.998608,52.502369 30.998550,53.625664 
	C30.247826,53.999668 29.497881,53.999187 28.372875,53.997421 
	C28.244530,53.191147 28.491247,52.386162 28.870314,51.291328 
z"/>
<path fill="#B896CE" opacity="1.000000" stroke="none" 
	d="
M28.625160,8.002460 
	C28.993557,8.443366 28.997124,8.887476 29.000322,9.665779 
	C28.999954,9.999971 28.995720,9.998929 28.596491,9.999048 
	C27.131550,9.999760 26.065838,10.000352 25.000031,10.000327 
	C24.999935,9.999710 24.997482,9.992308 24.997482,9.992308 
	C26.085098,9.330093 27.172714,8.667880 28.625160,8.002460 
z"/>
<path fill="#B594CA" opacity="1.000000" stroke="none" 
	d="
M25.003441,11.915391 
	C23.941015,11.979383 22.878590,12.043374 21.408508,11.825720 
	C20.995874,11.362244 20.990900,11.180411 20.993221,10.998868 
	C21.000521,10.999158 21.018339,10.993756 21.018339,10.993756 
	C22.113724,10.667086 23.209106,10.340415 24.650986,10.003026 
	C24.997482,9.992308 24.999935,9.999710 25.000061,10.319828 
	C25.001270,11.065094 25.002356,11.490243 25.003441,11.915391 
z"/>
<path fill="#AA8DD3" opacity="1.000000" stroke="none" 
	d="
M19.000916,10.995596 
	C19.461754,10.376436 19.922590,9.757276 20.684076,9.068026 
	C20.991909,9.441513 20.999096,9.885090 21.012310,10.661212 
	C21.018339,10.993756 21.000521,10.999158 20.662577,10.999088 
	C19.883394,10.997877 19.442154,10.996737 19.000916,10.995596 
z"/>
<path fill="#D084C9" opacity="1.000000" stroke="none" 
	d="
M38.712059,8.868019 
	C38.819305,9.535041 38.636017,10.070267 37.904984,10.802454 
	C36.905231,10.999095 36.453224,10.998776 35.868706,10.798499 
	C35.529854,10.348045 35.283371,10.146689 34.996742,9.994473 
	C34.996742,9.994473 34.997467,9.497240 34.997707,9.248625 
	C35.284431,8.849258 35.530483,8.648864 35.868431,8.199501 
	C36.807682,8.245525 37.614605,8.490874 38.712059,8.868019 
z"/>
<path fill="#C484C1" opacity="1.000000" stroke="none" 
	d="
M34.622169,9.995794 
	C35.283371,10.146689 35.529854,10.348045 35.868935,11.036570 
	C36.001678,11.474597 36.003281,11.950698 36.003281,11.950698 
	C34.934624,11.977032 33.865967,12.003366 32.398712,11.661177 
	C32.000023,10.861959 31.999931,10.431266 31.999840,10.000572 
	C32.749092,9.999419 33.498344,9.998267 34.622169,9.995794 
z"/>
<path fill="#BE88C1" opacity="1.000000" stroke="none" 
	d="
M31.625080,10.000192 
	C31.999931,10.431266 32.000023,10.861959 32.000175,11.612565 
	C31.249886,11.959281 30.499537,11.986085 29.375122,11.645483 
	C28.999275,10.851695 28.997498,10.425312 28.995720,9.998929 
	C28.995720,9.998929 28.999954,9.999971 29.001251,9.998863 
	C29.751806,9.998441 30.501062,9.999126 31.625080,10.000192 
z"/>
<path fill="#D180C3" opacity="1.000000" stroke="none" 
	d="
M45.131504,16.032532 
	C44.505604,15.573589 43.879704,15.114649 43.082207,14.406746 
	C43.703991,13.450823 44.497375,12.743861 45.776932,12.217935 
	C46.467972,12.648767 46.713196,12.849188 47.040874,13.287116 
	C47.388546,14.049051 47.694118,14.524103 47.999756,15.331707 
	C48.000435,16.107653 48.001057,16.551044 47.649158,17.000502 
	C46.826576,17.027966 46.356506,17.049364 45.886440,17.070763 
	C45.886440,17.070763 45.943916,17.028728 45.856049,16.855583 
	C45.605644,16.417122 45.393421,16.200485 45.131504,16.032532 
z"/>
<path fill="#D381CD" opacity="1.000000" stroke="none" 
	d="
M46.998779,13.000234 
	C46.713196,12.849188 46.467972,12.648767 46.131367,12.199817 
	C46.788074,11.695731 47.576519,11.390799 48.679817,11.044209 
	C48.994675,11.002550 48.999416,11.499373 48.804932,11.961388 
	C48.073223,12.615680 47.536003,12.807957 46.998779,13.000234 
z"/>
<path fill="#C77CBC" opacity="1.000000" stroke="none" 
	d="
M36.314926,12.052963 
	C36.003281,11.950698 36.001678,11.474597 36.001450,11.236526 
	C36.453224,10.998776 36.905231,10.999095 37.697021,11.000354 
	C38.015987,11.235927 37.995171,11.470561 37.944481,12.058601 
	C37.485268,12.326415 37.055923,12.240822 36.314926,12.052963 
z"/>
<path fill="#D180C3" opacity="1.000000" stroke="none" 
	d="
M41.832539,13.710105 
	C41.688046,13.763413 41.380215,13.627564 40.934853,13.267241 
	C41.087948,13.202160 41.378574,13.361553 41.832539,13.710105 
z"/>
<path fill="#BC87CD" opacity="1.000000" stroke="none" 
	d="
M31.267044,50.988808 
	C31.008940,49.926750 30.997074,48.863892 31.184357,47.269917 
	C31.637600,46.533566 31.842939,46.287628 32.399551,46.003269 
	C33.866337,46.006130 34.933090,46.006710 35.999847,46.007286 
	C34.782745,47.478302 33.565643,48.949322 32.177147,50.701813 
	C32.005749,50.983288 31.513285,50.988003 31.267044,50.988808 
z"/>
<path fill="#CF7ECC" opacity="1.000000" stroke="none" 
	d="
M47.040874,13.287116 
	C47.536003,12.807957 48.073223,12.615680 48.806458,12.209806 
	C50.105690,12.299097 51.208916,12.601983 52.651897,12.959101 
	C52.995739,13.757643 52.999825,14.501953 52.637806,15.608644 
	C50.847702,15.647068 49.423698,15.323112 47.999695,14.999156 
	C47.694118,14.524103 47.388546,14.049051 47.040874,13.287116 
z"/>
<path fill="#9B7FD7" opacity="1.000000" stroke="none" 
	d="
M13.018557,6.364687 
	C13.467341,6.018012 13.908204,6.006395 14.680206,5.985763 
	C15.664550,6.756727 16.317755,7.536708 16.786257,8.891257 
	C15.442011,10.282331 14.282466,11.098835 13.122922,11.915339 
	C13.084830,10.881637 13.046739,9.847935 12.988031,8.428113 
	C12.981822,7.594577 12.996229,7.147161 13.018557,6.364687 
z"/>
<path fill="#9C80D4" opacity="1.000000" stroke="none" 
	d="
M9.968094,16.985750 
	C10.792158,16.079191 11.616221,15.172632 12.849236,14.371775 
	C13.840125,14.985522 14.422062,15.493566 14.960741,16.316814 
	C14.611463,17.421059 14.305443,18.210094 13.749609,18.999435 
	C13.499796,18.999737 13.000168,18.999550 12.837455,18.725172 
	C11.772526,17.962446 10.870310,17.474098 9.968094,16.985750 
z"/>
<path fill="#A487D4" opacity="1.000000" stroke="none" 
	d="
M13.092466,12.188681 
	C14.282466,11.098835 15.442011,10.282331 16.801907,9.232928 
	C17.307161,9.474747 17.612062,9.949464 17.957924,10.961401 
	C17.998529,11.665648 17.998171,11.832674 17.710899,12.041668 
	C16.949049,12.389609 16.474117,12.695580 15.629500,13.001673 
	C14.521735,13.005145 13.783656,13.008494 13.045576,13.011845 
	C13.051055,12.828570 13.056533,12.645297 13.092466,12.188681 
z"/>
<path fill="#9E81D2" opacity="1.000000" stroke="none" 
	d="
M13.025421,13.248146 
	C13.783656,13.008494 14.521735,13.005145 15.883420,13.231283 
	C17.166710,13.653140 17.826397,13.845509 18.486082,14.037877 
	C18.392159,14.420333 18.298237,14.802788 17.546749,15.198470 
	C16.260786,15.475000 15.632393,15.738305 15.004000,16.001610 
	C14.422062,15.493566 13.840125,14.985522 13.117139,14.217672 
	C12.976090,13.957867 13.005265,13.484447 13.025421,13.248146 
z"/>
<path fill="#997ED6" opacity="1.000000" stroke="none" 
	d="
M9.713671,17.021053 
	C10.870310,17.474098 11.772526,17.962446 12.587430,18.725393 
	C12.333449,19.000038 12.166780,19.000084 12.000111,19.000130 
	C11.192607,18.754988 10.385103,18.509848 9.286121,18.134502 
	C8.994643,18.004299 8.979256,17.586613 8.969034,17.379517 
	C9.125626,17.133732 9.292438,17.095043 9.713671,17.021053 
z"/>
<path fill="#D896D2" opacity="1.000000" stroke="none" 
	d="
M7.202068,8.858213 
	C7.151947,8.703617 7.348672,8.463774 7.788033,8.134068 
	C7.843920,8.291799 7.650002,8.534720 7.202068,8.858213 
z"/>
<path fill="#C780CA" opacity="1.000000" stroke="none" 
	d="
M47.999756,15.331707 
	C49.423698,15.323112 50.847702,15.647068 52.639282,15.981020 
	C53.006863,15.991016 53.503662,15.995136 53.752068,15.996754 
	C54.547718,16.514908 55.094967,17.031445 55.820114,17.768082 
	C55.830982,17.994493 55.663948,18.000803 55.246422,18.019459 
	C53.576195,18.344856 52.156456,18.657907 50.231396,18.730860 
	C49.151272,17.991987 48.576477,17.493214 48.001678,16.994438 
	C48.001057,16.551044 48.000435,16.107653 47.999756,15.331707 
z"/>
<path fill="#C080C1" opacity="1.000000" stroke="none" 
	d="
M47.649162,17.000502 
	C48.576477,17.493214 49.151272,17.991987 49.865631,18.744427 
	C50.000408,19.438154 49.995625,19.878216 49.791130,20.778763 
	C49.340939,21.438345 49.142120,21.679951 48.730186,21.974234 
	C48.288891,21.991982 48.112362,21.999559 47.754059,21.974131 
	C47.572292,21.941122 47.207352,21.883362 47.207352,21.883362 
	C46.804916,20.515776 46.402477,19.148190 45.943237,17.425682 
	C46.356506,17.049364 46.826576,17.027966 47.649162,17.000502 
z"/>
<path fill="#AA90C4" opacity="1.000000" stroke="none" 
	d="
M51.003117,21.999313 
	C51.993446,23.083998 52.983772,24.168684 53.666481,25.582066 
	C52.571060,25.279898 51.783253,24.649029 50.997116,23.681591 
	C51.000229,22.896454 51.001675,22.447884 51.003117,21.999313 
z"/>
<path fill="#9A98C1" opacity="1.000000" stroke="none" 
	d="
M50.995449,24.018160 
	C51.783253,24.649029 52.571060,25.279898 53.669086,25.961250 
	C53.979309,26.011736 53.993496,26.502974 53.743286,26.869505 
	C52.995419,27.495405 52.497757,27.754772 51.749405,27.894230 
	C51.006065,27.517757 50.513428,27.261194 50.015327,26.630238 
	C50.008625,25.507706 50.007385,24.759569 50.253471,24.012905 
	C50.500801,24.014378 50.995449,24.018160 50.995449,24.018160 
z"/>
<path fill="#8AA5C0" opacity="1.000000" stroke="none" 
	d="
M52.000099,28.014141 
	C52.497757,27.754772 52.995419,27.495405 53.746475,27.115206 
	C53.999878,26.994375 54.467609,27.040293 54.700352,27.068169 
	C54.973850,27.480560 55.014603,27.865076 55.088875,28.535938 
	C54.263069,28.962288 53.403744,29.102293 52.272804,28.875244 
	C52.001190,28.508190 52.000099,28.014141 52.000099,28.014141 
z"/>
<path fill="#AA8CBD" opacity="1.000000" stroke="none" 
	d="
M50.997116,23.681591 
	C50.995449,24.018160 50.500801,24.014378 50.138245,23.751476 
	C49.515442,22.980404 49.255199,22.472233 48.994957,21.964062 
	C49.142120,21.679951 49.340939,21.438345 49.788239,21.108795 
	C50.273533,21.136312 50.522812,21.341814 50.868008,21.797081 
	C51.001675,22.447884 51.000229,22.896454 50.997116,23.681591 
z"/>
<path fill="#A587CE" opacity="1.000000" stroke="none" 
	d="
M17.997814,11.999699 
	C17.998171,11.832674 17.998529,11.665648 17.999540,11.248053 
	C18.166979,10.997451 18.333761,10.997418 18.750731,10.996491 
	C19.442154,10.996737 19.883394,10.997877 20.655277,10.998798 
	C20.990900,11.180411 20.995874,11.362244 21.009069,11.817083 
	C20.337769,12.568668 19.658249,13.047245 18.598148,13.241918 
	C18.144320,12.638576 18.071068,12.319138 17.997814,11.999699 
z"/>
<path fill="#9479D1" opacity="1.000000" stroke="none" 
	d="
M12.000069,19.376219 
	C12.166780,19.000084 12.333449,19.000038 12.750143,18.999771 
	C13.000168,18.999550 13.499796,18.999737 14.123793,18.999977 
	C15.496126,19.001728 16.244463,19.003237 17.203548,19.192226 
	C17.612358,19.896101 17.810421,20.412497 17.793671,21.133205 
	C17.379026,21.886538 17.179193,22.435553 16.646061,22.834332 
	C14.878881,22.461988 13.444999,22.239883 12.011117,22.017780 
	C12.007420,21.262623 12.003722,20.507465 12.000069,19.376219 
z"/>
<path fill="#A285CB" opacity="1.000000" stroke="none" 
	d="
M12.011358,22.264427 
	C13.444999,22.239883 14.878881,22.461988 16.650909,23.087753 
	C16.989643,23.660261 16.990231,23.829107 16.704861,24.040485 
	C15.945529,24.388287 15.472156,24.693560 14.998782,24.998831 
	C14.204329,24.375134 13.409878,23.751436 12.315975,23.066042 
	C12.016524,23.004345 12.011600,22.511074 12.011358,22.264427 
z"/>
<path fill="#A689C8" opacity="1.000000" stroke="none" 
	d="
M14.999254,25.371948 
	C15.472156,24.693560 15.945529,24.388287 16.710033,24.290161 
	C17.001167,24.497307 17.002567,24.996710 17.001402,25.330925 
	C17.000425,26.110020 17.000616,26.554897 16.998455,27.253384 
	C16.993473,27.676048 16.990837,27.845106 16.988203,28.014160 
	C16.547985,28.007809 16.107765,28.001459 15.337561,27.988464 
	C15.004959,27.236237 15.002342,26.490650 14.999254,25.371948 
z"/>
<path fill="#A98BBB" opacity="1.000000" stroke="none" 
	d="
M16.990320,28.387402 
	C16.990837,27.845106 16.993473,27.676048 17.247646,27.253380 
	C17.499187,26.999769 17.997654,26.997656 18.000834,27.000345 
	C18.004013,27.003035 18.014130,27.010290 18.108318,27.186096 
	C18.351357,27.586035 18.534899,27.776789 18.753139,27.934162 
	C18.800785,32.314060 18.848431,36.693954 18.537888,41.535553 
	C17.789131,41.997856 17.398563,41.998463 17.007996,41.999073 
	C17.002493,38.638474 16.996992,35.277874 16.985983,31.459419 
	C16.984463,30.254591 16.988451,29.507616 16.990320,28.387402 
z"/>
<path fill="#AA8CBD" opacity="1.000000" stroke="none" 
	d="
M17.004688,42.426910 
	C17.398563,41.998463 17.789131,41.997856 18.472477,41.996353 
	C18.789751,43.772610 18.814251,45.549767 18.733128,47.677940 
	C18.358646,48.026463 18.089785,48.023968 17.418221,48.002914 
	C17.010807,46.274483 17.006096,44.564613 17.004688,42.426910 
z"/>
<path fill="#CEADCE" opacity="1.000000" stroke="none" 
	d="
M46.001526,43.749439 
	C45.832958,44.000050 45.665089,44.000256 44.956917,43.868965 
	C43.615837,43.487549 42.815056,43.237633 42.009445,42.741016 
	C42.004616,42.494312 42.001579,42.000824 42.205753,41.866394 
	C42.664524,41.520565 42.870152,41.269115 43.026810,40.977612 
	C43.769062,40.985241 44.511311,40.992874 45.624729,41.001350 
	C45.997391,41.446007 45.998890,41.889820 46.003258,42.665932 
	C46.004833,43.165157 46.003532,43.332092 46.001526,43.749439 
z"/>
<path fill="#84A1BA" opacity="1.000000" stroke="none" 
	d="
M51.749405,27.894230 
	C52.000099,28.014141 52.001190,28.508190 52.002579,28.755239 
	C52.004044,30.710493 52.004116,32.418697 51.800835,34.643478 
	C51.597485,35.160057 51.180283,35.320469 51.180283,35.320469 
	C50.943161,35.002998 50.706039,34.685528 50.232113,33.799084 
	C49.664600,31.490582 49.333889,29.751055 49.007320,27.769257 
	C49.011463,27.526989 49.015808,27.042683 49.267067,27.033564 
	C49.685810,27.017839 49.853298,27.011236 50.020786,27.004631 
	C50.513428,27.261194 51.006065,27.517757 51.749405,27.894230 
z"/>
<path fill="#DEA2C9" opacity="1.000000" stroke="none" 
	d="
M51.176971,35.598682 
	C51.180283,35.320469 51.597485,35.160057 51.802376,35.070423 
	C52.020782,35.423840 52.034294,35.866886 52.056351,36.641865 
	C52.064896,36.973793 51.625019,36.966743 51.407227,36.981232 
	C51.184174,36.622780 51.178917,36.249840 51.176971,35.598682 
z"/>
<path fill="#C4A2C4" opacity="1.000000" stroke="none" 
	d="
M43.021637,40.729252 
	C42.870152,41.269115 42.664524,41.520565 41.849983,41.865520 
	C40.816399,41.983444 40.342758,41.967808 39.894035,41.624954 
	C39.952244,40.860035 39.985531,40.422337 40.391991,39.987434 
	C41.511589,39.988224 42.258015,39.986217 43.004436,39.984207 
	C43.004436,39.984207 43.016460,40.480892 43.021637,40.729252 
z"/>
<path fill="#B6AAC0" opacity="1.000000" stroke="none" 
	d="
M42.874641,39.711792 
	C42.258015,39.986217 41.511589,39.988224 40.373154,39.690033 
	C39.961971,38.992714 39.942799,38.595604 39.923622,38.198490 
	C40.346176,38.108421 40.768734,38.018353 41.513504,37.894608 
	C42.138767,38.387077 42.441807,38.913227 42.874641,39.711792 
z"/>
<path fill="#B0AEC2" opacity="1.000000" stroke="none" 
	d="
M42.173553,37.957310 
	C41.960083,37.572681 42.119900,37.290329 42.657333,37.257324 
	C42.911247,37.626923 42.914112,37.818787 42.916973,38.010654 
	C42.916973,38.010654 42.420269,37.987965 42.173553,37.957310 
z"/>
<path fill="#A49FB4" opacity="1.000000" stroke="none" 
	d="
M43.196594,38.012146 
	C42.914112,37.818787 42.911247,37.626923 42.882317,37.147930 
	C42.856251,36.860806 42.906563,36.877422 43.184769,36.927555 
	C43.644867,36.981285 43.826763,36.984886 44.008663,36.988487 
	C44.011784,37.158859 44.014900,37.329231 44.026741,37.755219 
	C43.849049,38.011768 43.662632,38.012703 43.196594,38.012146 
z"/>
<path fill="#809CB4" opacity="1.000000" stroke="none" 
	d="
M49.003178,28.011526 
	C49.333889,29.751055 49.664600,31.490582 49.997581,33.614822 
	C49.740276,34.221592 49.480709,34.443645 49.080101,34.883728 
	C48.176479,35.059532 47.413895,35.017303 46.268913,34.964241 
	C46.435604,32.832897 46.984692,30.712393 47.990341,28.290173 
	C48.632328,27.996145 48.817753,28.003836 49.003178,28.011526 
z"/>
<path fill="#A9A5BA" opacity="1.000000" stroke="none" 
	d="
M44.008080,36.754719 
	C43.826763,36.984886 43.644867,36.981285 43.190063,36.953415 
	C43.106388,36.656845 43.295616,36.384544 43.738842,36.082939 
	C43.992840,36.053638 44.007496,36.520950 44.008080,36.754719 
z"/>
<path fill="#BB95CA" opacity="1.000000" stroke="none" 
	d="
M39.869114,41.952175 
	C40.342758,41.967808 40.816399,41.983444 41.645813,41.999950 
	C42.001579,42.000824 42.004616,42.494312 42.003769,43.076813 
	C42.001301,44.106800 41.999683,44.554295 41.998650,45.251438 
	C41.999229,45.501091 41.999176,46.000397 41.999176,46.000397 
	C40.607098,45.999855 39.215023,45.999310 37.367859,45.681904 
	C36.614758,44.582573 36.316738,43.800102 36.029121,42.696457 
	C36.062176,41.948990 36.084824,41.522694 36.332317,41.067177 
	C36.557163,41.037949 37.001350,40.946640 37.280079,41.079262 
	C38.328911,41.458645 39.099010,41.705410 39.869114,41.952175 
z"/>
<path fill="#A987C3" opacity="1.000000" stroke="none" 
	d="
M36.018719,43.017632 
	C36.316738,43.800102 36.614758,44.582573 36.949787,45.677338 
	C36.986797,45.989632 36.493313,45.997704 36.246582,46.002495 
	C34.933090,46.006710 33.866337,46.006130 32.399471,45.629623 
	C32.005676,44.506481 32.011990,43.759266 32.417496,43.009903 
	C33.884029,43.011044 34.951374,43.014336 36.018719,43.017632 
z"/>
<path fill="#BF98CF" opacity="1.000000" stroke="none" 
	d="
M41.999825,46.250355 
	C41.999176,46.000397 41.999229,45.501091 42.372139,45.251129 
	C43.491386,45.003487 44.237728,45.005806 44.984066,45.008125 
	C44.989082,45.451077 44.994099,45.894024 44.998486,46.668808 
	C44.248878,47.000446 43.499901,47.000248 42.376575,47.000145 
	C42.002228,47.000233 42.000473,46.500313 41.999825,46.250355 
z"/>
<path fill="#C39FCE" opacity="1.000000" stroke="none" 
	d="
M44.988228,44.756653 
	C44.237728,45.005806 43.491386,45.003487 42.371559,45.001476 
	C41.999683,44.554295 42.001301,44.106800 42.008598,43.323517 
	C42.815056,43.237633 43.615837,43.487549 44.705116,43.869820 
	C44.993214,44.169846 44.992805,44.337517 44.988228,44.756653 
z"/>
<path fill="#9F7FB3" opacity="1.000000" stroke="none" 
	d="
M36.825672,28.988899 
	C34.403046,29.378513 31.983381,29.907137 29.553556,29.958923 
	C29.288601,29.964567 28.965076,27.221746 29.053783,25.384686 
	C29.625790,25.009998 29.812729,25.004377 30.332634,24.990244 
	C31.448826,24.644430 32.232052,24.307129 33.214012,24.102350 
	C33.660641,24.441031 33.862446,24.685268 34.062157,25.300808 
	C35.012657,26.752319 35.919163,27.870609 36.825672,28.988899 
z"/>
<path fill="#9373A6" opacity="1.000000" stroke="none" 
	d="
M37.001350,40.946640 
	C37.001350,40.946640 36.557163,41.037949 35.954201,41.047909 
	C33.901428,41.366062 32.451622,41.674259 30.869791,41.785671 
	C30.530951,41.344097 30.285288,41.147953 29.999973,40.788555 
	C29.999170,40.576653 29.995598,40.152866 29.995598,40.152866 
	C32.387814,39.782940 34.780033,39.413013 37.464188,39.290764 
	C37.504532,40.007835 37.252941,40.477238 37.001350,40.946640 
z"/>
<path fill="#A282B7" opacity="1.000000" stroke="none" 
	d="
M32.018303,43.012054 
	C32.011990,43.759266 32.005676,44.506481 31.999443,45.627338 
	C31.842939,46.287628 31.637600,46.533566 31.180923,46.871109 
	C30.244116,47.005535 29.509890,47.007656 28.408226,47.009621 
	C28.041861,46.250294 28.042934,45.491123 28.404663,44.314388 
	C29.509964,43.597778 30.254610,43.298737 31.254028,43.001896 
	C31.678635,43.006756 31.848469,43.009407 32.018303,43.012054 
z"/>
<path fill="#9C7CAF" opacity="1.000000" stroke="none" 
	d="
M36.891388,28.766254 
	C35.919163,27.870609 35.012657,26.752319 34.300213,25.302456 
	C34.494278,24.970884 34.970772,24.974968 35.276505,25.049370 
	C36.054932,25.747677 36.527626,26.371584 37.003567,27.267809 
	C37.013210,27.721573 37.019604,27.903019 37.026001,28.084465 
	C37.026001,28.084465 36.957104,28.543608 36.891388,28.766254 
z"/>
<path fill="#997CAB" opacity="1.000000" stroke="none" 
	d="
M37.280079,41.079262 
	C37.252941,40.477238 37.504532,40.007835 37.879555,39.301422 
	C38.459892,38.786549 38.916801,38.508686 39.648666,38.214657 
	C39.942799,38.595604 39.961971,38.992714 39.999981,39.687233 
	C39.985531,40.422337 39.952244,40.860035 39.894035,41.624954 
	C39.099010,41.705410 38.328911,41.458645 37.280079,41.079262 
z"/>
<path fill="#8F70A0" opacity="1.000000" stroke="none" 
	d="
M34.970772,24.974968 
	C34.970772,24.974968 34.494278,24.970884 34.256226,24.969236 
	C33.862446,24.685268 33.660641,24.441031 33.206448,23.761703 
	C32.987511,22.833675 32.974876,22.378820 32.962242,21.923964 
	C34.213638,22.074272 35.465038,22.224581 36.492249,22.758993 
	C35.835629,23.753721 35.403202,24.364346 34.970772,24.974968 
z"/>
<path fill="#957ACC" opacity="1.000000" stroke="none" 
	d="
M16.992800,19.004745 
	C16.244463,19.003237 15.496126,19.001728 14.373606,18.999676 
	C14.305443,18.210094 14.611463,17.421059 14.960741,16.316814 
	C15.632393,15.738305 16.260786,15.475000 17.222977,15.136564 
	C17.556774,15.061433 17.473934,15.306355 17.283836,15.776144 
	C17.060091,17.165537 17.026445,18.085142 16.992800,19.004745 
z"/>
<path fill="#997CAB" opacity="1.000000" stroke="none" 
	d="
M30.999256,42.999695 
	C30.254610,43.298737 29.509964,43.597778 28.467062,43.939995 
	C28.125895,43.231594 28.082983,42.480011 28.405672,41.361870 
	C29.181108,40.997021 29.590942,40.998741 30.000778,41.000458 
	C30.285288,41.147953 30.530951,41.344097 30.869263,42.040092 
	C31.000256,42.660763 30.999756,42.830227 30.999256,42.999695 
z"/>
<path fill="#B391C7" opacity="1.000000" stroke="none" 
	d="
M28.596491,9.999048 
	C28.997498,10.425312 28.999275,10.851695 29.002567,11.596585 
	C27.935823,11.949636 26.867561,11.984180 25.401371,11.967058 
	C25.002356,11.490243 25.001270,11.065094 25.000156,10.320445 
	C26.065838,10.000352 27.131550,9.999760 28.596491,9.999048 
z"/>
<path fill="#977BBE" opacity="1.000000" stroke="none" 
	d="
M17.002567,24.996710 
	C17.002567,24.996710 17.001167,24.497307 16.995995,24.247631 
	C16.990231,23.829107 16.989643,23.660261 16.984207,23.237991 
	C17.179193,22.435553 17.379026,21.886538 17.969490,21.147533 
	C18.360117,20.957548 18.712450,20.973764 18.712450,20.973764 
	C18.765707,22.038336 18.818964,23.102905 18.624283,24.571400 
	C18.376345,24.975321 17.996485,24.996370 17.748005,24.997202 
	C17.499527,24.998034 17.002567,24.996710 17.002567,24.996710 
z"/>
<path fill="#9A8AB2" opacity="1.000000" stroke="none" 
	d="
M50.015327,26.630238 
	C49.853298,27.011236 49.685810,27.017839 49.142105,26.830772 
	C48.570744,26.382071 48.333118,26.176048 48.053009,26.019035 
	C48.006546,25.858459 47.960087,25.697884 47.955467,24.913914 
	C47.976807,23.529392 47.956318,22.768265 47.935829,22.007139 
	C48.112362,21.999559 48.288891,21.991982 48.730186,21.974234 
	C49.255199,22.472233 49.515442,22.980404 49.890915,23.750004 
	C50.007385,24.759569 50.008625,25.507706 50.015327,26.630238 
z"/>
<path fill="#9E7BA5" opacity="1.000000" stroke="none" 
	d="
M35.276505,25.049370 
	C35.403202,24.364346 35.835629,23.753721 36.555290,23.063137 
	C37.460392,23.817101 38.078262,24.651022 38.552094,25.942745 
	C38.254070,26.612034 38.123726,26.837208 38.017025,27.076069 
	C38.017025,27.076069 37.987648,27.024799 37.755291,27.012918 
	C37.348728,26.999189 37.174526,26.997339 37.000320,26.995491 
	C36.527626,26.371584 36.054932,25.747677 35.276505,25.049370 
z"/>
<path fill="#8F73C3" opacity="1.000000" stroke="none" 
	d="
M18.781969,20.580170 
	C18.712450,20.973764 18.360117,20.957548 18.184299,20.943220 
	C17.810421,20.412497 17.612358,19.896101 17.203548,19.192226 
	C17.026445,18.085142 17.060091,17.165537 17.154728,15.782730 
	C17.760975,16.941875 18.306231,18.564224 18.781969,20.580170 
z"/>
<path fill="#9B7CAC" opacity="1.000000" stroke="none" 
	d="
M32.630470,21.939594 
	C32.974876,22.378820 32.987511,22.833675 33.007710,23.629181 
	C32.232052,24.307129 31.448826,24.644430 30.444683,24.734779 
	C30.483709,23.994740 30.743656,23.501654 31.001947,22.789391 
	C31.000294,22.570211 30.985601,22.132088 30.985601,22.132088 
	C31.423300,22.073133 31.861000,22.014179 32.630470,21.939594 
z"/>
<path fill="#987AA9" opacity="1.000000" stroke="none" 
	d="
M31.003601,23.008568 
	C30.743656,23.501654 30.483709,23.994740 30.111715,24.743294 
	C29.812729,25.004377 29.625790,25.009998 29.158531,25.029842 
	C28.606066,24.556271 28.333921,24.068476 28.470211,23.287228 
	C29.586964,22.998703 30.295284,23.003635 31.003601,23.008568 
z"/>
<path fill="#A385D2" opacity="1.000000" stroke="none" 
	d="
M17.710899,12.041668 
	C18.071068,12.319138 18.144320,12.638576 18.352627,13.436075 
	C18.487686,13.914138 18.473175,13.970459 18.479630,14.004168 
	C17.826397,13.845509 17.166710,13.653140 16.253105,13.231161 
	C16.474117,12.695580 16.949049,12.389609 17.710899,12.041668 
z"/>
<path fill="#D3B4DC" opacity="1.000000" stroke="none" 
	d="
M47.754059,21.974131 
	C47.956318,22.768265 47.976807,23.529392 47.929535,24.664516 
	C47.614803,24.208084 47.367840,23.377651 47.164116,22.215290 
	C47.207352,21.883362 47.572292,21.941122 47.754059,21.974131 
z"/>
<path fill="#8F70A0" opacity="1.000000" stroke="none" 
	d="
M31.001949,22.789391 
	C30.295284,23.003635 29.586964,22.998703 28.525002,22.988714 
	C28.886330,22.665720 29.601301,22.347780 30.650936,22.080965 
	C30.985601,22.132088 31.000294,22.570211 31.001949,22.789391 
z"/>
<path fill="#8F70A0" opacity="1.000000" stroke="none" 
	d="
M29.999973,40.788555 
	C29.590942,40.998741 29.181108,40.997021 28.464329,40.988922 
	C28.570244,40.669907 28.983105,40.357277 29.695782,40.098755 
	C29.995598,40.152866 29.999170,40.576653 29.999973,40.788555 
z"/>
<path fill="#A98BBB" opacity="1.000000" stroke="none" 
	d="
M17.996485,24.996370 
	C17.996485,24.996370 18.376345,24.975321 18.566053,24.968491 
	C18.801300,25.418480 18.846838,25.875296 18.638870,26.671577 
	C18.385365,27.011044 18.014130,27.010290 18.014130,27.010290 
	C18.014130,27.010290 18.004013,27.003035 18.001509,26.666889 
	C17.998163,25.885952 17.997324,25.441162 17.996485,24.996370 
z"/>
<path fill="#8E95B3" opacity="1.000000" stroke="none" 
	d="
M47.976814,26.337963 
	C48.333118,26.176048 48.570744,26.382071 48.890846,26.839890 
	C49.015808,27.042683 49.011463,27.526989 49.007320,27.769257 
	C48.817753,28.003836 48.632328,27.996145 48.168739,27.976681 
	C47.893925,27.528900 47.897274,27.092896 47.976814,26.337963 
z"/>
<path fill="#A684BC" opacity="1.000000" stroke="none" 
	d="
M18.108318,27.186096 
	C18.014130,27.010290 18.385365,27.011044 18.570883,27.010931 
	C18.756401,27.010818 18.834158,27.472883 18.793648,27.703522 
	C18.534899,27.776789 18.351357,27.586035 18.108318,27.186096 
z"/>
<path fill="#8F70A0" opacity="1.000000" stroke="none" 
	d="
M38.199291,26.965227 
	C38.123726,26.837208 38.254070,26.612034 38.537144,26.254494 
	C38.755692,26.427391 38.660801,26.676039 38.199291,26.965227 
z"/>
<path fill="#8F70A0" opacity="1.000000" stroke="none" 
	d="
M37.003567,27.267809 
	C37.174526,26.997339 37.348728,26.999189 37.784836,27.012915 
	C37.874359,27.320930 37.701981,27.617067 37.277802,27.998835 
	C37.019604,27.903019 37.013210,27.721573 37.003567,27.267809 
z"/>
<path fill="#C77FC1" opacity="1.000000" stroke="none" 
	d="
M45.154846,16.280552 
	C45.393421,16.200485 45.605644,16.417122 45.869217,16.888662 
	C45.621197,17.025017 45.357174,16.836246 45.154846,16.280552 
z"/>
<path fill="#A684BC" opacity="1.000000" stroke="none" 
	d="
M17.748005,24.997202 
	C17.997324,25.441162 17.998163,25.885952 17.998329,26.664200 
	C17.997654,26.997656 17.499187,26.999769 17.249996,26.999773 
	C17.000616,26.554897 17.000425,26.110020 17.001402,25.330925 
	C17.002567,24.996710 17.499527,24.998034 17.748005,24.997202 
z"/>
<path fill="#A180B5" opacity="1.000000" stroke="none" 
	d="
M31.254028,43.001900 
	C30.999756,42.830227 31.000256,42.660763 31.001286,42.236874 
	C32.451622,41.674259 33.901428,41.366062 35.729355,41.077133 
	C36.084824,41.522694 36.062176,41.948990 36.029121,42.696457 
	C34.951374,43.014336 33.884029,43.011044 32.417496,43.009903 
	C31.848469,43.009407 31.678635,43.006756 31.254028,43.001900 
z"/>
</svg>