<svg version="1.1" id="Layer_1" xmlns="http://www.w3.org/2000/svg" xmlns:xlink="http://www.w3.org/1999/xlink" x="0px" y="0px"
	 width="100%" viewBox="0 0 60 60" enable-background="new 0 0 60 60" xml:space="preserve">
<path fill="#783C65" opacity="1.000000" stroke="none" 
	d="
M37.000000,1.000000 
	C37.444336,1.000000 37.888672,1.000000 38.665745,1.332794 
	C39.009373,2.108779 39.020260,2.551970 39.146027,3.294086 
	C39.511871,4.398402 39.762836,5.203792 40.009335,6.399835 
	C40.351547,8.518877 40.698231,10.247267 41.019028,12.281633 
	C40.979332,12.791856 40.965527,12.996102 40.623066,13.215717 
	C38.181576,12.760190 36.068745,12.289293 33.974472,11.437910 
	C34.006348,10.040462 34.019669,9.023500 34.303986,7.779483 
	C34.735016,6.387493 34.895042,5.222558 35.366726,4.041942 
	C36.118923,3.017506 36.559460,2.008753 37.000000,1.000000 
z"/>
<path fill="#E07FB8" opacity="1.000000" stroke="none" 
	d="
M54.000000,61.000000 
	C52.611004,61.000000 51.222004,61.000000 49.395664,60.701889 
	C48.638073,59.934910 48.317825,59.466042 48.002602,58.628395 
	C48.337120,56.840881 48.666611,55.422138 49.163754,53.758072 
	C49.886101,53.340588 50.440792,53.168427 51.246605,52.996681 
	C51.665142,52.997105 51.832554,52.997120 52.112854,53.256351 
	C52.783253,54.003002 53.340763,54.490433 53.924870,55.352104 
	C53.984211,56.474430 54.016953,57.222519 54.022800,58.348846 
	C53.997272,59.484726 53.998634,60.242363 54.000000,61.000000 
z"/>
<path fill="#70589A" opacity="1.000000" stroke="none" 
	d="
M36.000000,61.000000 
	C33.957684,61.000000 31.915365,61.000000 29.436443,60.625000 
	C29.003662,59.499485 29.007483,58.748970 29.354393,57.944954 
	C30.133793,56.927464 30.570103,55.963474 31.379810,54.999779 
	C32.502121,55.000095 33.251038,55.000111 34.049774,55.338062 
	C35.063782,56.775681 36.027969,57.875355 36.899719,59.243420 
	C36.538189,60.007874 36.269096,60.503937 36.000000,61.000000 
z"/>
<path fill="#EC72C5" opacity="1.000000" stroke="none" 
	d="
M6.000000,61.000000 
	C4.404774,61.000000 2.809549,61.000000 1.000000,61.000000 
	C1.000000,58.999798 1.000000,56.996368 1.386930,54.496361 
	C2.803142,54.021568 3.832425,54.043358 4.900656,54.407616 
	C5.290246,55.831848 5.640888,56.913612 5.999141,58.370964 
	C6.004500,59.497704 6.002250,60.248852 6.000000,61.000000 
z"/>
<path fill="#D47BB7" opacity="1.000000" stroke="none" 
	d="
M48.996101,54.003403 
	C48.666611,55.422138 48.337120,56.840881 47.648758,58.633984 
	C46.526588,59.672234 45.763294,60.336117 45.000000,61.000000 
	C44.555553,61.000000 44.111111,61.000000 43.333725,60.604416 
	C43.003059,59.155075 43.005337,58.101322 43.116150,56.757294 
	C43.807476,55.891300 44.390266,55.315582 45.251663,54.600426 
	C45.747612,53.653351 45.964951,52.845715 46.387886,52.049072 
	C46.593483,52.060062 47.004803,52.079586 47.051949,52.391464 
	C47.731426,53.136692 48.363762,53.570045 48.996101,54.003403 
z"/>
<path fill="#DB70C7" opacity="1.000000" stroke="none" 
	d="
M4.861708,54.065147 
	C3.832425,54.043358 2.803142,54.021568 1.386930,53.999886 
	C1.000000,51.958294 1.000000,49.916584 1.241605,47.286095 
	C1.989952,46.440567 2.496693,46.183830 2.995884,46.193886 
	C2.993207,46.638069 2.998080,46.815456 3.004113,47.320721 
	C3.666641,48.111641 4.328011,48.574680 5.254206,49.247414 
	C5.668628,50.342758 5.818222,51.228405 5.847922,52.366432 
	C5.439254,53.100925 5.150481,53.583038 4.861708,54.065147 
z"/>
<path fill="#D48BB3" opacity="1.000000" stroke="none" 
	d="
M61.000000,47.000000 
	C61.000000,48.388996 61.000000,49.777996 60.739357,51.687016 
	C59.986378,52.471836 59.494038,52.736637 58.834236,52.756050 
	C58.111443,52.340290 57.556103,52.169918 56.742039,51.892567 
	C55.990311,51.522953 55.497303,51.260315 55.013233,50.617725 
	C56.681572,49.158798 58.340973,48.079823 60.250282,47.000488 
	C60.500191,47.000130 61.000000,47.000000 61.000000,47.000000 
z"/>
<path fill="#A061B0" opacity="1.000000" stroke="none" 
	d="
M54.000000,1.000000 
	C55.714375,1.000000 57.428753,1.000000 59.570976,1.376373 
	C59.990391,2.505419 59.981956,3.258094 59.693260,4.129393 
	C58.607624,4.828538 57.802250,5.409058 56.666344,5.991975 
	C55.895306,5.995918 55.454788,5.997463 54.990227,5.700436 
	C54.641743,4.932966 54.317307,4.464067 53.996235,3.620860 
	C53.999733,2.497700 53.999866,1.748850 54.000000,1.000000 
z"/>
<path fill="#5F4C84" opacity="1.000000" stroke="none" 
	d="
M1.000000,38.000000 
	C1.000000,36.933212 1.000000,35.866425 1.288844,34.388885 
	C1.959262,33.925133 2.340836,33.872131 2.971646,34.101303 
	C4.163412,34.569691 5.105941,34.755905 6.289950,35.096611 
	C7.029515,35.812626 7.527599,36.374153 8.110312,37.209812 
	C8.457143,37.991261 8.719346,38.498569 8.609045,39.004616 
	C7.490915,39.002136 6.745288,39.000916 5.750372,38.721172 
	C4.000721,38.295101 2.500361,38.147549 1.000000,38.000000 
z"/>
<path fill="#522A46" opacity="1.000000" stroke="none" 
	d="
M35.055069,4.057624 
	C34.895042,5.222558 34.735016,6.387493 33.964806,7.777447 
	C32.904053,8.000230 32.453480,7.997993 32.002106,7.587828 
	C31.362272,5.450834 30.723232,3.721770 30.050022,1.745642 
	C30.015852,1.498579 30.000000,1.000000 30.000000,1.000000 
	C31.388889,1.000000 32.777779,1.000000 34.584732,1.381635 
	C35.020218,2.528055 35.037643,3.292840 35.055069,4.057624 
z"/>
<path fill="#D579AA" opacity="1.000000" stroke="none" 
	d="
M60.000000,61.000000 
	C59.250000,61.000000 58.500000,61.000000 57.381073,60.629700 
	C57.016117,59.518780 57.020084,58.778164 56.925339,57.768456 
	C56.574059,56.991009 56.321491,56.482643 56.275764,55.867523 
	C56.738396,55.565033 56.911919,55.312717 57.244446,55.003258 
	C57.485718,55.002701 57.968262,55.003006 58.136410,55.258171 
	C58.876732,55.679283 59.448906,55.845234 60.265808,56.008072 
	C60.510532,56.004959 61.000000,56.000000 61.000000,56.000000 
	C61.000000,57.066517 61.000000,58.133038 60.777359,59.703606 
	C60.276791,60.406643 60.091885,60.670757 60.000000,61.000000 
z"/>
<path fill="#D18DC2" opacity="1.000000" stroke="none" 
	d="
M1.000000,14.000000 
	C1.000000,12.285625 1.000000,10.571250 1.339906,8.428881 
	C2.133002,7.999899 2.586192,7.998912 3.333326,8.019838 
	C4.091145,8.363191 4.555020,8.684629 5.012434,9.357117 
	C4.338364,11.138720 3.670754,12.569276 2.669123,13.999569 
	C1.890068,13.999538 1.445034,13.999769 1.000000,14.000000 
z"/>
<path fill="#BB6FAF" opacity="1.000000" stroke="none" 
	d="
M61.000000,7.000000 
	C61.000000,9.042317 61.000000,11.084636 60.653709,13.562222 
	C59.845707,13.995526 59.383987,13.993564 58.936142,13.664577 
	C58.937302,12.901420 58.924599,12.465286 58.907951,11.700160 
	C58.277840,10.865336 57.651672,10.359507 57.030704,9.515831 
	C57.366970,8.122881 57.698029,7.067777 58.273922,6.010184 
	C58.518753,6.007696 59.008327,6.018259 59.176056,6.260385 
	C59.895859,6.668341 60.447929,6.834170 61.000000,7.000000 
z"/>
<path fill="#DD7FBF" opacity="1.000000" stroke="none" 
	d="
M4.000000,1.000000 
	C6.042318,1.000000 8.084636,1.000000 10.589198,1.269045 
	C11.060412,1.718047 11.069383,1.898004 10.993393,2.296355 
	C10.908433,2.514749 10.769940,2.963161 10.504877,3.089547 
	C9.528826,3.508069 8.817837,3.800205 7.699901,4.063066 
	C6.207151,4.037743 5.121350,4.041695 4.020123,3.665094 
	C4.003132,2.523028 4.001566,1.761514 4.000000,1.000000 
z"/>
<path fill="#A27D94" opacity="1.000000" stroke="none" 
	d="
M2.722410,33.819134 
	C2.340836,33.872131 1.959262,33.925133 1.288844,33.989067 
	C1.000000,31.958323 1.000000,29.916647 1.349220,27.437389 
	C2.394421,26.989788 3.090403,26.979767 3.899713,27.321960 
	C4.148332,28.145386 4.283623,28.616598 4.335461,29.457321 
	C3.994840,30.539888 3.737670,31.252947 3.305392,32.153877 
	C2.994325,32.834213 2.858367,33.326672 2.722410,33.819134 
z"/>
<path fill="#E785C2" opacity="1.000000" stroke="none" 
	d="
M3.500031,1.000000 
	C4.001566,1.761514 4.003132,2.523028 3.981978,4.004906 
	C3.652632,5.816155 3.346007,6.907040 3.039382,7.997924 
	C2.586192,7.998912 2.133002,7.999899 1.339906,8.000443 
	C1.000000,5.947354 0.909449,3.886696 1.089681,1.850000 
	C1.119507,1.512955 2.333374,1.280688 3.500031,1.000000 
z"/>
<path fill="#725FA6" opacity="1.000000" stroke="none" 
	d="
M29.011307,57.998455 
	C29.007483,58.748970 29.003662,59.499485 28.999920,60.625000 
	C28.250000,61.000000 27.500000,61.000000 26.257717,60.700119 
	C25.526182,59.590363 25.286930,58.780491 25.201269,57.670277 
	C26.567299,56.918346 27.779736,56.466759 28.993402,56.345749 
	C29.000191,57.117035 29.005749,57.557747 29.011307,57.998455 
z"/>
<path fill="#62508D" opacity="1.000000" stroke="none" 
	d="
M1.000000,38.333332 
	C2.500361,38.147549 4.000721,38.295101 5.774694,39.039543 
	C6.367172,40.420444 6.686038,41.204456 6.787492,42.094433 
	C6.296986,42.391083 6.103080,42.642776 5.730177,42.961044 
	C5.300036,42.975128 5.128082,42.983643 4.736352,42.987389 
	C4.516575,42.982624 4.077096,42.970119 4.050936,42.600945 
	C3.016517,41.487850 2.008259,40.743923 1.000000,40.000000 
	C1.000000,39.555553 1.000000,39.111111 1.000000,38.333332 
z"/>
<path fill="#E794C1" opacity="1.000000" stroke="none" 
	d="
M61.000000,29.000000 
	C61.000000,30.714376 61.000000,32.428753 60.629040,34.571640 
	C59.517754,34.994896 58.777431,34.989639 58.013092,34.689819 
	C57.683945,33.926636 57.378811,33.458015 57.073814,32.763103 
	C57.073952,32.536816 57.212105,32.105839 57.428680,31.929108 
	C58.065342,31.157928 58.485420,30.563482 59.145180,29.883196 
	C59.595215,29.538458 59.805565,29.279562 60.261837,29.010866 
	C60.507763,29.001068 61.000000,29.000000 61.000000,29.000000 
z"/>
<path fill="#745A9E" opacity="1.000000" stroke="none" 
	d="
M1.000000,40.437500 
	C2.008259,40.743923 3.016517,41.487850 3.796312,42.776531 
	C3.397196,44.080177 3.226543,44.839066 3.025978,45.677559 
	C2.996064,45.757164 3.003434,45.927090 3.003434,45.927090 
	C2.496693,46.183830 1.989952,46.440567 1.241605,46.848656 
	C1.000000,44.958332 1.000000,42.916668 1.000000,40.437500 
z"/>
<path fill="#715192" opacity="1.000000" stroke="none" 
	d="
M19.000000,61.000000 
	C17.933212,61.000000 16.866426,61.000000 15.378712,60.696510 
	C14.630943,59.915157 14.304104,59.437294 14.004396,58.667458 
	C14.352109,57.916409 14.672688,57.457336 15.319010,57.026554 
	C16.752892,57.713654 17.861029,58.372467 18.975100,59.260525 
	C18.981031,59.489773 18.983871,59.948418 18.992054,60.211250 
	C19.000158,60.649387 19.000080,60.824696 19.000000,61.000000 
z"/>
<path fill="#D78EB6" opacity="1.000000" stroke="none" 
	d="
M61.000000,46.563477 
	C61.000000,47.000000 60.500191,47.000130 60.110840,46.679703 
	C59.479263,45.238632 59.237038,44.117989 58.996712,42.664684 
	C58.998390,41.888443 58.998165,41.444870 59.165577,40.756020 
	C59.888809,40.340496 60.444405,40.170246 61.000000,40.000000 
	C61.000000,42.042316 61.000000,44.084637 61.000000,46.563477 
z"/>
<path fill="#4D2841" opacity="1.000000" stroke="none" 
	d="
M19.375000,61.000000 
	C19.000080,60.824696 19.000158,60.649387 19.187586,60.113270 
	C19.626348,59.551041 19.728497,59.290981 19.771208,58.608974 
	C19.941833,57.501572 20.022627,56.757469 20.438404,56.012215 
	C21.220980,56.024185 21.668573,56.037304 22.206116,56.253056 
	C22.471331,56.723282 22.718369,56.870945 23.013813,57.174511 
	C22.990057,57.634892 22.989664,57.819439 22.853893,58.292114 
	C22.479008,59.386829 22.239502,60.193413 22.000000,61.000000 
	C21.250000,61.000000 20.500000,61.000000 19.375000,61.000000 
z"/>
<path fill="#DD7FBF" opacity="1.000000" stroke="none" 
	d="
M43.007614,57.047569 
	C43.005337,58.101322 43.003059,59.155075 43.000389,60.604416 
	C42.250000,61.000000 41.500000,61.000000 40.274570,60.737522 
	C39.531918,59.981796 39.264698,59.488548 39.217247,58.880867 
	C39.720760,58.581650 39.942192,58.339813 40.338676,57.968231 
	C40.864948,57.711868 41.077045,57.462795 41.511803,57.136208 
	C42.210056,57.098595 42.608833,57.073082 43.007614,57.047569 
z"/>
<path fill="#755497" opacity="1.000000" stroke="none" 
	d="
M14.000000,1.000000 
	C15.066787,1.000000 16.133574,1.000000 17.438210,1.203087 
	C17.438387,1.865525 17.200712,2.324877 16.737328,2.930022 
	C16.320240,3.374027 16.128866,3.672236 15.634529,4.000851 
	C14.853403,4.377900 14.375240,4.724544 13.644094,4.929902 
	C12.925400,4.188282 12.459687,3.587948 12.316671,2.943089 
	C13.092912,2.265709 13.546455,1.632855 14.000000,1.000000 
z"/>
<path fill="#805296" opacity="1.000000" stroke="none" 
	d="
M12.000000,61.000000 
	C11.250000,61.000000 10.500000,61.000000 9.375208,60.658981 
	C8.983811,59.864044 8.967205,59.410118 8.920774,58.664574 
	C8.831290,58.186470 8.771632,57.999989 8.721324,57.624817 
	C8.730674,57.436127 8.797910,57.064308 9.142167,57.061539 
	C10.327631,57.706261 11.168838,58.353748 12.011074,59.334381 
	C12.008069,60.111683 12.004035,60.555843 12.000000,61.000000 
z"/>
<path fill="#BE82B1" opacity="1.000000" stroke="none" 
	d="
M61.000000,20.000000 
	C61.000000,21.388998 61.000000,22.777994 60.665932,24.583340 
	C59.886761,24.999872 59.441654,25.000057 58.999214,24.664074 
	C58.670673,23.558632 58.339470,22.789358 58.107162,21.768147 
	C58.470230,21.048151 58.734398,20.580095 59.226639,20.060652 
	C59.454716,20.009262 59.903137,19.876766 60.176788,19.912621 
	C60.633625,19.965652 60.816814,19.982826 61.000000,20.000000 
z"/>
<path fill="#AE8BA2" opacity="1.000000" stroke="none" 
	d="
M3.786385,26.969746 
	C3.090403,26.979767 2.394421,26.989788 1.349220,26.999905 
	C1.000000,26.250000 1.000000,25.500000 1.155013,24.291220 
	C1.476761,23.673861 1.631426,23.504276 1.918437,23.051212 
	C2.372372,22.514692 2.681891,22.250647 3.046634,22.260944 
	C3.318008,23.028343 3.534160,23.521402 3.751864,24.384430 
	C3.764407,25.492849 3.775396,26.231297 3.786385,26.969746 
z"/>
<path fill="#80648A" opacity="1.000000" stroke="none" 
	d="
M59.903137,19.876766 
	C59.903137,19.876766 59.454716,20.009262 58.921402,20.008053 
	C57.912655,19.661867 57.437225,19.316889 56.986687,18.668213 
	C57.543095,17.545155 58.074615,16.725792 58.745926,16.228050 
	C59.590481,17.033117 60.295238,17.516560 61.000000,18.000000 
	C61.000000,18.000000 61.000000,18.500000 60.764214,18.818203 
	C60.244228,19.319197 60.035797,19.565983 59.903137,19.876766 
z"/>
<path fill="#120E1F" opacity="1.000000" stroke="none" 
	d="
M19.000000,1.000000 
	C19.444336,1.000000 19.888672,1.000000 20.689175,1.320751 
	C21.390600,2.161954 21.735863,2.682406 22.005262,3.514886 
	C21.030315,4.256247 20.131229,4.685579 19.144247,4.825066 
	C18.998390,4.341800 18.940430,4.148380 18.920502,3.586901 
	C18.972357,2.479229 18.986177,1.739614 19.000000,1.000000 
z"/>
<path fill="#8E5294" opacity="1.000000" stroke="none" 
	d="
M49.000000,1.000000 
	C49.750000,1.000000 50.500000,1.000000 51.625069,1.373468 
	C51.996544,2.493262 51.992958,3.239588 51.620209,3.992131 
	C50.512096,4.007856 49.773144,4.017363 49.022491,3.771369 
	C49.006920,3.345399 49.003044,3.174930 48.999611,2.670221 
	C49.000031,1.890653 49.000015,1.445327 49.000000,1.000000 
z"/>
<path fill="#715192" opacity="1.000000" stroke="none" 
	d="
M42.000000,1.000000 
	C43.388996,1.000000 44.777996,1.000000 46.582851,1.330457 
	C46.994698,2.101142 46.990685,2.541371 46.991814,2.989947 
	C46.996960,2.998295 47.000328,2.994483 46.665367,2.988995 
	C45.883854,2.973965 45.437298,2.964423 44.898445,2.795132 
	C44.536804,2.753069 44.267467,2.870755 43.999298,2.993667 
	C44.000465,2.998893 44.010902,3.007764 43.759972,3.003046 
	C43.341728,2.999407 43.174416,3.000485 42.758217,2.998246 
	C42.509335,2.994928 42.011555,2.988968 42.006775,2.657338 
	C42.001328,1.883805 42.000664,1.441902 42.000000,1.000000 
z"/>
<path fill="#B4679F" opacity="1.000000" stroke="none" 
	d="
M61.000000,17.600004 
	C60.295238,17.516560 59.590481,17.033117 58.671131,16.048044 
	C58.276333,15.339186 58.052944,15.202244 57.921875,14.894651 
	C58.345680,14.433011 58.633976,14.212306 58.922272,13.991600 
	C59.383987,13.993564 59.845707,13.995526 60.653709,13.998745 
	C61.000000,15.066669 61.000000,16.133339 61.000000,17.600004 
z"/>
<path fill="#B38BBA" opacity="1.000000" stroke="none" 
	d="
M1.000000,20.000000 
	C1.000000,18.933214 1.000000,17.866426 1.333000,16.399868 
	C2.109670,15.999398 2.553339,15.998698 3.041960,16.318819 
	C3.126193,16.852007 3.165476,17.064375 3.292043,17.504879 
	C3.236400,18.421423 3.093474,19.109829 2.790763,19.654650 
	C2.087320,19.674044 1.543660,19.837023 1.000000,20.000000 
z"/>
<path fill="#2D1825" opacity="1.000000" stroke="none" 
	d="
M29.563477,1.000000 
	C30.000000,1.000000 30.015852,1.498579 29.968719,1.948403 
	C29.795811,2.671270 29.603701,2.884554 28.960558,2.899200 
	C26.789677,2.563803 25.003494,2.367284 23.150867,1.880323 
	C23.056284,1.393253 23.028143,1.196627 23.000000,1.000000 
	C25.042318,1.000000 27.084635,1.000000 29.563477,1.000000 
z"/>
<path fill="#C5709E" opacity="1.000000" stroke="none" 
	d="
M57.024055,58.037544 
	C57.020084,58.778164 57.016117,59.518780 57.006073,60.629700 
	C56.250000,61.000000 55.500000,61.000000 54.375000,61.000000 
	C53.998634,60.242363 53.997272,59.484726 54.393303,58.360100 
	C55.535152,58.007919 56.279606,58.022732 57.024055,58.037544 
z"/>
<path fill="#DB94BA" opacity="1.000000" stroke="none" 
	d="
M61.000000,39.666664 
	C60.444405,40.170246 59.888809,40.340496 58.899311,40.635460 
	C57.976784,40.172405 57.488163,39.584625 56.999401,38.746880 
	C56.999260,38.496910 57.000000,37.996971 57.331741,37.998520 
	C58.105675,37.998569 58.547859,37.997078 59.324722,37.997654 
	C60.106266,37.999817 60.553131,37.999908 61.000000,38.000000 
	C61.000000,38.444447 61.000000,38.888889 61.000000,39.666664 
z"/>
<path fill="#E381BD" opacity="1.000000" stroke="none" 
	d="
M45.399998,61.000000 
	C45.763294,60.336117 46.526588,59.672234 47.643730,59.002758 
	C48.317825,59.466042 48.638073,59.934910 48.979160,60.701889 
	C47.933331,61.000000 46.866661,61.000000 45.399998,61.000000 
z"/>
<path fill="#6A4B82" opacity="1.000000" stroke="none" 
	d="
M22.250000,61.000000 
	C22.239502,60.193413 22.479008,59.386829 23.196724,58.286148 
	C24.132517,57.984909 24.590097,57.977764 25.047676,57.970615 
	C25.286930,58.780491 25.526182,59.590363 25.882717,60.700119 
	C25.555555,61.000000 25.111111,61.000000 24.239277,60.837299 
	C23.541256,60.783066 23.270628,60.891533 23.000000,61.000000 
	C23.000000,61.000000 22.500000,61.000000 22.250000,61.000000 
z"/>
<path fill="#603054" opacity="1.000000" stroke="none" 
	d="
M35.366726,4.041942 
	C35.037643,3.292840 35.020218,2.528055 35.001396,1.381635 
	C35.444447,1.000000 35.888889,1.000000 36.666668,1.000000 
	C36.559460,2.008753 36.118923,3.017506 35.366726,4.041942 
z"/>
<path fill="#DB9ABE" opacity="1.000000" stroke="none" 
	d="
M61.000000,37.625000 
	C60.553131,37.999908 60.106266,37.999817 59.306973,37.700859 
	C58.639240,36.932980 58.323929,36.463966 58.009682,35.742142 
	C58.019531,35.321007 58.028320,35.152691 58.037106,34.984383 
	C58.777431,34.989639 59.517754,34.994896 60.629040,35.000076 
	C61.000000,35.750000 61.000000,36.500000 61.000000,37.625000 
z"/>
<path fill="#644A87" opacity="1.000000" stroke="none" 
	d="
M12.375000,61.000000 
	C12.004035,60.555843 12.008069,60.111683 12.339003,59.330421 
	C13.103023,58.982018 13.540142,58.970726 13.977262,58.959431 
	C14.304104,59.437294 14.630943,59.915157 14.978891,60.696510 
	C14.250000,61.000000 13.500000,61.000000 12.375000,61.000000 
z"/>
<path fill="#B892B6" opacity="1.000000" stroke="none" 
	d="
M1.000000,20.375000 
	C1.543660,19.837023 2.087320,19.674044 2.811413,20.021706 
	C2.991701,21.017099 2.991556,21.501850 2.991411,21.986601 
	C2.681891,22.250647 2.372372,22.514692 1.732490,22.954433 
	C1.402128,23.130131 1.000000,23.000000 1.000000,23.000000 
	C1.000000,22.250000 1.000000,21.500000 1.000000,20.375000 
z"/>
<path fill="#C880A4" opacity="1.000000" stroke="none" 
	d="
M61.000000,55.600010 
	C61.000000,56.000000 60.510532,56.004959 60.147823,55.777855 
	C59.511887,55.345585 59.238655,55.140423 58.974800,54.613022 
	C58.990017,53.861000 58.995857,53.431221 59.001694,53.001442 
	C59.494038,52.736637 59.986378,52.471836 60.739357,52.103519 
	C61.000000,53.066673 61.000000,54.133347 61.000000,55.600010 
z"/>
<path fill="#714B83" opacity="1.000000" stroke="none" 
	d="
M41.625000,1.000000 
	C42.000664,1.441902 42.001328,1.883805 41.633621,2.661917 
	C40.520546,2.997138 39.775848,2.996150 39.031147,2.995161 
	C39.020260,2.551970 39.009373,2.108779 38.999241,1.332794 
	C39.750000,1.000000 40.500000,1.000000 41.625000,1.000000 
z"/>
<path fill="#99549A" opacity="1.000000" stroke="none" 
	d="
M51.989372,3.985914 
	C51.992958,3.239588 51.996544,2.493262 52.000069,1.373468 
	C52.444660,1.000000 52.889324,1.000000 53.666992,1.000000 
	C53.999866,1.748850 53.999733,2.497700 53.750069,3.625863 
	C53.500538,4.005175 53.007973,4.009998 52.753323,4.004009 
	C52.328907,3.993985 52.159138,3.989949 51.989372,3.985914 
z"/>
<path fill="#50365D" opacity="1.000000" stroke="none" 
	d="
M18.750000,1.000000 
	C18.986177,1.739614 18.972357,2.479229 18.675602,3.686597 
	C17.916124,3.697643 17.439581,3.240936 16.963037,2.784228 
	C17.200712,2.324877 17.438387,1.865525 17.838032,1.203087 
	C18.000000,1.000000 18.500000,1.000000 18.750000,1.000000 
z"/>
<path fill="#805296" opacity="1.000000" stroke="none" 
	d="
M6.333496,61.000000 
	C6.002250,60.248852 6.004500,59.497704 6.358017,58.347855 
	C7.187979,57.928394 7.666675,57.907635 8.097679,58.153625 
	C8.043944,58.600937 8.037902,58.781490 8.017516,59.301674 
	C8.002114,60.094204 8.001058,60.547104 8.000000,61.000000 
	C7.555664,61.000000 7.111328,61.000000 6.333496,61.000000 
z"/>
<path fill="#BF6FAF" opacity="1.000000" stroke="none" 
	d="
M38.997478,58.995300 
	C39.264698,59.488548 39.531918,59.981796 39.899570,60.737522 
	C38.933331,61.000000 37.866657,61.000000 36.399994,61.000000 
	C36.269096,60.503937 36.538189,60.007874 37.145657,59.183472 
	C37.644939,58.804356 37.805851,58.753574 38.221336,58.788876 
	C38.649765,58.915073 38.823624,58.955189 38.997478,58.995300 
z"/>
<path fill="#A667A8" opacity="1.000000" stroke="none" 
	d="
M13.625000,1.000000 
	C13.546455,1.632855 13.092912,2.265709 12.319998,2.950758 
	C12.000629,3.002951 12.015597,3.002620 11.925581,2.789557 
	C11.645639,2.315412 11.393235,2.149235 11.078353,2.077962 
	C11.069383,1.898004 11.060412,1.718047 11.025722,1.269045 
	C11.750000,1.000000 12.500000,1.000000 13.625000,1.000000 
z"/>
<path fill="#CD85B6" opacity="1.000000" stroke="none" 
	d="
M58.996552,25.000242 
	C59.441654,25.000057 59.886761,24.999872 60.665932,24.999844 
	C61.000000,25.750000 61.000000,26.500000 60.762218,27.625605 
	C60.524437,28.001209 60.049080,28.015232 60.013947,27.694950 
	C59.651073,26.588518 59.323338,25.802366 58.996902,25.010826 
	C58.998207,25.005440 58.996552,25.000242 58.996552,25.000242 
z"/>
<path fill="#522A46" opacity="1.000000" stroke="none" 
	d="
M22.666668,1.000000 
	C23.028143,1.196627 23.056284,1.393253 23.002911,2.094388 
	C22.641306,2.800217 22.361214,3.001538 22.081123,3.202858 
	C21.735863,2.682406 21.390600,2.161954 21.022671,1.320751 
	C21.444445,1.000000 21.888889,1.000000 22.666668,1.000000 
z"/>
<path fill="#BB72B1" opacity="1.000000" stroke="none" 
	d="
M59.973522,4.010767 
	C59.981956,3.258094 59.990391,2.505419 59.999413,1.376373 
	C60.333332,2.000651 60.666668,3.001302 60.755447,4.503395 
	C60.510895,5.004838 60.021770,5.008174 60.012184,4.758652 
	C60.002598,4.509130 59.973522,4.010767 59.973522,4.010767 
z"/>
<path fill="#B987BA" opacity="1.000000" stroke="none" 
	d="
M2.997009,15.997997 
	C2.553339,15.998698 2.109670,15.999398 1.333000,16.000050 
	C1.000000,15.555664 1.000000,15.111328 1.000000,14.333496 
	C1.445034,13.999769 1.890068,13.999538 2.669098,14.332615 
	C3.001066,15.109947 2.999038,15.553972 2.997009,15.997997 
z"/>
<path fill="#855596" opacity="1.000000" stroke="none" 
	d="
M46.986668,2.981600 
	C46.990685,2.541371 46.994698,2.101142 46.999355,1.330457 
	C47.444336,1.000000 47.888672,1.000000 48.666504,1.000000 
	C49.000015,1.445327 49.000031,1.890653 48.664268,2.668467 
	C47.881214,2.994503 47.433941,2.988051 46.986668,2.981600 
z"/>
<path fill="#C476B8" opacity="1.000000" stroke="none" 
	d="
M60.021770,5.008174 
	C60.021770,5.008174 60.510895,5.004838 60.755447,5.002419 
	C61.000000,5.444445 61.000000,5.888889 61.000000,6.666667 
	C60.447929,6.834170 59.895859,6.668341 59.392010,6.144210 
	C59.707024,5.581213 59.900867,5.321968 60.021770,5.008174 
z"/>
<path fill="#955191" opacity="1.000000" stroke="none" 
	d="
M8.250000,61.000000 
	C8.001058,60.547104 8.002114,60.094204 8.247051,59.306000 
	C8.490932,58.970688 8.950599,58.956196 8.950599,58.956196 
	C8.967205,59.410118 8.983811,59.864044 9.000208,60.658981 
	C9.000000,61.000000 8.500000,61.000000 8.250000,61.000000 
z"/>
<path fill="#C16C9A" opacity="1.000000" stroke="none" 
	d="
M60.500000,61.000000 
	C60.091885,60.670757 60.276791,60.406643 60.777359,60.103828 
	C61.000000,60.333332 61.000000,60.666668 60.500000,61.000000 
z"/>
<path fill="#553962" opacity="1.000000" stroke="none" 
	d="
M23.250000,61.000000 
	C23.270628,60.891533 23.541256,60.783066 23.905943,60.837299 
	C24.000000,61.000000 23.500000,61.000000 23.250000,61.000000 
z"/>
<path fill="#DB9ABE" opacity="1.000000" stroke="none" 
	d="
M60.049080,28.015232 
	C60.049080,28.015232 60.524437,28.001209 60.762218,28.000605 
	C61.000000,28.000000 61.000000,28.500000 61.000000,28.750000 
	C61.000000,29.000000 60.507763,29.001068 60.246124,28.993031 
	C59.984486,28.984991 59.952229,28.950905 59.969429,28.716595 
	C59.986633,28.482286 60.049080,28.015232 60.049080,28.015232 
z"/>
<path fill="#B4679F" opacity="1.000000" stroke="none" 
	d="
M60.176788,19.912621 
	C60.035797,19.565983 60.244228,19.319197 60.764214,19.068203 
	C61.000000,19.000000 61.000000,19.500000 61.000000,19.750000 
	C60.816814,19.982826 60.633625,19.965652 60.176788,19.912621 
z"/>
<path fill="#745A9E" opacity="1.000000" stroke="none" 
	d="
M1.000000,23.250000 
	C1.000000,23.000000 1.402128,23.130131 1.588075,23.226910 
	C1.631426,23.504276 1.476761,23.673861 1.155013,23.916220 
	C1.000000,24.000000 1.000000,23.500000 1.000000,23.250000 
z"/>
<path fill="#FEFEFE" opacity="1.000000" stroke="none" 
	d="
M33.955914,11.818397 
	C36.068745,12.289293 38.181576,12.760190 40.762047,13.506630 
	C42.754642,14.873139 44.279594,15.964104 45.886269,17.400225 
	C46.370728,18.822956 46.773460,19.900530 47.152939,21.254238 
	C47.368496,22.019032 47.607311,22.507694 47.809296,23.258533 
	C47.835068,23.685736 47.897659,23.850763 47.891430,24.384998 
	C47.892952,25.498438 47.963299,26.242666 47.952774,27.237259 
	C47.902840,27.660267 47.933784,27.832916 47.788139,28.340006 
	C46.775051,30.767569 45.938549,32.860691 44.949841,35.257797 
	C43.519077,36.356239 42.240520,37.150703 40.640636,38.028809 
	C39.539337,38.404823 38.759369,38.697193 37.656975,38.997566 
	C36.849991,39.319656 36.365429,39.633739 35.442211,39.971985 
	C32.428890,39.996143 29.854233,39.996143 28.006762,39.996143 
	C28.006762,42.570740 28.006762,44.794865 27.875168,47.118927 
	C27.743576,47.218864 27.837566,47.535694 27.543148,47.842178 
	C24.808580,48.374748 22.368433,48.600826 19.861740,48.659851 
	C19.659674,48.280231 19.470404,48.140415 19.155783,47.665058 
	C18.984489,46.159794 18.884796,45.062828 18.854446,43.547508 
	C18.899563,41.438061 18.875334,39.746960 19.171728,37.779861 
	C19.282293,32.986084 19.072235,28.468311 18.914261,23.626162 
	C18.915352,22.869431 18.864363,22.437075 18.893408,21.757645 
	C18.930159,21.342947 18.886873,21.175329 18.922499,20.637177 
	C18.948534,19.513939 18.895657,18.761230 18.914860,17.637810 
	C18.937048,16.516853 18.887156,15.766610 18.906208,14.753139 
	C18.930424,14.314108 18.885696,14.138304 18.952585,13.698298 
	C19.388124,12.981277 19.712044,12.528460 20.406956,12.157768 
	C23.508484,12.109385 26.239016,11.978877 29.380651,11.925655 
	C31.179808,11.941426 32.567860,11.879911 33.955914,11.818397 
M32.151337,22.008495 
	C30.551016,22.008495 28.950695,22.008495 27.647955,22.008495 
	C27.865507,25.227032 28.055437,28.036911 28.336658,32.197369 
	C31.936918,30.777596 35.008244,29.788376 37.743027,28.214415 
	C38.095318,28.011662 36.702801,24.777266 35.806652,22.295465 
	C34.866261,22.251589 33.925869,22.207712 32.151337,22.008495 
z"/>
<path fill="#91477E" opacity="1.000000" stroke="none" 
	d="
M41.044910,11.975657 
	C40.698231,10.247267 40.351547,8.518877 40.339573,6.396072 
	C41.114998,5.999431 41.555717,5.997204 42.334946,5.994868 
	C43.449509,5.663526 44.225567,5.332294 45.334206,5.000248 
	C46.110210,4.998051 46.553627,4.996667 47.164276,5.240994 
	C47.886944,5.657871 48.442375,5.829037 49.025917,6.320368 
	C49.379795,7.427526 49.705566,8.214519 50.024117,9.341272 
	C49.994541,10.133885 49.972187,10.586737 49.604301,11.035816 
	C48.178608,11.359574 47.098442,11.687105 45.602875,12.010168 
	C43.806618,11.995687 42.425766,11.985672 41.044910,11.975657 
z"/>
<path fill="#462439" opacity="1.000000" stroke="none" 
	d="
M33.974472,11.437910 
	C32.567860,11.879911 31.179808,11.941426 29.436640,11.602531 
	C29.315460,10.149633 29.549395,9.097143 30.153112,8.031573 
	C31.016232,8.010914 31.509567,8.003335 32.002903,7.995757 
	C32.453480,7.997993 32.904053,8.000230 33.693810,8.004503 
	C34.019669,9.023500 34.006348,10.040462 33.974472,11.437910 
z"/>
<path fill="#89496F" opacity="1.000000" stroke="none" 
	d="
M41.019028,12.281633 
	C42.425766,11.985672 43.806618,11.995687 45.598480,12.342939 
	C46.319759,13.450475 46.630024,14.220772 46.915585,15.306374 
	C46.528767,16.099474 46.166656,16.577272 45.804546,17.055069 
	C44.279594,15.964104 42.754642,14.873139 41.090706,13.491262 
	C40.965527,12.996102 40.979332,12.791856 41.019028,12.281633 
z"/>
<path fill="#7F447A" opacity="1.000000" stroke="none" 
	d="
M41.996437,5.994977 
	C41.555717,5.997204 41.114998,5.999431 40.344040,6.005419 
	C39.762836,5.203792 39.511871,4.398402 39.146027,3.294086 
	C39.775848,2.996150 40.520546,2.997138 41.638401,2.993547 
	C42.011555,2.988968 42.509335,2.994928 42.630722,3.292024 
	C42.500217,4.391072 42.248329,5.193025 41.996437,5.994977 
z"/>
<path fill="#DF8AB9" opacity="1.000000" stroke="none" 
	d="
M58.994812,42.997345 
	C59.237038,44.117989 59.479263,45.238632 59.860931,46.680058 
	C58.340973,48.079823 56.681572,49.158798 54.827141,50.869286 
	C53.754734,51.999577 52.877354,52.498356 51.999969,52.997131 
	C51.832554,52.997120 51.665142,52.997105 51.188560,52.586845 
	C50.372284,51.200394 49.865177,50.224186 49.284370,49.196777 
	C49.210670,49.145569 49.052322,49.033741 49.300404,48.689190 
	C49.773502,46.940151 49.998520,45.535660 50.458908,43.978615 
	C51.104153,43.211174 51.514023,42.596287 52.064728,41.690582 
	C52.464787,40.601856 52.724007,39.803944 53.242470,39.009834 
	C53.674553,39.012634 53.847393,39.011627 54.266071,39.011806 
	C54.511913,39.012989 55.003578,39.018211 55.008530,39.379303 
	C56.340591,40.826046 57.667702,41.911697 58.994812,42.997345 
z"/>
<path fill="#DE83B4" opacity="1.000000" stroke="none" 
	d="
M52.112854,53.256351 
	C52.877354,52.498356 53.754734,51.999577 54.818207,51.249237 
	C55.497303,51.260315 55.990311,51.522953 56.742363,52.268063 
	C57.002003,53.501629 57.002590,54.252720 57.003181,55.003815 
	C56.911919,55.312717 56.738396,55.565033 56.083107,55.617245 
	C55.088493,55.308437 54.493385,55.143150 53.898273,54.977863 
	C53.340763,54.490433 52.783253,54.003002 52.112854,53.256351 
z"/>
<path fill="#DA81B5" opacity="1.000000" stroke="none" 
	d="
M49.358067,49.247982 
	C49.865177,50.224186 50.372284,51.200394 50.937439,52.586433 
	C50.440792,53.168427 49.886101,53.340588 49.163754,53.758076 
	C48.363762,53.570045 47.731426,53.136692 47.143730,51.995827 
	C47.264462,51.029137 47.340557,50.769958 47.442467,50.527653 
	C47.468281,50.544521 47.468002,50.469696 47.780060,50.500710 
	C48.352108,50.233280 48.612091,49.934834 48.982285,49.525154 
	C49.092487,49.413921 49.358067,49.247982 49.358067,49.247982 
z"/>
<path fill="#B46690" opacity="1.000000" stroke="none" 
	d="
M53.924870,55.352104 
	C54.493385,55.143150 55.088493,55.308437 55.876266,55.724003 
	C56.321491,56.482643 56.574059,56.991009 56.925339,57.768456 
	C56.279606,58.022732 55.535152,58.007919 54.420197,57.981857 
	C54.016953,57.222519 53.984211,56.474430 53.924870,55.352104 
z"/>
<path fill="#685493" opacity="1.000000" stroke="none" 
	d="
M37.966763,58.702789 
	C37.805851,58.753574 37.644939,58.804356 37.238091,58.915085 
	C36.027969,57.875355 35.063782,56.775681 34.048759,55.337097 
	C33.997917,54.998196 33.979267,54.977486 34.279560,54.861473 
	C35.387127,54.496513 36.194405,54.247570 37.108616,54.257942 
	C37.477036,55.012115 37.738518,55.506973 38.000786,56.333412 
	C38.002674,57.107121 38.003769,57.549244 37.995140,58.169212 
	C37.985413,58.347057 37.966763,58.702789 37.966763,58.702789 
z"/>
<path fill="#594172" opacity="1.000000" stroke="none" 
	d="
M33.998936,54.999161 
	C33.251038,55.000111 32.502121,55.000095 31.376158,54.752327 
	C30.999109,54.504574 30.987421,54.009750 30.996725,53.753735 
	C31.012148,53.327122 31.018267,53.156521 31.279381,52.806427 
	C32.350563,52.077808 33.166744,51.528687 33.987530,51.379684 
	C33.987846,52.845695 33.983555,53.911591 33.979267,54.977486 
	C33.979267,54.977486 33.997917,54.998196 33.998936,54.999161 
z"/>
<path fill="#67589B" opacity="1.000000" stroke="none" 
	d="
M30.987421,54.009750 
	C30.987421,54.009750 30.999109,54.504574 31.002762,54.752029 
	C30.570103,55.963474 30.133793,56.927464 29.354395,57.944954 
	C29.005749,57.557747 29.000191,57.117035 28.996735,56.017723 
	C29.002625,54.922165 29.006413,54.485210 29.339544,54.034855 
	C30.108398,54.017551 30.547911,54.013649 30.987421,54.009750 
z"/>
<path fill="#DD68B8" opacity="1.000000" stroke="none" 
	d="
M8.145370,57.886875 
	C7.666675,57.907635 7.187979,57.928394 6.350407,57.972263 
	C5.640888,56.913612 5.290246,55.831848 4.900655,54.407616 
	C5.150481,53.583038 5.439254,53.100925 6.095819,52.338875 
	C6.463610,52.058937 6.959427,52.013657 7.002278,52.359379 
	C7.629389,54.158169 8.213650,55.611240 8.797911,57.064308 
	C8.797910,57.064308 8.730674,57.436127 8.582045,57.651161 
	C8.433414,57.866196 8.145370,57.886875 8.145370,57.886875 
z"/>
<path fill="#62508D" opacity="1.000000" stroke="none" 
	d="
M38.000000,56.001831 
	C37.738518,55.506973 37.477036,55.012115 37.483425,54.258244 
	C38.501019,53.999290 39.250736,53.999359 40.375935,53.999722 
	C41.503334,53.997768 42.255257,53.995518 43.284256,54.007362 
	C44.031910,54.260925 44.502483,54.500397 44.973061,54.739868 
	C44.390266,55.315582 43.807476,55.891300 43.116150,56.757294 
	C42.608833,57.073082 42.210056,57.098595 41.195618,56.986992 
	C39.719971,56.567196 38.859985,56.284512 38.000000,56.001831 
z"/>
<path fill="#4F3D69" opacity="1.000000" stroke="none" 
	d="
M45.251667,54.600426 
	C44.502483,54.500397 44.031910,54.260925 43.280739,53.649471 
	C42.982807,52.563602 42.965473,51.849709 42.972752,50.854774 
	C43.008434,50.385983 43.019505,50.198231 43.379501,50.009636 
	C44.419525,49.995613 45.110622,49.982433 45.835361,50.320087 
	C45.973431,51.126640 46.077858,51.582363 46.182289,52.038082 
	C45.964951,52.845715 45.747612,53.653351 45.251667,54.600426 
z"/>
<path fill="#BB6FAF" opacity="1.000000" stroke="none" 
	d="
M46.387886,52.049072 
	C46.077858,51.582363 45.973431,51.126640 45.884727,50.345047 
	C45.900455,50.019176 46.006420,50.017109 46.482380,50.032555 
	C47.275768,50.041985 47.593193,50.035973 47.835087,50.199440 
	C47.759560,50.368916 47.416656,50.510784 47.416656,50.510784 
	C47.340557,50.769958 47.264462,51.029137 47.096584,51.683949 
	C47.004803,52.079586 46.593483,52.060062 46.387886,52.049072 
z"/>
<path fill="#A061B3" opacity="1.000000" stroke="none" 
	d="
M6.959427,52.013657 
	C6.959427,52.013657 6.463610,52.058937 6.215713,52.086494 
	C5.818222,51.228405 5.668628,50.342758 5.148616,48.969120 
	C4.186450,47.985035 3.594702,47.488937 3.002953,46.992840 
	C2.998080,46.815456 2.993207,46.638069 2.995884,46.193886 
	C3.003434,45.927090 2.996064,45.757164 3.316159,45.780258 
	C4.043785,45.830372 4.451317,45.857388 5.212228,45.925514 
	C6.037908,45.981728 6.510207,45.996830 7.208114,46.118515 
	C7.717391,46.419884 7.921044,46.677853 8.053131,47.296494 
	C8.374411,48.062889 8.687236,48.531792 9.249137,49.001762 
	C9.498213,49.002831 9.996359,49.005882 9.977129,49.260071 
	C9.957552,49.684200 9.957205,49.854145 9.763712,50.263931 
	C8.700187,51.007069 7.829807,51.510365 6.959427,52.013657 
z"/>
<path fill="#CF72C9" opacity="1.000000" stroke="none" 
	d="
M3.004113,47.320721 
	C3.594702,47.488937 4.186450,47.985035 4.883789,48.759422 
	C4.328011,48.574680 3.666641,48.111641 3.004113,47.320721 
z"/>
<path fill="#D384AC" opacity="1.000000" stroke="none" 
	d="
M57.244450,55.003258 
	C57.002590,54.252720 57.002003,53.501629 57.001091,52.375038 
	C57.556103,52.169918 58.111443,52.340290 58.834240,52.756054 
	C58.995857,53.431221 58.990017,53.861000 58.725807,54.632069 
	C58.301041,54.983242 58.134651,54.993122 57.968262,55.003006 
	C57.968262,55.003006 57.485718,55.002701 57.244450,55.003258 
z"/>
<path fill="#B95BAA" opacity="1.000000" stroke="none" 
	d="
M53.007973,4.009998 
	C53.007973,4.009998 53.500538,4.005175 53.746704,4.000172 
	C54.317307,4.464067 54.641743,4.932966 54.982178,6.076101 
	C54.990200,7.501713 54.982224,8.253088 54.604248,9.002306 
	C53.493145,9.001013 52.752037,9.001877 52.007992,8.751173 
	C52.002613,8.331899 52.000172,8.164193 52.001469,7.646524 
	C52.339458,6.201041 52.673714,5.105520 53.007973,4.009998 
z"/>
<path fill="#A4549D" opacity="1.000000" stroke="none" 
	d="
M54.974251,9.004463 
	C54.982224,8.253088 54.990200,7.501713 55.006226,6.374673 
	C55.454788,5.997463 55.895306,5.995918 56.924416,5.997424 
	C57.685036,6.004541 57.857063,6.008607 58.029091,6.012673 
	C57.698029,7.067777 57.366970,8.122881 57.016300,9.796122 
	C56.991329,10.600214 56.985962,10.786171 56.728096,10.975062 
	C56.307281,10.981145 56.138969,10.984292 55.756104,10.877586 
	C55.276699,10.564691 55.094528,10.303878 54.994225,9.739994 
	C54.993404,9.494693 54.974251,9.004463 54.974251,9.004463 
z"/>
<path fill="#9D5FA4" opacity="1.000000" stroke="none" 
	d="
M58.273922,6.010184 
	C57.857063,6.008607 57.685036,6.004541 57.254940,5.995026 
	C57.802250,5.409058 58.607624,4.828538 59.693260,4.129393 
	C59.973522,4.010767 60.002598,4.509130 60.012184,4.758652 
	C59.900867,5.321968 59.707024,5.581213 59.224281,5.902084 
	C59.008327,6.018259 58.518753,6.007696 58.273922,6.010184 
z"/>
<path fill="#38233E" opacity="1.000000" stroke="none" 
	d="
M8.025684,36.935677 
	C7.527599,36.374153 7.029515,35.812626 6.282968,34.728615 
	C6.027717,33.467041 6.020928,32.727959 6.362990,31.989201 
	C7.806114,32.327282 8.900387,32.665039 10.045343,33.304596 
	C10.762913,34.330105 11.429796,35.053806 11.745543,35.843529 
	C10.271499,36.251591 9.148591,36.593636 8.025684,36.935677 
z"/>
<path fill="#4F3D69" opacity="1.000000" stroke="none" 
	d="
M8.110312,37.209812 
	C9.148591,36.593636 10.271499,36.251591 11.971310,35.896015 
	C12.548214,35.882481 12.996243,36.001270 12.994296,36.375439 
	C12.996051,37.497795 12.999752,38.245983 12.627371,38.997169 
	C11.499030,39.011364 10.746771,39.022560 9.741341,39.024246 
	C9.319298,39.011784 9.150424,39.008831 8.981549,39.005882 
	C8.719346,38.498569 8.457143,37.991261 8.110312,37.209812 
z"/>
<path fill="#50365D" opacity="1.000000" stroke="none" 
	d="
M6.014140,31.988873 
	C6.020928,32.727959 6.027717,33.467041 6.041488,34.574123 
	C5.105941,34.755905 4.163412,34.569691 2.971646,34.101303 
	C2.858367,33.326672 2.994325,32.834213 3.730175,32.140877 
	C4.891425,31.956295 5.452782,31.972584 6.014140,31.988873 
z"/>
<path fill="#5E4E89" opacity="1.000000" stroke="none" 
	d="
M8.609045,39.004616 
	C9.150424,39.008831 9.319298,39.011784 9.742840,39.352077 
	C9.997691,40.127487 9.997872,40.565552 9.679673,41.026310 
	C8.575830,41.362160 7.790367,41.675316 7.004903,41.988472 
	C6.686038,41.204456 6.367172,40.420444 6.023984,39.318062 
	C6.745288,39.000916 7.490915,39.002136 8.609045,39.004616 
z"/>
<path fill="#4D2841" opacity="1.000000" stroke="none" 
	d="
M32.002106,7.587828 
	C31.509567,8.003335 31.016232,8.010914 30.033501,7.687887 
	C29.477821,5.917548 29.411537,4.477814 29.345255,3.038080 
	C29.603701,2.884554 29.795811,2.671270 30.002888,2.195467 
	C30.723232,3.721770 31.362272,5.450834 32.002106,7.587828 
z"/>
<path fill="#C16C9A" opacity="1.000000" stroke="none" 
	d="
M58.136410,55.258171 
	C58.134651,54.993122 58.301041,54.983242 58.716427,54.954311 
	C59.238655,55.140423 59.511887,55.345585 59.903099,55.780968 
	C59.448906,55.845234 58.876732,55.679283 58.136410,55.258171 
z"/>
<path fill="#AB8BBD" opacity="1.000000" stroke="none" 
	d="
M3.041960,16.318819 
	C2.999038,15.553972 3.001066,15.109947 3.003119,14.332876 
	C3.670754,12.569276 4.338364,11.138720 5.378520,9.347467 
	C6.497026,8.009007 7.242986,7.031244 8.295691,6.170833 
	C9.738085,6.859010 10.873735,7.429836 12.045973,8.194371 
	C12.082560,8.388081 12.101406,8.781898 12.065936,9.084824 
	C12.018664,9.589725 12.006864,9.791702 11.728742,10.182934 
	C10.973096,11.575211 10.483770,12.778231 9.665674,13.990817 
	C5.271264,14.493670 8.478393,15.893422 8.663830,17.024727 
	C7.948845,17.165762 7.538730,17.236624 6.740626,17.214748 
	C5.303345,17.173590 4.254052,17.225166 3.204759,17.276743 
	C3.165476,17.064375 3.126193,16.852007 3.041960,16.318819 
z"/>
<path fill="#C180BA" opacity="1.000000" stroke="none" 
	d="
M7.988946,6.053481 
	C7.242986,7.031244 6.497026,8.009007 5.384980,8.996420 
	C4.555020,8.684629 4.091145,8.363191 3.333326,8.019838 
	C3.346007,6.907040 3.652632,5.816155 3.997403,4.385459 
	C5.121350,4.041695 6.207151,4.037743 7.663682,4.387550 
	C8.019256,5.178700 8.004101,5.616090 7.988946,6.053481 
z"/>
<path fill="#8A4481" opacity="1.000000" stroke="none" 
	d="
M55.970657,10.987440 
	C56.138969,10.984292 56.307281,10.981145 56.887283,11.221478 
	C57.836609,11.653025 58.374249,11.841089 58.911892,12.029154 
	C58.924599,12.465286 58.937302,12.901420 58.936142,13.664576 
	C58.633976,14.212306 58.345680,14.433011 57.627716,14.844971 
	C56.468460,14.692216 55.738880,14.348208 55.019573,13.683226 
	C55.343452,12.570647 55.657055,11.779043 55.970657,10.987440 
z"/>
<path fill="#874F94" opacity="1.000000" stroke="none" 
	d="
M58.907951,11.700160 
	C58.374249,11.841089 57.836609,11.653025 57.139778,11.218544 
	C56.985962,10.786171 56.991329,10.600214 57.011097,10.133966 
	C57.651672,10.359507 58.277840,10.865336 58.907951,11.700160 
z"/>
<path fill="#8970B6" opacity="1.000000" stroke="none" 
	d="
M8.295691,6.170833 
	C8.004101,5.616090 8.019256,5.178700 8.070630,4.416825 
	C8.817837,3.800205 9.528826,3.508069 10.816784,3.109754 
	C11.601035,3.003256 11.808316,3.002938 12.015597,3.002620 
	C12.015597,3.002620 12.000629,3.002951 11.997302,2.995282 
	C12.459687,3.587948 12.925400,4.188282 13.532706,5.201711 
	C13.119328,6.410091 12.564357,7.205377 12.009384,8.000662 
	C10.873735,7.429836 9.738085,6.859010 8.295691,6.170833 
z"/>
<path fill="#755497" opacity="1.000000" stroke="none" 
	d="
M11.925581,2.789557 
	C11.808316,3.002938 11.601035,3.003256 11.081847,2.983367 
	C10.769940,2.963161 10.908433,2.514749 10.993393,2.296355 
	C11.393235,2.149235 11.645639,2.315412 11.925581,2.789557 
z"/>
<path fill="#382D60" opacity="1.000000" stroke="none" 
	d="
M3.899713,27.321960 
	C3.775396,26.231297 3.764407,25.492849 3.901814,24.036873 
	C5.368470,22.870569 6.686729,22.421793 8.008135,22.224817 
	C8.036408,22.642424 8.061534,22.808226 8.070862,23.312809 
	C8.371996,24.437847 8.688926,25.224106 8.921383,26.258221 
	C8.875829,27.313395 8.914748,28.120708 8.572241,28.938110 
	C6.933514,28.994734 5.676214,29.041271 4.418913,29.087809 
	C4.283623,28.616598 4.148332,28.145386 3.899713,27.321960 
z"/>
<path fill="#25172B" opacity="1.000000" stroke="none" 
	d="
M4.335461,29.457321 
	C5.676214,29.041271 6.933514,28.994734 8.745914,29.198421 
	C9.877934,29.643700 10.454851,29.838751 11.022264,30.273170 
	C11.012760,30.512535 10.997946,30.991415 10.781043,31.096706 
	C10.291662,31.397795 10.112510,31.657877 10.019165,32.237400 
	C10.005985,32.662632 10.000322,32.832714 9.994659,33.002796 
	C8.900387,32.665039 7.806114,32.327282 6.362990,31.989199 
	C5.452782,31.972584 4.891425,31.956295 3.905284,31.953005 
	C3.737670,31.252947 3.994840,30.539888 4.335461,29.457321 
z"/>
<path fill="#695293" opacity="1.000000" stroke="none" 
	d="
M29.010201,54.048260 
	C29.006413,54.485210 29.002625,54.922165 28.995506,55.687141 
	C27.779736,56.466759 26.567299,56.918346 25.201269,57.670277 
	C24.590097,57.977764 24.132517,57.984909 23.332106,57.998020 
	C22.989664,57.819439 22.990057,57.634892 23.016945,57.010468 
	C23.043444,56.570591 23.066240,56.240665 23.057838,55.922043 
	C23.032818,55.391579 23.016201,55.179741 23.324551,54.946259 
	C24.768993,54.280365 25.888470,53.636112 27.255043,53.030479 
	C27.668129,53.084743 27.834124,53.100384 28.118837,53.318558 
	C28.448151,53.765579 28.705700,53.941303 29.010201,54.048260 
z"/>
<path fill="#745A9E" opacity="1.000000" stroke="none" 
	d="
M8.044678,46.998997 
	C7.921044,46.677853 7.717391,46.419884 7.172438,45.792114 
	C6.264956,44.879349 5.618759,44.399563 4.971168,43.687828 
	C4.969774,43.455875 4.956129,42.992157 4.956129,42.992157 
	C5.128082,42.983643 5.300036,42.975128 6.074200,43.007683 
	C7.776509,43.370487 8.876610,43.692215 9.976713,44.367054 
	C9.952494,45.190639 9.928272,45.661118 9.713566,46.224449 
	C9.287835,46.495644 9.130018,46.726891 8.798405,47.007042 
	C8.379678,47.001694 8.212178,47.000343 8.044678,46.998997 
z"/>
<path fill="#685596" opacity="1.000000" stroke="none" 
	d="
M9.976711,44.013943 
	C8.876610,43.692215 7.776509,43.370487 6.332386,43.002113 
	C6.103080,42.642776 6.296986,42.391083 6.787492,42.094437 
	C7.790367,41.675316 8.575830,41.362160 9.680096,41.402382 
	C9.991502,42.508488 9.984107,43.261215 9.976711,44.013943 
z"/>
<path fill="#685596" opacity="1.000000" stroke="none" 
	d="
M4.736352,42.987389 
	C4.956129,42.992157 4.969774,43.455875 4.959056,44.017460 
	C4.918508,45.014164 4.888678,45.449287 4.858848,45.884407 
	C4.451317,45.857388 4.043785,45.830372 3.346073,45.700653 
	C3.226543,44.839066 3.397196,44.080177 3.822472,43.145706 
	C4.077096,42.970119 4.516575,42.982624 4.736352,42.987389 
z"/>
<path fill="#A581A3" opacity="1.000000" stroke="none" 
	d="
M58.905502,29.969036 
	C58.485420,30.563482 58.065342,31.157928 57.361702,31.644108 
	C57.046944,31.343527 57.015736,31.151211 57.001831,30.729664 
	C57.019138,30.500435 56.964638,30.042973 56.965130,29.770561 
	C56.925987,29.320921 56.886353,29.143690 56.768333,28.745119 
	C56.501591,28.266941 56.269356,28.059126 55.994667,27.558811 
	C56.004890,26.535881 56.013695,25.854471 56.348988,25.142635 
	C57.112431,25.104700 57.549393,25.097191 57.992928,25.424908 
	C58.317982,26.815012 58.636459,27.869890 58.944519,29.185928 
	C58.924564,29.621069 58.915035,29.795053 58.905502,29.969036 
z"/>
<path fill="#BFABBA" opacity="1.000000" stroke="none" 
	d="
M58.013092,34.689819 
	C58.028320,35.152691 58.019531,35.321007 57.900131,35.961964 
	C57.590061,36.710323 57.327568,36.897797 56.978481,36.694092 
	C56.379635,35.633389 55.804344,34.875610 55.382912,33.877708 
	C56.049072,33.421520 56.561375,33.205456 57.073681,32.989388 
	C57.378811,33.458015 57.683945,33.926636 58.013092,34.689819 
z"/>
<path fill="#538788" opacity="1.000000" stroke="none" 
	d="
M57.073814,32.763100 
	C56.561375,33.205456 56.049072,33.421520 55.080376,33.855064 
	C54.424129,34.046719 54.224285,34.020893 54.022015,33.623871 
	C55.007904,32.488079 55.996212,31.723486 56.984524,30.958893 
	C57.015736,31.151211 57.046944,31.343527 57.145126,31.820839 
	C57.212105,32.105839 57.073952,32.536816 57.073814,32.763100 
z"/>
<path fill="#DB9ABE" opacity="1.000000" stroke="none" 
	d="
M59.145184,29.883198 
	C58.915035,29.795053 58.924564,29.621069 59.193996,29.197197 
	C59.453899,28.947306 59.952229,28.950905 59.952229,28.950905 
	C59.952229,28.950905 59.984486,28.984991 60.000198,29.002827 
	C59.805565,29.279562 59.595215,29.538458 59.145184,29.883198 
z"/>
<path fill="#72589F" opacity="1.000000" stroke="none" 
	d="
M7.002278,52.359379 
	C7.829807,51.510365 8.700187,51.007069 10.109923,50.289368 
	C12.085028,51.071526 13.520775,52.068092 14.965909,53.457970 
	C14.981286,54.900276 14.987275,55.949272 14.993265,56.998264 
	C14.672688,57.457336 14.352109,57.916409 14.004396,58.667458 
	C13.540142,58.970726 13.103023,58.982018 12.337973,58.997276 
	C11.168838,58.353748 10.327631,57.706261 9.142168,57.061539 
	C8.213650,55.611240 7.629389,54.158169 7.002278,52.359379 
z"/>
<path fill="#695293" opacity="1.000000" stroke="none" 
	d="
M15.319009,57.026554 
	C14.987275,55.949272 14.981286,54.900276 14.976068,53.441582 
	C14.976839,53.031879 15.002988,53.005600 15.375523,53.013081 
	C16.492451,53.055737 17.236843,53.090916 18.127609,53.334846 
	C18.732841,53.732822 19.191700,53.922047 19.714567,54.119026 
	C19.778576,54.126778 19.904774,54.100262 19.911976,54.421333 
	C19.980591,55.166058 20.042007,55.589710 20.103420,56.013363 
	C20.022627,56.757469 19.941833,57.501572 19.594330,58.621555 
	C19.327620,58.997433 18.969168,59.031277 18.969168,59.031277 
	C17.861029,58.372467 16.752892,57.713654 15.319009,57.026554 
z"/>
<path fill="#62508D" opacity="1.000000" stroke="none" 
	d="
M18.975100,59.260525 
	C18.969168,59.031277 19.327620,58.997433 19.504498,58.984852 
	C19.728497,59.290981 19.626348,59.551041 19.179405,59.850437 
	C18.983871,59.948418 18.981031,59.489773 18.975100,59.260525 
z"/>
<path fill="#E48DBE" opacity="1.000000" stroke="none" 
	d="
M58.996716,42.664680 
	C57.667702,41.911697 56.340591,40.826046 55.341095,39.371918 
	C56.112324,39.001240 56.555935,38.999043 56.999542,38.996845 
	C57.488163,39.584625 57.976784,40.172405 58.731674,40.880737 
	C58.998165,41.444870 58.998390,41.888443 58.996716,42.664680 
z"/>
<path fill="#432A4A" opacity="1.000000" stroke="none" 
	d="
M20.438404,56.012215 
	C20.042007,55.589710 19.980591,55.166058 20.259516,54.386539 
	C21.399765,54.343086 22.199675,54.655495 22.999584,54.967903 
	C23.016201,55.179741 23.032818,55.391579 22.823355,55.855568 
	C22.597273,56.107716 22.116165,56.050426 22.116165,56.050423 
	C21.668573,56.037304 21.220980,56.024185 20.438404,56.012215 
z"/>
<path fill="#6A4B82" opacity="1.000000" stroke="none" 
	d="
M22.206116,56.253059 
	C22.116165,56.050426 22.597273,56.107716 22.831757,56.174191 
	C23.066240,56.240665 23.043444,56.570591 23.040312,56.734634 
	C22.718369,56.870945 22.471331,56.723282 22.206116,56.253059 
z"/>
<path fill="#6D5798" opacity="1.000000" stroke="none" 
	d="
M38.000786,56.333412 
	C38.859985,56.284512 39.719971,56.567196 40.896145,56.999092 
	C41.077045,57.462795 40.864948,57.711868 39.988525,57.952332 
	C38.935623,58.003208 38.470245,57.997292 38.004864,57.991371 
	C38.003769,57.549244 38.002674,57.107121 38.000786,56.333412 
z"/>
<path fill="#70589A" opacity="1.000000" stroke="none" 
	d="
M37.995140,58.169212 
	C38.470245,57.997292 38.935623,58.003208 39.751160,58.025024 
	C39.942192,58.339813 39.720760,58.581650 39.217247,58.880867 
	C38.823624,58.955189 38.649765,58.915073 38.221336,58.788876 
	C37.966763,58.702789 37.985413,58.347057 37.995140,58.169212 
z"/>
<path fill="#52418B" opacity="1.000000" stroke="none" 
	d="
M12.045972,8.194371 
	C12.564357,7.205377 13.119328,6.410091 13.785688,5.342998 
	C14.375240,4.724544 14.853403,4.377900 15.707813,4.364987 
	C16.395613,6.135540 16.707163,7.572362 16.988682,8.985788 
	C16.958649,8.962393 16.884319,8.948119 16.560215,8.964054 
	C15.802235,9.003304 15.368360,9.026621 14.597542,9.056413 
	C14.036040,9.055747 13.811482,9.048606 13.423788,9.117597 
	C13.260653,9.193727 12.905905,9.255291 12.724448,9.103518 
	C12.542992,8.951746 12.101406,8.781898 12.101406,8.781898 
	C12.101406,8.781898 12.082560,8.388081 12.045972,8.194371 
z"/>
<path fill="#2E254F" opacity="1.000000" stroke="none" 
	d="
M17.018715,9.009184 
	C16.707163,7.572362 16.395613,6.135540 16.010777,4.334582 
	C16.128866,3.672236 16.320240,3.374027 16.737328,2.930022 
	C17.439581,3.240936 17.916124,3.697643 18.637569,4.054655 
	C18.940430,4.148380 18.998390,4.341800 19.122547,5.162243 
	C19.493692,6.874943 19.798641,7.960621 19.758533,9.030418 
	C18.953951,9.015649 18.494429,9.016760 17.780678,9.012242 
	C17.357206,9.007471 17.187960,9.008327 17.018715,9.009184 
z"/>
<path fill="#AF59A6" opacity="1.000000" stroke="none" 
	d="
M8.097679,58.153625 
	C8.145370,57.886875 8.433414,57.866196 8.572695,57.839851 
	C8.771632,57.999989 8.831290,58.186470 8.920774,58.664574 
	C8.950599,58.956196 8.490932,58.970688 8.261396,58.966362 
	C8.037902,58.781490 8.043944,58.600937 8.097679,58.153625 
z"/>
<path fill="#B678A5" opacity="1.000000" stroke="none" 
	d="
M56.961796,18.971909 
	C57.437225,19.316889 57.912655,19.661867 58.693325,20.059444 
	C58.734398,20.580095 58.470230,21.048151 57.766590,21.800285 
	C56.552025,23.057266 55.776932,24.030170 54.780773,25.000893 
	C54.559708,24.998713 54.117714,24.988705 54.057304,24.597641 
	C53.942219,23.153526 53.887543,22.100479 54.001633,20.805695 
	C54.460609,20.061056 54.750816,19.558151 55.360832,19.030151 
	C56.107693,18.994009 56.534744,18.982958 56.961796,18.971909 
z"/>
<path fill="#D684B8" opacity="1.000000" stroke="none" 
	d="
M55.001839,25.003075 
	C55.776932,24.030170 56.552025,23.057266 57.667694,22.052223 
	C58.339470,22.789358 58.670673,23.558632 58.999214,24.664074 
	C58.996552,25.000242 58.998207,25.005440 58.743790,25.017902 
	C58.321697,25.050137 58.154022,25.069908 57.986351,25.089682 
	C57.549393,25.097191 57.112431,25.104700 56.095432,25.088451 
	C55.344212,25.044153 55.173027,25.023615 55.001839,25.003075 
z"/>
<path fill="#6651AC" opacity="1.000000" stroke="none" 
	d="
M8.004988,21.973015 
	C6.686729,22.421793 5.368470,22.870569 3.900261,23.666904 
	C3.534160,23.521402 3.318008,23.028343 3.046634,22.260944 
	C2.991556,21.501850 2.991701,21.017099 2.971197,20.165291 
	C3.093474,19.109829 3.236400,18.421423 3.292043,17.504879 
	C4.254052,17.225166 5.303345,17.173590 6.729759,17.377274 
	C7.106879,17.632536 7.092217,17.962376 7.168772,18.191582 
	C7.431496,18.706970 7.691511,18.885870 8.248436,19.070284 
	C8.747595,19.391058 8.936742,19.660156 8.786663,20.152136 
	C8.357921,20.866934 8.181455,21.419975 8.004988,21.973015 
z"/>
<path fill="#65355A" opacity="1.000000" stroke="none" 
	d="
M56.986687,18.668213 
	C56.534744,18.982958 56.107693,18.994009 55.191917,18.777271 
	C54.136375,18.370541 53.569565,18.191599 53.001373,17.642513 
	C52.992760,16.534431 52.985527,15.796491 53.197166,14.961522 
	C53.697777,14.691381 53.903732,14.452842 54.275940,14.100416 
	C54.517960,14.051960 55.009296,14.004200 55.009296,14.004200 
	C55.738880,14.348208 56.468460,14.692216 57.492207,15.085905 
	C58.052944,15.202244 58.276333,15.339186 58.531338,15.726421 
	C58.074615,16.725792 57.543095,17.545155 56.986687,18.668213 
z"/>
<path fill="#010101" opacity="1.000000" stroke="none" 
	d="
M20.103592,9.046299 
	C19.798641,7.960621 19.493692,6.874943 19.210442,5.452088 
	C20.131229,4.685579 21.030315,4.256247 22.005262,3.514886 
	C22.361214,3.001538 22.641306,2.800217 23.069353,2.384831 
	C25.003494,2.367284 26.789677,2.563803 28.960558,2.899200 
	C29.411537,4.477814 29.477821,5.917548 29.663715,7.700968 
	C29.549395,9.097143 29.315460,10.149633 29.025537,11.525246 
	C26.239016,11.978877 23.508484,12.109385 20.411846,11.778791 
	C20.065027,10.560559 20.084311,9.803429 20.103592,9.046299 
z"/>
<path fill="#A7539A" opacity="1.000000" stroke="none" 
	d="
M52.753323,4.004009 
	C52.673714,5.105520 52.339458,6.201041 51.745972,7.753656 
	C51.001610,8.474338 50.516472,8.737925 50.031338,9.001512 
	C49.705566,8.214519 49.379795,7.427526 49.031750,5.991301 
	C49.017715,4.903668 49.025955,4.465270 49.034191,4.026870 
	C49.773144,4.017363 50.512096,4.007856 51.620209,3.992131 
	C52.159138,3.989949 52.328907,3.993985 52.753323,4.004009 
z"/>
<path fill="#8B4983" opacity="1.000000" stroke="none" 
	d="
M49.022491,3.771369 
	C49.025955,4.465270 49.017715,4.903668 49.003643,5.671135 
	C48.442375,5.829037 47.886944,5.657871 47.165062,4.907658 
	C46.999187,3.883901 46.999760,3.439192 47.000328,2.994483 
	C47.000328,2.994483 46.996960,2.998295 46.991814,2.989947 
	C47.433941,2.988051 47.881214,2.994503 48.663830,3.002708 
	C49.003044,3.174930 49.006920,3.345399 49.022491,3.771369 
z"/>
<path fill="#89487F" opacity="1.000000" stroke="none" 
	d="
M42.334946,5.994868 
	C42.248329,5.193025 42.500217,4.391072 42.879604,3.295342 
	C43.174416,3.000485 43.341728,2.999407 43.857086,3.265048 
	C44.470627,4.021532 44.736126,4.511296 45.001621,5.001060 
	C44.225567,5.332294 43.449509,5.663526 42.334946,5.994868 
z"/>
<path fill="#955191" opacity="1.000000" stroke="none" 
	d="
M45.334206,5.000248 
	C44.736126,4.511296 44.470627,4.021532 44.108017,3.269766 
	C44.010902,3.007764 44.000465,2.998893 44.247723,2.993419 
	C44.494980,2.987945 44.990746,2.954881 44.990746,2.954881 
	C45.437298,2.964423 45.883854,2.973965 46.665367,2.988995 
	C46.999760,3.439192 46.999187,3.883901 46.997833,4.661946 
	C46.553627,4.996667 46.110210,4.998051 45.334206,5.000248 
z"/>
<path fill="#714B83" opacity="1.000000" stroke="none" 
	d="
M44.898445,2.795132 
	C44.990746,2.954881 44.494980,2.987945 44.246555,2.988193 
	C44.267467,2.870755 44.536804,2.753069 44.898445,2.795132 
z"/>
<path fill="#D79BBD" opacity="1.000000" stroke="none" 
	d="
M56.999401,38.746880 
	C56.555935,38.999043 56.112324,39.001240 55.336147,39.010826 
	C55.003578,39.018211 54.511913,39.012989 54.262947,38.675091 
	C53.835545,37.305382 53.657104,36.273571 53.456856,34.998688 
	C53.539402,34.430759 53.735867,34.177246 54.024437,33.995071 
	C54.224285,34.020893 54.424129,34.046719 54.926514,34.095184 
	C55.804344,34.875610 56.379635,35.633389 56.977264,36.944099 
	C56.999599,37.497028 57.000000,37.996971 57.000000,37.996971 
	C57.000000,37.996971 56.999260,38.496910 56.999401,38.746880 
z"/>
<path fill="#CAA3B8" opacity="1.000000" stroke="none" 
	d="
M57.331741,37.998520 
	C57.000000,37.996971 56.999599,37.497028 57.000816,37.247025 
	C57.327568,36.897797 57.590061,36.710323 57.899071,36.214779 
	C58.323929,36.463966 58.639240,36.932980 58.972298,37.698784 
	C58.547859,37.997078 58.105675,37.998569 57.331741,37.998520 
z"/>
<path fill="#AB85A8" opacity="1.000000" stroke="none" 
	d="
M57.992928,25.424908 
	C58.154022,25.069908 58.321697,25.050137 58.742485,25.023289 
	C59.323338,25.802366 59.651073,26.588518 60.013947,27.694950 
	C60.049080,28.015232 59.986633,28.482286 59.969429,28.716595 
	C59.952229,28.950905 59.453899,28.947306 59.204422,28.936039 
	C58.636459,27.869890 58.317982,26.815012 57.992928,25.424908 
z"/>
<path fill="#010000" opacity="1.000000" stroke="none" 
	d="
M36.118534,22.947226 
	C36.702801,24.777266 38.095318,28.011662 37.743027,28.214415 
	C35.008244,29.788376 31.936918,30.777596 28.336658,32.197369 
	C28.055437,28.036911 27.865507,25.227032 27.647955,22.008495 
	C28.950695,22.008495 30.551016,22.008495 32.613503,22.363867 
	C34.089958,22.795233 35.104248,22.871229 36.118534,22.947226 
z"/>
<path fill="#467172" opacity="1.000000" stroke="none" 
	d="
M54.022015,33.623871 
	C53.735867,34.177246 53.539402,34.430759 53.120884,35.011589 
	C52.243526,35.904358 51.680332,36.541157 50.769684,37.139347 
	C49.959286,37.049690 49.496349,36.998646 48.880081,36.643745 
	C47.518517,35.877861 46.310284,35.415836 45.102051,34.953815 
	C45.938549,32.860691 46.775051,30.767569 48.052021,28.333439 
	C48.668217,27.983368 48.843945,27.974304 49.389568,27.967541 
	C50.499256,27.967312 51.239044,27.964785 52.368641,27.975933 
	C53.538944,27.968880 54.319443,27.948149 55.323620,27.932278 
	C55.547298,27.937140 55.993248,27.900333 55.993248,27.900333 
	C56.269356,28.059126 56.501591,28.266941 56.623833,28.860989 
	C56.693356,29.479790 56.828995,29.761381 56.964638,30.042973 
	C56.964638,30.042973 57.019138,30.500435 57.001831,30.729664 
	C55.996212,31.723486 55.007904,32.488079 54.022015,33.623871 
z"/>
<path fill="#010000" opacity="1.000000" stroke="none" 
	d="
M28.006762,47.018993 
	C28.006762,44.794865 28.006762,42.570740 28.006762,39.996143 
	C29.854233,39.996143 32.428890,39.996143 35.718357,39.992065 
	C36.617710,39.991608 36.802258,39.995224 36.987309,40.418335 
	C37.031555,42.234570 37.075294,43.631310 37.064194,45.259762 
	C37.009354,45.491470 36.991135,45.967342 36.587379,45.972721 
	C34.838680,46.028004 33.493736,46.077908 31.820030,46.100651 
	C31.016315,46.443447 30.541363,46.813408 29.819199,47.282227 
	C29.401011,47.428753 29.230034,47.476421 28.780880,47.429283 
	C28.337389,47.229317 28.172075,47.124153 28.006762,47.018993 
z"/>
<path fill="#62576D" opacity="1.000000" stroke="none" 
	d="
M51.978836,27.962255 
	C51.239044,27.964785 50.499256,27.967312 49.278889,27.756104 
	C48.600739,27.278330 48.345848,27.093172 48.033646,26.986897 
	C47.963299,26.242666 47.892952,25.498438 48.122646,24.276997 
	C48.615726,23.525982 48.808765,23.252176 49.005642,22.653873 
	C49.023540,21.897247 49.037601,21.465118 49.298252,21.017630 
	C49.544838,21.002270 50.038685,20.985619 50.419891,20.985863 
	C51.811687,21.006550 52.822277,21.026989 53.832863,21.047430 
	C53.887543,22.100479 53.942219,23.153526 54.001060,24.841919 
	C53.980679,25.642372 53.956135,25.807484 53.619560,26.021130 
	C52.864628,26.700529 52.421734,27.331392 51.978836,27.962255 
z"/>
<path fill="#322B2D" opacity="1.000000" stroke="none" 
	d="
M37.119034,45.028053 
	C37.075294,43.631310 37.031555,42.234570 37.247696,40.421391 
	C37.680843,40.014328 37.854111,40.023705 38.122978,40.201065 
	C38.475647,40.207233 38.732716,40.045418 38.866692,39.690044 
	C38.506985,39.300217 38.252247,39.131241 37.979401,38.989563 
	C38.759369,38.697193 39.539337,38.404823 40.815495,38.189552 
	C41.556961,38.471737 41.761436,38.711609 41.891983,39.340378 
	C42.088120,40.811901 42.317394,41.929302 42.254227,43.109482 
	C41.308319,44.113949 40.654858,45.055634 39.802826,45.742519 
	C38.775852,45.334496 37.947445,45.181274 37.119034,45.028053 
z"/>
<path fill="#F7F7F7" opacity="1.000000" stroke="none" 
	d="
M18.862179,23.950539 
	C19.072235,28.468311 19.282293,32.986084 18.983891,37.769562 
	C18.475431,38.035267 18.114429,37.929379 18.086636,37.680580 
	C18.000103,37.275536 17.941368,37.119293 17.937737,36.509697 
	C17.948381,32.714546 17.903923,29.372747 17.934887,25.766872 
	C17.957239,25.327568 17.904165,25.152340 17.915276,24.739433 
	C17.979458,24.501759 18.061520,24.016268 18.261562,23.998348 
	C18.461605,23.980427 18.862177,23.950539 18.862179,23.950539 
z"/>
<path fill="#7E8488" opacity="1.000000" stroke="none" 
	d="
M41.925114,38.986259 
	C41.761436,38.711609 41.556961,38.471737 41.136826,38.105907 
	C42.240520,37.150703 43.519077,36.356239 44.949844,35.257797 
	C46.310284,35.415836 47.518517,35.877861 48.629463,36.817226 
	C48.345943,37.858746 48.159706,38.422924 47.645061,38.987862 
	C46.878124,38.990082 46.439598,38.991539 45.807461,38.748257 
	C44.384274,38.664433 43.154694,38.825348 41.925114,38.986259 
z"/>
<path fill="#663555" opacity="1.000000" stroke="none" 
	d="
M50.038685,20.985619 
	C50.038685,20.985619 49.544838,21.002270 49.178421,20.826897 
	C48.266739,20.760384 47.721466,20.869246 47.176197,20.978106 
	C46.773460,19.900530 46.370728,18.822956 45.886269,17.400225 
	C46.166656,16.577272 46.528767,16.099474 47.300400,15.309427 
	C48.476345,15.008100 49.242767,15.019020 50.006332,15.432743 
	C50.011234,16.916872 50.018993,17.998201 50.030518,19.397305 
	C50.035755,20.138592 50.037220,20.562105 50.038685,20.985619 
z"/>
<path fill="#060D22" opacity="1.000000" stroke="none" 
	d="
M19.928286,48.826904 
	C22.368433,48.600826 24.808580,48.374748 27.544109,48.049191 
	C27.839491,47.949715 28.066038,48.296070 28.195129,48.458054 
	C28.541924,48.814690 28.796244,48.925350 29.217316,48.930748 
	C29.347450,48.909481 29.610106,48.933193 29.460070,49.209240 
	C29.229902,49.678814 29.149771,49.872341 28.733776,50.053402 
	C27.952311,50.060730 27.506714,50.080521 26.660004,50.092987 
	C24.131641,50.427094 22.004389,50.768520 19.845140,50.767174 
	C19.871260,49.975178 19.929375,49.525963 20.025997,49.001656 
	C20.064507,48.926563 19.928286,48.826908 19.928286,48.826904 
z"/>
<path fill="#3F406E" opacity="1.000000" stroke="none" 
	d="
M18.785103,43.965862 
	C18.884796,45.062828 18.984489,46.159794 19.081707,47.625183 
	C19.079229,47.993607 18.914223,47.960712 18.644543,47.865517 
	C17.271948,47.836407 16.169031,47.902496 15.057018,47.981110 
	C15.047922,47.993637 15.035042,47.966400 15.171062,47.648666 
	C15.515274,46.212933 15.723463,45.094940 16.159765,43.972015 
	C16.387878,43.967087 16.843061,43.999489 17.166874,43.999493 
	C17.922159,43.988285 18.353632,43.977074 18.785103,43.965862 
z"/>
<path fill="#20203D" opacity="1.000000" stroke="none" 
	d="
M18.854446,43.547508 
	C18.353632,43.977074 17.922159,43.988285 17.177441,43.692398 
	C16.816441,42.978527 16.768690,42.571754 16.802740,41.775753 
	C17.294506,40.234138 17.704468,39.081760 18.114429,37.929379 
	C18.114429,37.929379 18.475431,38.035267 18.663269,38.045563 
	C18.875334,39.746960 18.899563,41.438061 18.854446,43.547508 
z"/>
<path fill="#251D3F" opacity="1.000000" stroke="none" 
	d="
M19.758533,9.030418 
	C20.084311,9.803429 20.065027,10.560559 20.040854,11.696665 
	C19.712044,12.528460 19.388124,12.981277 18.714224,13.590240 
	C17.916033,13.480097 17.467823,13.213807 17.049763,12.609259 
	C17.398245,11.186624 17.716574,10.102247 18.034904,9.017871 
	C18.494429,9.016760 18.953951,9.015649 19.758533,9.030418 
z"/>
<path fill="#362B5A" opacity="1.000000" stroke="none" 
	d="
M17.019611,12.947516 
	C17.467823,13.213807 17.916033,13.480097 18.602606,13.854444 
	C18.885696,14.138304 18.930424,14.314108 18.690113,14.920795 
	C17.946461,15.898838 17.487846,16.445995 16.915302,16.771673 
	C16.598309,16.271484 16.332150,16.080877 16.001881,15.650444 
	C15.995098,14.885454 15.989330,14.448396 16.211142,13.894253 
	C16.632353,13.500619 16.825983,13.224068 17.019611,12.947516 
z"/>
<path fill="#1F1938" opacity="1.000000" stroke="none" 
	d="
M18.914261,23.626162 
	C18.862177,23.950539 18.461605,23.980427 17.993866,23.991261 
	C17.348175,23.996506 17.170219,23.990917 16.992245,23.605238 
	C16.979584,22.462656 16.966942,21.700163 16.945515,20.614349 
	C16.957657,19.860443 16.978588,19.429861 17.249607,18.999458 
	C17.666426,18.999817 17.833151,18.999998 18.000706,19.331841 
	C18.007849,20.105791 18.014164,20.548082 18.092434,21.201488 
	C18.311756,21.685545 18.528086,21.882917 18.813372,22.004721 
	C18.864363,22.437075 18.915352,22.869431 18.914261,23.626162 
z"/>
<path fill="#1A0F0F" opacity="1.000000" stroke="none" 
	d="
M35.962593,22.621346 
	C35.104248,22.871229 34.089958,22.795233 33.030575,22.441536 
	C33.925869,22.207712 34.866261,22.251589 35.962593,22.621346 
z"/>
<path fill="#443862" opacity="1.000000" stroke="none" 
	d="
M17.029232,16.993153 
	C17.487846,16.445995 17.946461,15.898838 18.621170,15.184024 
	C18.887156,15.766610 18.937048,16.516853 18.704712,17.634262 
	C18.422485,18.001427 18.000261,18.000101 17.750195,17.999918 
	C17.500126,17.999735 17.000254,17.999949 16.995815,17.994038 
	C16.991379,17.988127 16.981411,17.976339 16.992636,17.730507 
	C17.003860,17.484674 17.029232,16.993153 17.029232,16.993153 
z"/>
<path fill="#5D304E" opacity="1.000000" stroke="none" 
	d="
M47.152939,21.254238 
	C47.721466,20.869246 48.266739,20.760384 48.931839,20.842255 
	C49.037601,21.465118 49.023540,21.897247 48.716728,22.660004 
	C48.231358,22.992540 48.038738,22.994448 47.846123,22.996357 
	C47.607311,22.507694 47.368496,22.019032 47.152939,21.254238 
z"/>
<path fill="#393A4D" opacity="1.000000" stroke="none" 
	d="
M18.000261,18.000101 
	C18.000261,18.000101 18.422485,18.001427 18.632631,18.004974 
	C18.895657,18.761230 18.948534,19.513939 18.716713,20.633232 
	C18.432016,20.999821 18.020481,20.990376 18.020481,20.990376 
	C18.014164,20.548082 18.007849,20.105791 18.000790,19.081774 
	C18.000050,18.500050 18.000261,18.000101 18.000261,18.000101 
z"/>
<path fill="#131011" opacity="1.000000" stroke="none" 
	d="
M37.656975,38.997570 
	C38.252247,39.131241 38.506985,39.300217 38.627331,39.736065 
	C38.511055,39.975639 38.027382,40.033081 38.027382,40.033081 
	C37.854111,40.023705 37.680843,40.014328 37.247192,40.001900 
	C36.802258,39.995224 36.617710,39.991608 36.157017,39.967911 
	C36.365429,39.633739 36.849991,39.319656 37.656975,38.997570 
z"/>
<path fill="#343041" opacity="1.000000" stroke="none" 
	d="
M18.092434,21.201488 
	C18.020481,20.990376 18.432016,20.999821 18.637802,21.003765 
	C18.886873,21.175329 18.930159,21.342947 18.893408,21.757645 
	C18.528086,21.882917 18.311756,21.685545 18.092434,21.201488 
z"/>
<path fill="#50525C" opacity="1.000000" stroke="none" 
	d="
M47.809296,23.258533 
	C48.038738,22.994448 48.231358,22.992540 48.712891,22.984503 
	C48.808765,23.252176 48.615726,23.525982 48.191471,23.907787 
	C47.897659,23.850763 47.835068,23.685736 47.809296,23.258533 
z"/>
<path fill="#4F5E64" opacity="1.000000" stroke="none" 
	d="
M47.952774,27.237259 
	C48.345848,27.093172 48.600739,27.278330 48.908993,27.753803 
	C48.843945,27.974304 48.668217,27.983368 48.228607,27.998999 
	C47.933784,27.832916 47.902840,27.660267 47.952774,27.237259 
z"/>
<path fill="#432A4A" opacity="1.000000" stroke="none" 
	d="
M27.875168,47.118927 
	C28.172075,47.124153 28.337389,47.229317 28.768929,47.419106 
	C29.035152,47.503738 29.016813,47.523857 28.755325,47.687614 
	C28.351238,47.999603 28.208639,48.147835 28.066038,48.296070 
	C28.066038,48.296070 27.839491,47.949715 27.838528,47.742706 
	C27.837566,47.535694 27.743576,47.218864 27.875168,47.118927 
z"/>
<path fill="#F7F7F7" opacity="1.000000" stroke="none" 
	d="
M19.153305,48.033482 
	C19.470404,48.140415 19.659674,48.280231 19.861740,48.659851 
	C19.928286,48.826908 20.064507,48.926563 19.787809,48.877369 
	C19.312149,48.539021 19.113186,48.249866 18.914223,47.960712 
	C18.914223,47.960712 19.079229,47.993607 19.153305,48.033482 
z"/>
<path fill="#763B64" opacity="1.000000" stroke="none" 
	d="
M50.009190,15.029942 
	C49.242767,15.019020 48.476345,15.008100 47.325108,14.994123 
	C46.630024,14.220772 46.319759,13.450475 46.013885,12.347406 
	C47.098442,11.687105 48.178608,11.359574 49.761032,11.324815 
	C51.520172,12.461349 52.777042,13.305111 54.033916,14.148873 
	C53.903732,14.452842 53.697777,14.691381 52.826668,14.942490 
	C51.494591,15.023638 50.751892,15.026790 50.009190,15.029942 
z"/>
<path fill="#B35298" opacity="1.000000" stroke="none" 
	d="
M54.275940,14.100416 
	C52.777042,13.305111 51.520172,12.461349 50.106567,11.328587 
	C49.972187,10.586737 49.994541,10.133885 50.024117,9.341272 
	C50.516472,8.737925 51.001610,8.474338 51.742241,8.103619 
	C52.000172,8.164193 52.002613,8.331899 52.209389,9.015265 
	C53.274162,9.682381 54.134602,9.833838 54.995041,9.985294 
	C55.094528,10.303878 55.276699,10.564691 55.756104,10.877586 
	C55.657055,11.779043 55.343452,12.570647 55.019573,13.683226 
	C55.009296,14.004200 54.517960,14.051960 54.275940,14.100416 
z"/>
<path fill="#83868A" opacity="1.000000" stroke="none" 
	d="
M50.223537,44.131172 
	C49.998520,45.535660 49.773502,46.940151 49.121613,48.520355 
	C47.483040,48.126713 46.271347,47.557362 45.091736,46.635841 
	C44.758339,45.189625 44.392860,44.095573 44.363808,42.998016 
	C45.148933,42.986172 45.597633,42.977833 46.373714,42.978580 
	C47.138409,42.987782 47.575726,42.987900 48.333317,43.026680 
	C49.176907,43.420616 49.700222,43.775894 50.223537,44.131172 
z"/>
<path fill="#909EA1" opacity="1.000000" stroke="none" 
	d="
M47.973469,38.987103 
	C48.159706,38.422924 48.345943,37.858746 48.782795,37.121086 
	C49.496349,36.998646 49.959286,37.049690 50.891014,37.376694 
	C51.900940,38.103783 52.442085,38.554905 52.983231,39.006027 
	C52.724007,39.803944 52.464787,40.601856 51.700035,41.697189 
	C50.461830,41.994137 49.729149,41.993668 48.995663,41.653759 
	C48.654392,40.538578 48.313931,39.762840 47.973469,38.987103 
z"/>
<path fill="#603F58" opacity="1.000000" stroke="none" 
	d="
M45.059650,46.988007 
	C46.271347,47.557362 47.483040,48.126713 48.873528,48.864906 
	C49.052322,49.033741 49.210670,49.145569 49.284370,49.196777 
	C49.358067,49.247982 49.092487,49.413921 48.734444,49.549141 
	C48.376396,49.684361 47.970470,49.975609 47.967949,49.976883 
	C47.965427,49.978157 47.954205,49.969578 47.851784,49.710312 
	C47.168381,49.639736 46.587399,49.828423 46.006420,50.017109 
	C46.006420,50.017109 45.900455,50.019176 45.851089,49.994217 
	C45.110622,49.982433 44.419525,49.995613 43.260338,49.742264 
	C42.521679,48.960114 42.251106,48.444492 42.279739,47.801155 
	C43.405849,47.444962 44.232750,47.216484 45.059650,46.988007 
z"/>
<path fill="#C897B6" opacity="1.000000" stroke="none" 
	d="
M53.242470,39.009834 
	C52.442085,38.554905 51.900940,38.103783 51.238468,37.415306 
	C51.680332,36.541157 52.243526,35.904358 53.142693,35.254662 
	C53.657104,36.273571 53.835545,37.305382 54.017105,38.673908 
	C53.847393,39.011627 53.674553,39.012634 53.242470,39.009834 
z"/>
<path fill="#9EA1A4" opacity="1.000000" stroke="none" 
	d="
M48.996471,41.993198 
	C49.729149,41.993668 50.461830,41.994137 51.559200,41.987999 
	C51.514023,42.596287 51.104153,43.211174 50.458908,43.978615 
	C49.700222,43.775894 49.176907,43.420616 48.437519,42.808517 
	C48.418621,42.280663 48.676964,42.094498 48.996471,41.993198 
z"/>
<path fill="#B678A5" opacity="1.000000" stroke="none" 
	d="
M47.970470,49.975609 
	C47.970470,49.975609 48.376396,49.684361 48.624237,49.660374 
	C48.612091,49.934834 48.352108,50.233280 47.884445,50.357101 
	C47.676765,50.182480 47.970470,49.975609 47.970470,49.975609 
z"/>
<path fill="#603F58" opacity="1.000000" stroke="none" 
	d="
M47.967949,49.976883 
	C47.970470,49.975609 47.676765,50.182480 47.572384,50.326088 
	C47.468002,50.469696 47.468281,50.544521 47.442467,50.527653 
	C47.416656,50.510784 47.759560,50.368916 47.845936,50.188530 
	C47.932312,50.008141 47.954205,49.969578 47.954205,49.969578 
	C47.954205,49.969578 47.965427,49.978157 47.967949,49.976883 
z"/>
<path fill="#614D86" opacity="1.000000" stroke="none" 
	d="
M40.000458,53.999428 
	C39.250736,53.999359 38.501019,53.999290 37.376488,53.998924 
	C36.194405,54.247570 35.387127,54.496513 34.279560,54.861473 
	C33.983555,53.911591 33.987846,52.845695 34.388710,51.372890 
	C35.853603,50.962509 36.921917,50.959038 38.153370,51.211586 
	C38.878582,51.654125 39.440659,51.840652 40.001427,52.355812 
	C40.000225,53.122772 40.000343,53.561100 40.000458,53.999428 
z"/>
<path fill="#443862" opacity="1.000000" stroke="none" 
	d="
M37.990234,50.955570 
	C36.921917,50.959038 35.853603,50.962509 34.384106,50.972771 
	C33.166744,51.528687 32.350563,52.077808 31.022089,52.716385 
	C29.673241,52.909237 28.836679,53.012630 28.000120,53.116028 
	C27.834124,53.100384 27.668129,53.084743 27.247192,52.702545 
	C27.021059,51.899426 27.049868,51.462864 27.406170,51.019035 
	C28.170973,50.996468 28.608284,50.981163 29.193460,50.897484 
	C29.341326,50.829102 29.479200,50.431278 29.479200,50.431278 
	C29.479200,50.431278 29.133457,50.147461 29.119560,50.125454 
	C29.105661,50.103447 29.069641,50.065865 29.069641,50.065865 
	C29.149771,49.872341 29.229902,49.678814 29.753227,49.221458 
	C31.426842,48.641960 32.657265,48.326290 34.117989,48.268456 
	C35.246571,48.651993 36.144844,48.777699 37.273560,48.916336 
	C37.504002,48.929264 37.963978,48.968040 37.972176,49.299690 
	C37.983662,50.072746 37.986950,50.514160 37.990234,50.955570 
z"/>
<path fill="#614D86" opacity="1.000000" stroke="none" 
	d="
M28.118837,53.318558 
	C28.836679,53.012630 29.673241,52.909237 30.767094,52.895882 
	C31.018267,53.156521 31.012148,53.327122 30.996725,53.753735 
	C30.547911,54.013649 30.108398,54.017551 29.339544,54.034855 
	C28.705700,53.941303 28.448151,53.765579 28.118837,53.318558 
z"/>
<path fill="#5C4A81" opacity="1.000000" stroke="none" 
	d="
M40.375935,53.999722 
	C40.000343,53.561100 40.000225,53.122772 40.005325,52.108063 
	C40.010540,51.531677 40.010368,51.036762 40.378517,51.038151 
	C41.480488,51.071632 42.214314,51.103725 42.948139,51.135818 
	C42.965473,51.849709 42.982807,52.563602 43.003662,53.635384 
	C42.255257,53.995518 41.503334,53.997768 40.375935,53.999722 
z"/>
<path fill="#51375D" opacity="1.000000" stroke="none" 
	d="
M42.972752,50.854774 
	C42.214314,51.103725 41.480488,51.071632 40.269127,50.767242 
	C39.521793,49.978668 39.251991,49.462395 39.095718,48.697968 
	C39.475742,47.976009 39.742233,47.502213 40.265480,47.119045 
	C41.008335,47.449409 41.494431,47.689140 41.980530,47.928871 
	C42.251106,48.444492 42.521679,48.960114 42.911415,49.743103 
	C43.019505,50.198231 43.008434,50.385983 42.972752,50.854774 
z"/>
<path fill="#725F6E" opacity="1.000000" stroke="none" 
	d="
M47.851784,49.710312 
	C47.954205,49.969578 47.932312,50.008141 47.921463,50.019051 
	C47.593193,50.035973 47.275768,50.041985 46.482380,50.032555 
	C46.587399,49.828423 47.168381,49.639736 47.851784,49.710312 
z"/>
<path fill="#5D5899" opacity="1.000000" stroke="none" 
	d="
M14.966681,53.048271 
	C13.520775,52.068092 12.085028,51.071526 10.303068,50.049522 
	C9.957205,49.854145 9.957552,49.684200 9.977808,48.985054 
	C9.986295,48.273846 9.974871,48.091839 10.162230,47.810608 
	C10.596811,47.520638 10.773518,47.285473 11.205555,47.118965 
	C12.352483,47.482769 13.184985,47.733505 14.271944,47.983627 
	C14.695947,47.977474 14.865495,47.971935 15.035042,47.966400 
	C15.035042,47.966400 15.047922,47.993637 15.039036,48.401718 
	C15.021096,50.208401 15.012042,51.607002 15.002988,53.005600 
	C15.002988,53.005600 14.976839,53.031879 14.966681,53.048271 
z"/>
<path fill="#8E61AF" opacity="1.000000" stroke="none" 
	d="
M5.212228,45.925514 
	C4.888678,45.449287 4.918508,45.014164 4.960450,44.249413 
	C5.618759,44.399563 6.264956,44.879349 6.946831,45.685532 
	C6.510207,45.996830 6.037908,45.981728 5.212228,45.925514 
z"/>
<path fill="#805296" opacity="1.000000" stroke="none" 
	d="
M8.053131,47.296494 
	C8.212178,47.000343 8.379678,47.001694 8.792305,47.239891 
	C9.037432,47.476734 9.018322,47.942493 9.009884,48.206978 
	C9.000983,48.647877 9.000522,48.824287 9.000061,49.000694 
	C8.687236,48.531792 8.374411,48.062889 8.053131,47.296494 
z"/>
<path fill="#755497" opacity="1.000000" stroke="none" 
	d="
M9.249137,49.001762 
	C9.000522,48.824287 9.000983,48.647877 9.246130,48.201679 
	C9.490814,47.931896 9.963446,47.909832 9.963446,47.909832 
	C9.974871,48.091839 9.986295,48.273846 9.997038,48.730865 
	C9.996359,49.005882 9.498213,49.002831 9.249137,49.001762 
z"/>
<path fill="#C55BA8" opacity="1.000000" stroke="none" 
	d="
M54.994225,9.739994 
	C54.134602,9.833838 53.274162,9.682381 52.212326,9.266832 
	C52.752037,9.001877 53.493145,9.001013 54.604252,9.002306 
	C54.974251,9.004463 54.993404,9.494693 54.994225,9.739994 
z"/>
<path fill="#0C0F1B" opacity="1.000000" stroke="none" 
	d="
M10.997946,30.991415 
	C10.997946,30.991415 11.012760,30.512535 11.297428,30.270967 
	C11.765776,30.029890 11.949455,30.030378 12.385113,30.239914 
	C13.432248,32.276257 14.227407,34.103558 14.685163,35.950439 
	C13.897254,35.980434 13.446749,35.990852 12.996243,36.001274 
	C12.996243,36.001270 12.548214,35.882481 12.322447,35.829994 
	C11.429796,35.053806 10.762913,34.330105 10.045343,33.304596 
	C10.000322,32.832714 10.005985,32.662632 10.233833,32.130898 
	C10.722689,31.569927 10.903332,31.310650 10.997946,30.991415 
z"/>
<path fill="#5C4C85" opacity="1.000000" stroke="none" 
	d="
M16.720938,42.164986 
	C16.768690,42.571754 16.816441,42.978527 16.853626,43.692390 
	C16.843061,43.999489 16.387878,43.967087 15.829031,43.977638 
	C14.510128,44.326569 13.750072,44.664944 12.703882,45.126968 
	C11.861430,45.547447 11.305113,45.844273 10.537570,46.142136 
	C10.326345,46.143169 9.904050,46.131592 9.904051,46.131592 
	C9.928272,45.661118 9.952494,45.190639 9.976713,44.367054 
	C9.984107,43.261215 9.991502,42.508488 9.998474,41.379688 
	C9.997872,40.565552 9.997691,40.127487 9.996011,39.361588 
	C10.746771,39.022560 11.499030,39.011364 12.765700,39.305672 
	C14.427053,40.462448 15.573996,41.313717 16.720938,42.164986 
z"/>
<path fill="#4A355C" opacity="1.000000" stroke="none" 
	d="
M16.802740,41.775753 
	C15.573996,41.313717 14.427053,40.462448 13.141783,39.302673 
	C12.999752,38.245983 12.996051,37.497795 12.994296,36.375443 
	C13.446749,35.990852 13.897254,35.980434 14.980349,36.031593 
	C16.369501,36.383133 17.126066,36.673092 17.882633,36.963051 
	C17.941368,37.119293 18.000103,37.275536 18.086636,37.680580 
	C17.704468,39.081760 17.294506,40.234138 16.802740,41.775753 
z"/>
<path fill="#9E83B0" opacity="1.000000" stroke="none" 
	d="
M12.905905,9.255291 
	C12.905905,9.255291 13.260653,9.193727 13.508328,9.490685 
	C13.635162,10.790652 13.514320,11.793665 13.152327,12.894512 
	C12.551205,13.584032 12.191234,14.175716 11.595678,14.913990 
	C10.907162,15.375052 10.454228,15.689525 10.002151,15.666992 
	C10.000154,14.880410 9.997300,14.430830 9.994445,13.981251 
	C10.483770,12.778231 10.973096,11.575211 11.917908,10.109018 
	C12.614823,9.706612 12.792326,9.509760 12.905905,9.255291 
z"/>
<path fill="#52418B" opacity="1.000000" stroke="none" 
	d="
M9.038939,19.990377 
	C8.936742,19.660156 8.747595,19.391058 8.141750,18.862411 
	C7.628520,18.278494 7.388591,18.085373 7.092217,17.962376 
	C7.092217,17.962376 7.106879,17.632536 7.117747,17.470011 
	C7.538730,17.236624 7.948845,17.165762 8.910715,17.033716 
	C9.462470,16.972532 9.954906,16.939466 10.112023,17.190847 
	C10.846008,17.958858 11.422875,18.475489 11.833981,19.238304 
	C11.113737,19.655220 10.559254,19.825953 9.763317,19.994268 
	C9.521865,19.991852 9.038939,19.990377 9.038939,19.990377 
z"/>
<path fill="#9A80AF" opacity="1.000000" stroke="none" 
	d="
M9.954906,16.939466 
	C9.954906,16.939466 9.462470,16.972532 9.215586,16.963543 
	C8.478393,15.893422 5.271264,14.493670 9.665674,13.990817 
	C9.997300,14.430830 10.000154,14.880410 10.000881,15.901358 
	C9.998753,16.472727 9.954906,16.939466 9.954906,16.939466 
z"/>
<path fill="#A488B7" opacity="1.000000" stroke="none" 
	d="
M12.724448,9.103518 
	C12.792326,9.509760 12.614823,9.706612 12.184229,9.919763 
	C12.006864,9.791702 12.018664,9.589725 12.065936,9.084824 
	C12.101406,8.781898 12.542992,8.951746 12.724448,9.103518 
z"/>
<path fill="#564592" opacity="1.000000" stroke="none" 
	d="
M10.004770,19.996685 
	C10.559254,19.825953 11.113737,19.655220 12.087782,19.237291 
	C12.676484,18.985872 12.845626,18.981649 13.339352,19.031052 
	C14.130804,19.743843 14.597672,20.403006 14.803926,21.220814 
	C13.675435,22.218985 12.807559,23.058510 11.680332,24.030266 
	C10.937868,24.753254 10.454756,25.344011 9.729546,25.945335 
	C9.487447,25.955904 9.005857,26.010363 9.005857,26.010363 
	C8.688926,25.224106 8.371996,24.437847 8.404082,23.258987 
	C9.170323,21.909819 9.587547,20.953253 10.004770,19.996685 
z"/>
<path fill="#231C3C" opacity="1.000000" stroke="none" 
	d="
M8.921383,26.258221 
	C9.005857,26.010363 9.487447,25.955904 9.895645,26.211584 
	C10.901249,27.042170 11.498653,27.617073 12.108692,28.498018 
	C12.125262,29.212996 12.129199,29.621931 12.133136,30.030869 
	C11.949455,30.030378 11.765776,30.029890 11.306932,30.031601 
	C10.454851,29.838751 9.877934,29.643700 9.127341,29.188335 
	C8.914748,28.120708 8.875829,27.313395 8.921383,26.258221 
z"/>
<path fill="#5C499C" opacity="1.000000" stroke="none" 
	d="
M9.763317,19.994268 
	C9.587547,20.953253 9.170323,21.909819 8.419879,22.920208 
	C8.061534,22.808226 8.036408,22.642424 8.008136,22.224817 
	C8.181455,21.419975 8.357921,20.866934 8.786663,20.152136 
	C9.038939,19.990377 9.521865,19.991852 9.763317,19.994268 
z"/>
<path fill="#090A13" opacity="1.000000" stroke="none" 
	d="
M10.781043,31.096706 
	C10.903332,31.310650 10.722689,31.569927 10.241349,31.875746 
	C10.112510,31.657877 10.291662,31.397795 10.781043,31.096706 
z"/>
<path fill="#202947" opacity="1.000000" stroke="none" 
	d="
M27.078676,51.026299 
	C27.049868,51.462864 27.021059,51.899426 27.000099,52.663925 
	C25.888470,53.636112 24.768993,54.280365 23.324551,54.946259 
	C22.199675,54.655495 21.399765,54.343086 20.252316,54.065468 
	C19.904774,54.100262 19.778576,54.126778 19.805525,53.784134 
	C19.779186,52.989868 19.725901,52.538242 19.727821,51.843300 
	C19.783028,51.599987 19.877136,51.109951 19.877136,51.109947 
	C22.004389,50.768520 24.131641,50.427094 26.655981,50.324097 
	C27.053068,50.562531 27.078676,51.026299 27.078676,51.026299 
z"/>
<path fill="#A061B3" opacity="1.000000" stroke="none" 
	d="
M9.713566,46.224449 
	C9.904050,46.131592 10.326345,46.143169 10.582734,46.356339 
	C10.839123,46.569504 10.891130,47.005898 10.891130,47.005898 
	C10.773518,47.285473 10.596811,47.520638 10.162230,47.810608 
	C9.963446,47.909832 9.490814,47.931896 9.254568,47.937195 
	C9.018322,47.942493 9.037432,47.476734 9.043531,47.243889 
	C9.130018,46.726891 9.287835,46.495644 9.713566,46.224449 
z"/>
<path fill="#AB85A8" opacity="1.000000" stroke="none" 
	d="
M53.931591,25.972595 
	C53.956135,25.807484 53.980679,25.642372 54.061466,25.232983 
	C54.117714,24.988705 54.559708,24.998713 54.780773,25.000895 
	C55.173027,25.023615 55.344212,25.044153 55.768948,25.118877 
	C56.013695,25.854471 56.004890,26.535881 55.994667,27.558811 
	C55.993248,27.900333 55.547298,27.937140 55.198662,27.676783 
	C54.543877,26.935148 54.237732,26.453873 53.931591,25.972595 
z"/>
<path fill="#538788" opacity="1.000000" stroke="none" 
	d="
M56.965130,29.770561 
	C56.828995,29.761381 56.693356,29.479790 56.702217,29.082329 
	C56.886353,29.143690 56.925987,29.320921 56.965130,29.770561 
z"/>
<path fill="#42467A" opacity="1.000000" stroke="none" 
	d="
M19.845140,50.767174 
	C19.877136,51.109951 19.783028,51.599987 19.466566,51.860924 
	C18.760481,52.456600 18.370859,52.791348 17.981236,53.126091 
	C17.236843,53.090916 16.492451,53.055737 15.375523,53.013081 
	C15.012042,51.607002 15.021096,50.208401 15.048132,48.389194 
	C16.169031,47.902496 17.271948,47.836407 18.644543,47.865517 
	C19.113186,48.249866 19.312149,48.539021 19.749302,48.952461 
	C19.929375,49.525963 19.871260,49.975178 19.845140,50.767174 
z"/>
<path fill="#4E4D87" opacity="1.000000" stroke="none" 
	d="
M18.127609,53.334846 
	C18.370859,52.791348 18.760481,52.456600 19.411360,52.104237 
	C19.725901,52.538242 19.779186,52.989868 19.741516,53.776382 
	C19.191700,53.922047 18.732841,53.732822 18.127609,53.334846 
z"/>
<path fill="#2F2551" opacity="1.000000" stroke="none" 
	d="
M13.393478,12.796677 
	C13.514320,11.793665 13.635162,10.790652 13.671465,9.414553 
	C13.811482,9.048606 14.036040,9.055747 14.753085,9.280260 
	C15.791821,9.314463 16.338070,9.131291 16.884319,8.948119 
	C16.884319,8.948119 16.958649,8.962393 16.988682,8.985788 
	C17.187960,9.008327 17.357206,9.007471 17.780678,9.012242 
	C17.716574,10.102247 17.398245,11.186624 17.049763,12.609259 
	C16.825983,13.224068 16.632353,13.500619 15.889699,13.744998 
	C14.691609,13.407442 14.042543,13.102059 13.393478,12.796677 
z"/>
<path fill="#4A3B7D" opacity="1.000000" stroke="none" 
	d="
M16.560215,8.964054 
	C16.338070,9.131291 15.791821,9.314463 15.090029,9.273787 
	C15.368360,9.026621 15.802235,9.003304 16.560215,8.964054 
z"/>
<path fill="#765F7F" opacity="1.000000" stroke="none" 
	d="
M50.419891,20.985863 
	C50.037220,20.562105 50.035755,20.138592 50.346565,19.353613 
	C51.440140,18.665651 52.221447,18.339153 53.002750,18.012657 
	C53.569565,18.191599 54.136375,18.370541 54.872108,18.802364 
	C54.750816,19.558151 54.460609,20.061056 54.001633,20.805695 
	C52.822277,21.026989 51.811687,21.006550 50.419891,20.985863 
z"/>
<path fill="#5C499C" opacity="1.000000" stroke="none" 
	d="
M7.168772,18.191582 
	C7.388591,18.085373 7.628520,18.278494 7.918687,18.749615 
	C7.691511,18.885870 7.431496,18.706970 7.168772,18.191582 
z"/>
<path fill="#5F3352" opacity="1.000000" stroke="none" 
	d="
M53.001373,17.642513 
	C52.221447,18.339153 51.440140,18.665651 50.342793,19.035839 
	C50.018993,17.998201 50.011234,16.916872 50.006332,15.432743 
	C50.751892,15.026790 51.494591,15.023638 52.607792,15.039518 
	C52.985527,15.796491 52.992760,16.534431 53.001373,17.642513 
z"/>
<path fill="#5F6F80" opacity="1.000000" stroke="none" 
	d="
M53.619560,26.021132 
	C54.237732,26.453873 54.543877,26.935148 54.974983,27.671921 
	C54.319443,27.948149 53.538944,27.968880 52.368641,27.975933 
	C52.421734,27.331392 52.864628,26.700529 53.619560,26.021132 
z"/>
<path fill="#3F243D" opacity="1.000000" stroke="none" 
	d="
M40.008728,47.028412 
	C39.742233,47.502213 39.475742,47.976009 38.841293,48.704086 
	C38.303547,48.961590 38.133762,48.964817 37.963978,48.968040 
	C37.963978,48.968040 37.504002,48.929264 37.258865,48.551727 
	C37.006199,47.438576 36.998669,46.702957 36.991135,45.967342 
	C36.991135,45.967342 37.009354,45.491470 37.064194,45.259762 
	C37.947445,45.181274 38.775852,45.334496 39.803902,46.000313 
	C40.005268,46.684742 40.007000,46.856575 40.008728,47.028412 
z"/>
<path fill="#472947" opacity="1.000000" stroke="none" 
	d="
M36.587379,45.972721 
	C36.998669,46.702957 37.006199,47.438576 37.028427,48.538795 
	C36.144844,48.777699 35.246571,48.651993 34.001122,48.039001 
	C33.174076,47.392208 32.694199,47.232693 32.168411,46.838886 
	C32.122498,46.604591 32.148796,46.127815 32.148796,46.127815 
	C33.493736,46.077908 34.838680,46.028004 36.587379,45.972721 
z"/>
<path fill="#51375D" opacity="1.000000" stroke="none" 
	d="
M32.214325,47.073181 
	C32.694199,47.232693 33.174076,47.392208 33.770817,47.781170 
	C32.657265,48.326290 31.426842,48.641960 29.903263,48.945412 
	C29.610106,48.933193 29.347450,48.909481 29.243576,48.571724 
	C29.098740,47.997265 29.057777,47.760563 29.016813,47.523857 
	C29.016813,47.523857 29.035152,47.503738 29.047104,47.513916 
	C29.230034,47.476421 29.401011,47.428753 30.175701,47.268780 
	C31.257719,47.128712 31.736023,47.100948 32.214325,47.073181 
z"/>
<path fill="#120E1F" opacity="1.000000" stroke="none" 
	d="
M32.168411,46.838886 
	C31.736023,47.100948 31.257719,47.128712 30.422915,47.169922 
	C30.541363,46.813408 31.016315,46.443447 31.820030,46.100651 
	C32.148796,46.127815 32.122498,46.604591 32.168411,46.838886 
z"/>
<path fill="#362D35" opacity="1.000000" stroke="none" 
	d="
M40.265480,47.119045 
	C40.007000,46.856575 40.005268,46.684742 40.002464,46.255119 
	C40.654858,45.055634 41.308319,44.113949 42.626076,43.096127 
	C43.536041,43.013836 43.781715,43.007679 44.027386,43.001522 
	C44.392860,44.095573 44.758339,45.189625 45.091736,46.635841 
	C44.232750,47.216484 43.405849,47.444962 42.279739,47.801155 
	C41.494431,47.689140 41.008335,47.449409 40.265480,47.119045 
z"/>
<path fill="#89868B" opacity="1.000000" stroke="none" 
	d="
M44.363808,42.998016 
	C43.781715,43.007679 43.536041,43.013836 42.918518,43.033348 
	C42.317394,41.929302 42.088120,40.811901 41.891983,39.340378 
	C43.154694,38.825348 44.384274,38.664433 45.807621,39.146656 
	C46.016373,40.849697 46.031353,41.909595 46.046337,42.969498 
	C45.597633,42.977833 45.148933,42.986172 44.363808,42.998016 
z"/>
<path fill="#41383A" opacity="1.000000" stroke="none" 
	d="
M38.122978,40.201065 
	C38.027382,40.033081 38.511055,39.975639 38.750420,39.929619 
	C38.732716,40.045418 38.475647,40.207233 38.122978,40.201065 
z"/>
<path fill="#010102" opacity="1.000000" stroke="none" 
	d="
M12.385113,30.239914 
	C12.129199,29.621931 12.125262,29.212996 12.424311,28.468655 
	C13.150562,28.096449 13.573829,28.059645 14.199987,28.268517 
	C15.555075,27.686445 16.707270,26.858698 17.859463,26.030949 
	C17.903923,29.372747 17.948381,32.714546 17.937737,36.509697 
	C17.126066,36.673092 16.369501,36.383133 15.317751,36.012016 
	C14.227407,34.103558 13.432248,32.276257 12.385113,30.239914 
z"/>
<path fill="#1B152E" opacity="1.000000" stroke="none" 
	d="
M17.934887,25.766872 
	C16.707270,26.858698 15.555075,27.686445 14.198709,27.889679 
	C13.992577,26.508451 13.990616,25.751743 14.348980,24.993546 
	C15.426017,24.995682 16.142729,24.999306 17.107512,25.002520 
	C17.355581,25.002110 17.851091,24.977110 17.851091,24.977110 
	C17.904165,25.152340 17.957239,25.327568 17.934887,25.766872 
z"/>
<path fill="#010102" opacity="1.000000" stroke="none" 
	d="
M17.915276,24.739433 
	C17.851091,24.977110 17.355581,25.002110 17.149151,24.749088 
	C16.959234,24.325821 16.975748,24.155575 16.992264,23.985329 
	C17.170219,23.990917 17.348175,23.996506 17.793823,24.009182 
	C18.061520,24.016268 17.979458,24.501759 17.915276,24.739433 
z"/>
<path fill="#8D979B" opacity="1.000000" stroke="none" 
	d="
M46.373714,42.978580 
	C46.031353,41.909595 46.016373,40.849697 46.001228,39.391396 
	C46.439598,38.991539 46.878124,38.990082 47.645061,38.987862 
	C48.313931,39.762840 48.654392,40.538578 48.995663,41.653759 
	C48.676964,42.094498 48.418621,42.280663 48.117245,42.769859 
	C47.575726,42.987900 47.138409,42.987782 46.373714,42.978580 
z"/>
<path fill="#363760" opacity="1.000000" stroke="none" 
	d="
M27.406170,51.019035 
	C27.078676,51.026299 27.053068,50.562531 27.057091,50.331421 
	C27.506714,50.080521 27.952311,50.060730 28.733776,50.053402 
	C29.069641,50.065865 29.105661,50.103447 29.083641,50.327763 
	C29.061623,50.552078 29.045595,50.965862 29.045595,50.965862 
	C28.608284,50.981163 28.170973,50.996468 27.406170,51.019035 
z"/>
<path fill="#120E1F" opacity="1.000000" stroke="none" 
	d="
M28.755325,47.687614 
	C29.057777,47.760563 29.098740,47.997265 29.113441,48.592995 
	C28.796244,48.925350 28.541924,48.814690 28.195129,48.458054 
	C28.208639,48.147835 28.351238,47.999603 28.755325,47.687614 
z"/>
<path fill="#4B4A81" opacity="1.000000" stroke="none" 
	d="
M12.990016,45.003315 
	C13.750072,44.664944 14.510128,44.326569 15.600918,43.982567 
	C15.723463,45.094940 15.515274,46.212933 15.171062,47.648666 
	C14.865495,47.971935 14.695947,47.977474 14.242343,47.666412 
	C13.635530,46.567650 13.312773,45.785480 12.990016,45.003315 
z"/>
<path fill="#42346F" opacity="1.000000" stroke="none" 
	d="
M13.152327,12.894512 
	C14.042543,13.102059 14.691609,13.407442 15.662119,13.862082 
	C15.989330,14.448396 15.995098,14.885454 16.019356,15.948480 
	C16.352367,17.041744 16.666889,17.509041 16.981411,17.976339 
	C16.981411,17.976339 16.991379,17.988127 16.995598,18.243883 
	C16.999815,18.499640 16.999517,18.999279 16.999517,18.999279 
	C16.978588,19.429861 16.957657,19.860443 16.631170,20.642298 
	C15.905256,21.016438 15.484899,21.039303 15.064542,21.062168 
	C14.597672,20.403006 14.130804,19.743843 13.329763,18.663754 
	C12.607482,17.084354 12.219372,15.925878 11.831263,14.767401 
	C12.191234,14.175716 12.551205,13.584032 13.152327,12.894512 
z"/>
<path fill="#483A7A" opacity="1.000000" stroke="none" 
	d="
M16.992636,17.730507 
	C16.666889,17.509041 16.352367,17.041744 16.020369,16.276409 
	C16.332150,16.080877 16.598309,16.271484 16.915302,16.771673 
	C17.029232,16.993153 17.003860,17.484674 16.992636,17.730507 
z"/>
<path fill="#2A2248" opacity="1.000000" stroke="none" 
	d="
M14.803926,21.220814 
	C15.484899,21.039303 15.905256,21.016438 16.639957,20.965622 
	C16.966942,21.700163 16.979584,22.462656 16.992245,23.605238 
	C16.975748,24.155575 16.959234,24.325821 16.901081,24.749498 
	C16.142729,24.999306 15.426017,24.995682 14.040373,24.969522 
	C12.894187,24.597338 12.416934,24.247686 11.939682,23.898035 
	C12.807559,23.058510 13.675435,22.218985 14.803926,21.220814 
z"/>
<path fill="#362B5A" opacity="1.000000" stroke="none" 
	d="
M17.249607,18.999458 
	C16.999517,18.999279 16.999815,18.499640 17.000034,18.249794 
	C17.000254,17.999949 17.500126,17.999735 17.750195,17.999918 
	C18.000261,18.000101 18.000050,18.500050 17.999964,18.750114 
	C17.833151,18.999998 17.666426,18.999817 17.249607,18.999458 
z"/>
<path fill="#573E6B" opacity="1.000000" stroke="none" 
	d="
M37.972176,49.299690 
	C38.133762,48.964817 38.303547,48.961590 38.727760,48.952248 
	C39.251991,49.462395 39.521793,49.978668 39.900978,50.765854 
	C40.010368,51.036762 40.010540,51.531677 40.006638,51.779430 
	C39.440659,51.840652 38.878582,51.654125 38.153370,51.211586 
	C37.986950,50.514160 37.983662,50.072746 37.972176,49.299690 
z"/>
<path fill="#3F406E" opacity="1.000000" stroke="none" 
	d="
M29.193460,50.897484 
	C29.045595,50.965862 29.061623,50.552078 29.097540,50.349770 
	C29.133457,50.147461 29.479200,50.431278 29.479200,50.431278 
	C29.479200,50.431278 29.341326,50.829102 29.193460,50.897484 
z"/>
<path fill="#535391" opacity="1.000000" stroke="none" 
	d="
M12.703882,45.126968 
	C13.312773,45.785480 13.635530,46.567650 13.987886,47.667030 
	C13.184985,47.733505 12.352483,47.482769 11.205555,47.118965 
	C10.891130,47.005898 10.839123,46.569504 10.793959,46.355301 
	C11.305113,45.844273 11.861430,45.547447 12.703882,45.126968 
z"/>
<path fill="#4A3B7D" opacity="1.000000" stroke="none" 
	d="
M11.595678,14.913990 
	C12.219372,15.925878 12.607482,17.084354 13.005178,18.610126 
	C12.845626,18.981649 12.676484,18.985872 12.253542,18.991108 
	C11.422875,18.475489 10.846008,17.958858 10.112023,17.190847 
	C9.954906,16.939466 9.998753,16.472727 10.000024,16.238361 
	C10.454228,15.689525 10.907162,15.375052 11.595678,14.913990 
z"/>
<path fill="#281F44" opacity="1.000000" stroke="none" 
	d="
M11.680330,24.030266 
	C12.416934,24.247686 12.894187,24.597338 13.680048,24.971010 
	C13.990616,25.751743 13.992577,26.508451 13.995815,27.644001 
	C13.573829,28.059645 13.150562,28.096449 12.411678,28.162617 
	C11.498653,27.617073 10.901249,27.042170 10.137744,26.201015 
	C10.454756,25.344011 10.937868,24.753254 11.680330,24.030266 
z"/>
</svg>